<svg width="170" height="54" viewBox="0 0 170 54" fill="none" xmlns="http://www.w3.org/2000/svg">
<g clip-path="url(#clip0_7110_2242)">
<path d="M61.8467 45.4204V28.1263H67.8379C68.6099 28.1263 69.3382 28.2574 70.0227 28.5148C70.7073 28.7721 71.3045 29.1362 71.824 29.6023C72.3386 30.0684 72.7465 30.6267 73.0427 31.2822C73.3388 31.9328 73.4893 32.6562 73.4893 33.4427C73.4893 34.2293 73.3388 34.9284 73.0427 35.579C72.7465 36.2296 72.3386 36.7928 71.824 37.2589C71.3094 37.725 70.7073 38.0891 70.0227 38.3464C69.3382 38.6037 68.6099 38.7348 67.8379 38.7348H64.5753V45.4252H61.8467V45.4204ZM67.9108 36.1228C68.3623 36.1228 68.7653 36.0451 69.1197 35.8946C69.4741 35.7441 69.7703 35.5353 70.013 35.278C70.2558 35.0207 70.4403 34.7293 70.5665 34.4089C70.6976 34.0885 70.7607 33.7632 70.7607 33.4427C70.7607 33.1029 70.6976 32.7727 70.5665 32.4523C70.4354 32.1318 70.2509 31.8454 70.013 31.5929C69.7703 31.3453 69.4741 31.1365 69.1197 30.9763C68.7653 30.8161 68.3623 30.7336 67.9108 30.7336H64.5753V36.1179H67.9108V36.1228Z" fill="#5F6368"/>
<path d="M82.4867 43.9687H82.341C81.9866 44.4348 81.5254 44.8572 80.9622 45.2359C80.399 45.6146 79.6804 45.8039 78.8113 45.8039C78.185 45.8039 77.5975 45.702 77.0489 45.5029C76.5003 45.3039 76.0245 45.0223 75.6215 44.6581C75.2185 44.294 74.9029 43.8716 74.6699 43.3764C74.4368 42.886 74.3203 42.3422 74.3203 41.745C74.3203 41.1187 74.4465 40.5555 74.6942 40.0555C74.9418 39.5554 75.2913 39.1378 75.7332 38.798C76.175 38.4581 76.7042 38.1959 77.3159 38.0114C77.9277 37.8269 78.588 37.7347 79.2968 37.7347C80.0834 37.7347 80.7437 37.8124 81.2777 37.9629C81.8069 38.1183 82.2099 38.2591 82.4867 38.3853V37.924C82.4867 37.5696 82.409 37.2395 82.2585 36.9336C82.1031 36.6277 81.8943 36.3655 81.6322 36.1471C81.37 35.9286 81.0641 35.7587 80.7242 35.6421C80.3844 35.5208 80.03 35.4625 79.661 35.4625C79.0638 35.4625 78.5297 35.579 78.0539 35.8121C77.5781 36.0451 77.1557 36.419 76.7867 36.9336L74.6602 35.5305C75.2234 34.7585 75.9225 34.1759 76.7624 33.7778C77.5975 33.3845 78.5491 33.1854 79.6124 33.1854C81.3651 33.1854 82.7246 33.6224 83.681 34.4915C84.6375 35.3605 85.1182 36.6034 85.1182 38.2105V45.4058H82.4867V43.959V43.9687ZM82.4867 40.4924C82.1322 40.2836 81.739 40.1137 81.302 39.9875C80.8651 39.8564 80.3698 39.7933 79.8066 39.7933C78.9715 39.7933 78.3015 39.9875 77.8015 40.371C77.3014 40.7595 77.0538 41.2255 77.0538 41.7742C77.0538 42.0655 77.1169 42.318 77.248 42.5364C77.3791 42.7549 77.5393 42.9443 77.7432 43.1045C77.9423 43.2647 78.1802 43.3861 78.4423 43.4686C78.7094 43.5512 78.9764 43.59 79.2531 43.59C79.6901 43.59 80.1028 43.5075 80.4961 43.3375C80.8893 43.1676 81.234 42.9443 81.5205 42.6627C81.8118 42.3811 82.0449 42.0558 82.2196 41.6868C82.3944 41.3178 82.4867 40.9245 82.4867 40.5021V40.4924Z" fill="#5F6368"/>
<path d="M90.0441 35.5644H90.1898C90.5102 34.8895 91.0006 34.3652 91.6512 33.9962C92.3018 33.6272 93.0252 33.4427 93.8117 33.4427C94.069 33.4427 94.2584 33.4524 94.3798 33.467C94.5011 33.4815 94.6274 33.5058 94.7536 33.5398V36.2441C94.574 36.181 94.404 36.1373 94.2341 36.113C94.0642 36.0887 93.8457 36.079 93.569 36.079C92.5542 36.079 91.7386 36.3898 91.1171 37.0112C90.4957 37.6327 90.1849 38.4483 90.1849 39.4631V45.6242H87.5049V33.7874H90.0393V35.5741L90.0441 35.5644ZM98.3756 35.9528H96.2976V33.5835H98.3756V29.9615H101.056V33.5835H103.978V35.9528H101.056V41.3614C101.056 41.6576 101.09 41.9343 101.153 42.1819C101.216 42.4296 101.313 42.6383 101.444 42.8034C101.716 43.119 102.065 43.2744 102.483 43.2744C102.74 43.2744 102.939 43.2549 103.085 43.2161C103.231 43.1773 103.381 43.1141 103.541 43.0365L104.362 45.4058C104.022 45.5369 103.668 45.634 103.299 45.7068C102.93 45.7796 102.507 45.8136 102.041 45.8136C101.478 45.8136 100.978 45.7213 100.546 45.5417C100.114 45.3621 99.7301 45.1145 99.4097 44.8037C98.7154 44.0949 98.3707 43.1384 98.3707 41.9198V35.9577L98.3756 35.9528Z" fill="#5F6368"/>
<path d="M108.417 35.1809H108.563C108.917 34.6177 109.422 34.1467 110.073 33.768C110.723 33.3893 111.461 33.2 112.282 33.2C113.777 33.2 114.899 33.6466 115.642 34.54C116.38 35.4333 116.753 36.6228 116.753 38.1037V45.4204H114.073V38.4629C114.073 37.4336 113.836 36.7102 113.36 36.3024C112.884 35.8897 112.262 35.6858 111.486 35.6858C111.02 35.6858 110.607 35.7829 110.252 35.9771C109.898 36.1713 109.592 36.4335 109.335 36.7636C109.077 37.0938 108.883 37.4725 108.757 37.8997C108.626 38.327 108.563 38.7737 108.563 39.2398V45.4252H105.883V33.5884H108.417V35.1809Z" fill="#5F6368"/>
<path d="M130.037 42.5946C129.537 43.5122 128.828 44.2793 127.911 44.891C126.993 45.5028 125.867 45.8087 124.531 45.8087C123.648 45.8087 122.827 45.6533 122.08 45.3377C121.332 45.0221 120.681 44.5852 120.138 44.022C119.589 43.4588 119.162 42.7936 118.856 42.0314C118.55 41.2691 118.399 40.4243 118.399 39.5067C118.399 38.6522 118.545 37.8462 118.836 37.0791C119.128 36.3169 119.531 35.6468 120.055 35.0739C120.579 34.501 121.211 34.0495 121.949 33.7096C122.687 33.3698 123.512 33.2047 124.41 33.2047C125.308 33.2047 126.143 33.3601 126.862 33.666C127.581 33.9718 128.187 34.3991 128.687 34.9477C129.188 35.4963 129.571 36.1566 129.833 36.9286C130.095 37.7006 130.231 38.5454 130.231 39.463V39.6815C130.217 39.764 130.207 39.8368 130.207 39.9C130.193 39.9631 130.183 40.031 130.183 40.0942H121.079C121.128 40.6574 121.264 41.1477 121.492 41.5653C121.715 41.9828 121.997 42.3324 122.327 42.6043C122.657 42.8762 123.022 43.0801 123.424 43.2063C123.827 43.3374 124.221 43.4005 124.609 43.4005C125.381 43.4005 126.017 43.216 126.517 42.847C127.017 42.478 127.425 42.0168 127.75 41.4682L130.047 42.6043L130.037 42.5946ZM127.551 38.0307C127.517 37.788 127.445 37.5209 127.323 37.2199C127.202 36.9238 127.017 36.647 126.77 36.3994C126.522 36.1518 126.197 35.9382 125.804 35.7585C125.41 35.5837 124.93 35.4915 124.366 35.4915C123.594 35.4915 122.929 35.7197 122.376 36.1809C121.822 36.6422 121.444 37.2539 121.254 38.0307H127.556H127.551Z" fill="#5F6368"/>
<path d="M132.003 33.5836H134.537V35.3703H134.683C134.829 35.0644 135.023 34.7779 135.275 34.5109C135.528 34.2439 135.804 34.0205 136.12 33.8312C136.436 33.6467 136.766 33.4913 137.111 33.3699C137.455 33.2486 137.79 33.1903 138.111 33.1903C138.499 33.1903 138.829 33.2292 139.101 33.302C139.373 33.3748 139.625 33.4768 139.849 33.603L139.077 36.0403C138.897 35.9577 138.703 35.8995 138.485 35.8606C138.266 35.8218 138.004 35.8024 137.698 35.8024C137.261 35.8024 136.863 35.8898 136.504 36.0694C136.139 36.249 135.824 36.4918 135.547 36.7977C135.275 37.1036 135.062 37.4677 134.906 37.8901C134.751 38.3125 134.678 38.7543 134.678 39.2253V45.4156H131.998V33.5787L132.003 33.5836Z" fill="#5F6368"/>
<path d="M74.5038 12.0753C74.5038 13.9008 73.9649 15.3525 72.8822 16.4352C71.6684 17.7218 70.0662 18.3676 68.0853 18.3676C66.1044 18.3676 64.5848 17.7121 63.269 16.3964C61.9582 15.0855 61.2979 13.4687 61.2979 11.5461C61.2979 9.62345 61.9533 8.00669 63.269 6.6958C64.5799 5.38491 66.187 4.72461 68.0853 4.72461C69.0467 4.72461 69.9497 4.89454 70.8042 5.2344C71.6539 5.57426 72.353 6.05492 72.9016 6.67638L71.6976 7.88045C71.2946 7.39494 70.7751 7.01624 70.1391 6.73949C69.503 6.46761 68.8185 6.32681 68.0853 6.32681C66.6628 6.32681 65.4587 6.81718 64.4731 7.80277C63.5021 8.79807 63.0166 10.0458 63.0166 11.5412C63.0166 13.0366 63.5021 14.2844 64.4731 15.2797C65.4587 16.2653 66.6628 16.7557 68.0853 16.7557C69.3865 16.7557 70.4692 16.3915 71.3334 15.6633C72.1977 14.935 72.6929 13.93 72.8288 12.6531H68.0853V11.0848H74.4116C74.4699 11.4247 74.5038 11.7549 74.5038 12.0704V12.0753Z" fill="#5F6368"/>
<path d="M75.6543 13.6046C75.6543 12.2306 76.0864 11.0945 76.9506 10.1963C77.8245 9.29809 78.9267 8.84656 80.2521 8.84656C81.5776 8.84656 82.67 9.29809 83.5342 10.1963C84.4081 11.0945 84.8451 12.2306 84.8451 13.6046C84.8451 14.9786 84.4081 16.1293 83.5342 17.0129C82.67 17.9111 81.5776 18.3626 80.2521 18.3626C78.9267 18.3626 77.8245 17.9111 76.9506 17.0129C76.0864 16.1147 75.6543 14.9786 75.6543 13.6046ZM77.3342 13.6046C77.3342 14.5659 77.6158 15.3427 78.1741 15.9399C78.7325 16.5371 79.4267 16.8333 80.2521 16.8333C81.0775 16.8333 81.7718 16.5371 82.3301 15.9399C82.8885 15.3427 83.1701 14.5659 83.1701 13.6046C83.1701 12.6433 82.8885 11.8859 82.3301 11.2887C81.7572 10.6818 81.0678 10.3759 80.2521 10.3759C79.4365 10.3759 78.747 10.6818 78.1741 11.2887C77.6158 11.8859 77.3342 12.6578 77.3342 13.6046Z" fill="#5F6368"/>
<path d="M85.8643 13.6046C85.8643 12.2306 86.2964 11.0945 87.1606 10.1963C88.0345 9.29809 89.1366 8.84656 90.4621 8.84656C91.7875 8.84656 92.8799 9.29809 93.7442 10.1963C94.6181 11.0945 95.0551 12.2306 95.0551 13.6046C95.0551 14.9786 94.6181 16.1293 93.7442 17.0129C92.8799 17.9111 91.7875 18.3626 90.4621 18.3626C89.1366 18.3626 88.0345 17.9111 87.1606 17.0129C86.2964 16.1147 85.8643 14.9786 85.8643 13.6046ZM87.5441 13.6046C87.5441 14.5659 87.8257 15.3427 88.3841 15.9399C88.9424 16.5371 89.6367 16.8333 90.4621 16.8333C91.2875 16.8333 91.9817 16.5371 92.5401 15.9399C93.0984 15.3427 93.38 14.5659 93.38 13.6046C93.38 12.6433 93.0984 11.8859 92.5401 11.2887C91.9672 10.6818 91.2777 10.3759 90.4621 10.3759C89.6464 10.3759 88.957 10.6818 88.3841 11.2887C87.8257 11.8859 87.5441 12.6578 87.5441 13.6046Z" fill="#5F6368"/>
<path d="M100.546 22.305C100.046 22.305 99.5797 22.2419 99.1427 22.1157C98.7057 21.9894 98.3076 21.8098 97.9483 21.5767C97.589 21.3437 97.2832 21.0718 97.0259 20.7562C96.7685 20.4406 96.5743 20.0862 96.4432 19.6978L98.0309 19.0424C98.2154 19.5667 98.531 19.9843 98.9776 20.2998C99.4292 20.6154 99.9487 20.7756 100.546 20.7756C101.459 20.7756 102.167 20.5038 102.677 19.9551C103.187 19.4065 103.444 18.654 103.444 17.6926V16.8333H103.372C103.056 17.3091 102.629 17.6829 102.085 17.9548C101.546 18.2267 100.959 18.3675 100.327 18.3675C99.1621 18.3675 98.1571 17.9111 97.3172 16.9983C96.4918 16.0613 96.0791 14.9301 96.0791 13.6046C96.0791 12.2791 96.4918 11.1528 97.3172 10.2303C98.1571 9.3078 99.1573 8.84656 100.327 8.84656C100.959 8.84656 101.546 8.9825 102.085 9.25924C102.624 9.53113 103.056 9.90498 103.372 10.3808H103.444V9.14272H105.051V17.6975C105.051 19.1298 104.644 20.2561 103.828 21.0718C103.003 21.8972 101.905 22.3099 100.546 22.3099V22.305ZM100.599 16.8333C101.425 16.8333 102.099 16.5371 102.624 15.9399C103.172 15.3427 103.444 14.5659 103.444 13.6046C103.444 12.6433 103.172 11.8956 102.624 11.2887C102.09 10.6818 101.415 10.3759 100.599 10.3759C99.7836 10.3759 99.1233 10.6818 98.5746 11.2887C98.026 11.8956 97.7541 12.6676 97.7541 13.6046C97.7541 14.5416 98.026 15.3233 98.5746 15.9205C99.1233 16.5274 99.7981 16.8333 100.599 16.8333Z" fill="#5F6368"/>
<path d="M108.772 5.01587V18.0714H107.092V5.01587H108.772Z" fill="#5F6368"/>
<path d="M114.734 18.3675C113.423 18.3675 112.34 17.916 111.486 17.0178C110.636 16.1196 110.209 14.9835 110.209 13.6095C110.209 12.2355 110.622 11.1139 111.447 10.2109C112.272 9.30297 113.331 8.85144 114.622 8.85144C115.914 8.85144 117.001 9.27869 117.788 10.1381C118.57 10.9974 118.963 12.1966 118.963 13.7406L118.943 13.9251H111.923C111.947 14.799 112.238 15.5078 112.797 16.0419C113.355 16.576 114.025 16.843 114.802 16.843C115.87 16.843 116.71 16.3089 117.317 15.236L118.812 15.9642C118.409 16.7168 117.856 17.3091 117.142 17.7315C116.433 18.1588 115.627 18.3675 114.724 18.3675H114.734ZM112.054 12.5316H117.176C117.128 11.9102 116.875 11.4004 116.419 10.9926C115.962 10.5847 115.351 10.3808 114.588 10.3808C113.957 10.3808 113.413 10.575 112.957 10.9634C112.501 11.3518 112.2 11.8762 112.054 12.5316Z" fill="#5F6368"/>
<path d="M130.58 18.3676C128.648 18.3676 127.031 17.717 125.73 16.4158C124.444 15.1146 123.798 13.493 123.798 11.5461C123.798 9.59917 124.444 7.98241 125.73 6.6958C127.017 5.38491 128.634 4.72461 130.58 4.72461C132.527 4.72461 134.149 5.43346 135.377 6.85602L134.173 8.02125C133.236 6.89 132.042 6.32681 130.58 6.32681C129.119 6.32681 127.925 6.81232 126.954 7.78335C125.992 8.74467 125.512 9.9973 125.512 11.5412C125.512 13.0852 125.992 14.3378 126.954 15.2991C127.925 16.2701 129.134 16.7557 130.58 16.7557C132.1 16.7557 133.421 16.1196 134.537 14.8427L135.761 16.0274C135.139 16.7702 134.382 17.3431 133.484 17.751C132.586 18.1588 131.619 18.3627 130.585 18.3627L130.58 18.3676Z" fill="#5F6368"/>
<path d="M138.932 5.01587V18.0714H137.252V5.01587H138.932Z" fill="#5F6368"/>
<path d="M140.374 13.6046C140.374 12.2306 140.806 11.0945 141.67 10.1963C142.544 9.29809 143.646 8.84656 144.972 8.84656C146.297 8.84656 147.39 9.29809 148.254 10.1963C149.128 11.0945 149.565 12.2306 149.565 13.6046C149.565 14.9786 149.128 16.1293 148.254 17.0129C147.39 17.9111 146.297 18.3626 144.972 18.3626C143.646 18.3626 142.544 17.9111 141.67 17.0129C140.806 16.1147 140.374 14.9786 140.374 13.6046ZM142.054 13.6046C142.054 14.5659 142.336 15.3427 142.894 15.9399C143.452 16.5371 144.146 16.8333 144.972 16.8333C145.797 16.8333 146.492 16.5371 147.05 15.9399C147.608 15.3427 147.89 14.5659 147.89 13.6046C147.89 12.6433 147.608 11.8859 147.05 11.2887C146.477 10.6818 145.788 10.3759 144.972 10.3759C144.156 10.3759 143.467 10.6818 142.894 11.2887C142.336 11.8859 142.054 12.6578 142.054 13.6046Z" fill="#5F6368"/>
<path d="M158.843 18.0762H157.236V16.8381H157.163C156.905 17.2751 156.517 17.6392 155.988 17.9305C155.459 18.2218 154.91 18.3675 154.337 18.3675C153.245 18.3675 152.4 18.0567 151.812 17.4304C151.225 16.8041 150.929 15.9156 150.929 14.7601V9.1427H152.609V14.6484C152.647 16.105 153.381 16.8381 154.813 16.8381C155.483 16.8381 156.041 16.5662 156.493 16.0273C156.944 15.4884 157.168 14.8378 157.168 14.0852V9.1427H158.847V18.0762H158.843Z" fill="#5F6368"/>
<path d="M164.531 18.3677C163.366 18.3677 162.361 17.9064 161.521 16.9839C160.696 16.0469 160.283 14.9254 160.283 13.6096C160.283 12.2939 160.696 11.1723 161.521 10.2353C162.361 9.31282 163.361 8.85158 164.531 8.85158C165.187 8.85158 165.784 8.99238 166.328 9.26913C166.867 9.55072 167.284 9.91972 167.576 10.381H167.648L167.576 9.14289V5.02087H169.256V18.0764H167.648V16.8383H167.576C167.284 17.2995 166.867 17.6734 166.328 17.9501C165.789 18.2269 165.187 18.3677 164.531 18.3677ZM164.803 16.8334C165.629 16.8334 166.304 16.5373 166.828 15.9401C167.377 15.3429 167.648 14.5661 167.648 13.6048C167.648 12.6435 167.377 11.8958 166.828 11.2889C166.294 10.682 165.619 10.3761 164.803 10.3761C163.988 10.3761 163.327 10.682 162.779 11.2889C162.23 11.8958 161.958 12.6677 161.958 13.6048C161.958 14.5418 162.23 15.3235 162.779 15.9207C163.327 16.5276 164.002 16.8334 164.803 16.8334Z" fill="#5F6368"/>
<path d="M28.6561 18.9259L30.1224 18.955L34.0987 14.9787L34.2929 13.2939C31.1322 10.4828 26.9714 8.76892 22.4172 8.76892C14.1732 8.76892 7.21578 14.3766 5.15234 21.9798C5.58931 21.6788 6.51178 21.9021 6.51178 21.9021L14.4645 20.5961C14.4645 20.5961 14.8772 19.9212 15.0811 19.96C16.9018 17.9694 19.5139 16.7168 22.4172 16.7168C24.7768 16.7168 26.9471 17.547 28.6561 18.9259Z" fill="#EA4335"/>
<path d="M39.682 21.9846C38.7596 18.5763 36.8515 15.571 34.288 13.2842L28.6512 18.921C30.9088 20.7465 32.3556 23.5334 32.3556 26.6504V27.6457C35.0939 27.6457 37.3224 29.8742 37.3224 32.6125C37.3224 35.3508 35.0939 37.5793 32.3508 37.5793H22.4123L21.417 38.5795V44.5416L22.4123 45.5321H32.3508C39.4733 45.5321 45.2703 39.735 45.2703 32.6125C45.2703 28.2089 43.0515 24.3151 39.6772 21.9797L39.682 21.9846Z" fill="#4285F4"/>
<path d="M12.4779 45.5321H22.4067V37.5794H12.4779C11.7497 37.5794 11.0554 37.4191 10.4291 37.1327L8.9968 37.5697L5.01559 41.5509L4.66602 42.8957C6.83627 44.5465 9.54058 45.5321 12.4731 45.5321H12.4779Z" fill="#34A853"/>
<path d="M12.4791 19.693C5.35661 19.693 -0.44043 25.49 -0.44043 32.6125C-0.44043 36.8074 1.5696 40.541 4.67689 42.9006L10.4399 37.1375C8.71637 36.3558 7.5123 34.6226 7.5123 32.6125C7.5123 29.8742 9.74081 27.6457 12.4791 27.6457C14.494 27.6457 16.2273 28.8498 17.0041 30.5734L22.7672 24.8103C20.4076 21.703 16.674 19.693 12.4791 19.693Z" fill="#FBBC05"/>
</g>
<defs>
<clipPath id="clip0_7110_2242">
<rect width="169.714" height="54" fill="white" transform="translate(0.107422)"/>
</clipPath>
</defs>
</svg>
