<svg xmlns="http://www.w3.org/2000/svg" width="151" height="34" viewBox="0 0 151 34" fill="none">
  <g clip-path="url(#clip0_7110_2271)">
    <path d="M16.953 7.88822C23.9558 17.4501 16.953 26.2401 16.953 26.2401V7.88822ZM16.453 26.4184C14.9315 26.765 13.3573 26.8154 11.8166 26.5669C9.01583 26.1809 7.47266 22.9289 7.47266 22.9289L14.1187 21.1919V5.03749L16.453 7.29432V26.4184ZM6.31618 16.2625C6.28642 13.2037 6.5442 9.35818 6.5442 9.35818L8.78338 8.54154V21.9638L7.37839 22.4092C6.74719 20.4178 6.38989 18.35 6.31618 16.2625ZM25.2512 26.3291L23.8513 28.0516C23.8513 28.0516 22.2425 25.0524 18.3689 26.0619C18.3689 26.0619 25.6095 21.4591 24.8946 13.5898C24.4371 8.74016 21.9204 4.31865 17.9816 1.44434C17.5943 1.20677 12.2403 7.11618 6.69825 8.63044C6.69825 8.63044 6.94943 3.04764 11.1176 2.54294V1.83039C11.1176 1.83039 0.51164 3.31508 0.530298 15.8468C0.530298 15.8468 0.94175 26.7609 11.7738 27.2203C15.9752 27.3984 15.9802 27.3984 15.9802 27.3984C15.9802 27.3984 19.5284 27.2203 20.2436 32.1796L20.7811 32.625L25.5198 26.5968L25.2512 26.3291Z" fill="black"/>
    <path fill-rule="evenodd" clip-rule="evenodd" d="M146.762 16.5678V16.3983C146.738 14.6562 146.203 13.4463 144.671 13.4463C143.383 13.4463 142.629 14.2688 142.459 16.5678H146.762ZM150.53 17.4874C150.53 17.9481 150.506 18.4085 150.457 18.8666H142.459C142.726 21.1651 143.821 21.7942 145.4 21.7942C146.526 21.7557 147.608 21.3569 148.488 20.6571L150.068 22.7862C148.649 23.9444 146.871 24.5774 145.036 24.5774C140.733 24.5774 138.545 21.819 138.545 17.8018C138.545 13.9546 140.66 10.906 144.574 10.906C148.269 10.906 150.53 13.3252 150.53 17.4874ZM130.572 21.7704C132.006 21.7704 132.881 20.633 132.881 17.7536C132.881 14.5596 132.104 13.7126 130.766 13.7126C129.916 13.7126 129.162 14.2693 128.603 15.2129V20.6328C129.01 21.3333 129.759 21.7665 130.572 21.7704ZM131.982 10.9058C135.385 10.9058 136.868 13.5433 136.868 17.7053C136.868 21.6735 134.923 24.5774 131.739 24.5774C130.547 24.6175 129.399 24.1301 128.603 23.2464V29.1261L124.762 29.5374V11.3172H128.141L128.335 12.7448C129.202 11.6062 130.547 10.928 131.982 10.9058ZM119.292 24.1899C118.272 27.4322 116.084 29.3196 112.024 29.5373L111.611 26.8515C114.139 26.537 115.063 25.811 115.768 24.1655H114.455L110.517 11.3172H114.601L116.91 21.7216L119.438 11.3172H123.401L119.292 24.1899ZM110.882 23.5608C109.839 24.2306 108.622 24.5838 107.381 24.5774C104.537 24.5529 103.151 22.9559 103.151 19.9314V13.9786H101.328V11.3172H103.151V8.53427L106.992 8.09865V11.3172H109.958L109.545 13.9788H106.992V19.8827C106.992 21.1165 107.405 21.5521 108.208 21.5521C108.702 21.5437 109.184 21.3924 109.593 21.1166L110.882 23.5608ZM96.3205 10.9056C98.5567 10.9056 99.8938 12.3332 99.8938 14.7773V24.1658H96.0527V15.4305C96.0527 14.0754 95.5912 13.7124 94.8374 13.7124C93.9868 13.7124 93.2815 14.3175 92.6012 15.3822V24.1655H88.7601V11.3172H92.1147L92.3825 12.8418C93.3161 11.6158 94.775 10.8983 96.3205 10.9056ZM85.7457 24.1655H81.9046V11.3172H85.7457V24.1655ZM83.8008 4.65141C84.9999 4.69049 85.9439 5.68291 85.9177 6.87675C85.8915 8.0706 84.9049 9.02105 83.7053 9.00801C82.5057 8.99497 81.5401 8.02329 81.5402 6.82916C81.5357 6.23752 81.7749 5.6699 82.202 5.25845C82.6292 4.847 83.2069 4.62762 83.8008 4.65141ZM78.8904 24.1655H75.56L75.3898 22.5447C74.5361 23.8611 73.0494 24.6333 71.4763 24.5774C69.0696 24.5774 67.8782 23.0286 67.8782 20.5362V11.3172H71.7193V20.0522C71.7193 21.3588 72.1568 21.746 72.9587 21.746C73.7606 21.746 74.4904 21.2137 75.0494 20.2456V11.3172H78.8904V24.1655ZM54.7029 15.7692C54.7029 20.0278 55.9182 21.6733 58.1058 21.6733C60.3911 21.6733 61.5337 20.0278 61.5337 15.7692C61.5337 11.5347 60.3668 9.88932 58.1058 9.88932C55.8697 9.88932 54.7029 11.5347 54.7029 15.7692ZM61.7524 23.0767C63.5389 23.0098 65.2954 23.5471 66.7358 24.601L64.3291 27.7226C62.7733 25.9803 61.0231 24.5045 57.8628 24.5045C53.3657 24.5045 50.5215 21.3588 50.5215 15.7692C50.5215 10.3007 53.3657 6.98563 58.1058 6.98563C62.8708 6.98563 65.7147 10.1797 65.7147 15.7692C65.7147 19.8344 63.8186 21.9394 61.7524 23.0767Z" fill="black"/>
    <path d="M38.0205 1.375V32.5003" stroke="black" stroke-width="2" stroke-linecap="square"/>
  </g>
  <defs>
    <clipPath id="clip0_7110_2271">
      <rect width="150" height="32.0312" fill="white" transform="translate(0.530273 0.984375)"/>
    </clipPath>
  </defs>
</svg>