<svg xmlns="http://www.w3.org/2000/svg" width="83" height="30" viewBox="0 0 83 30" fill="none">
  <g clip-path="url(#clip0_7110_2277)">
    <mask id="mask0_7110_2277" style="mask-type:luminance" maskUnits="userSpaceOnUse" x="0" y="0" width="83" height="30">
      <path d="M0.530273 0H82.8832V30H0.530273V0Z" fill="white"/>
    </mask>
    <g mask="url(#mask0_7110_2277)">
      <path d="M9.07939 10.2165C6.89557 8.53147 4.68439 7.22735 4.68439 5.32618C4.68439 4.18441 5.66969 3.01676 7.02792 3.01676C9.47792 3.01676 10.9162 5.62529 12.3282 8.88588H13.2067V1.38588H7.08027C2.02263 1.38559 0.530273 4.51088 0.530273 6.95529C0.530273 10.1624 3.21969 12.0635 6.14939 14.2915C8.20116 15.8397 9.93233 17.2806 9.93233 18.9379C9.93233 20.7318 8.73351 21.7644 7.21586 21.7644C5.59145 21.7644 3.1941 19.59 1.51704 15.0803H0.637038V23.3956H7.64145C11.9567 23.3956 14.1135 19.9168 14.1932 17.1179C14.3003 13.8574 11.45 12.0376 9.07939 10.2165ZM28.2294 20.8135V12.0359C28.2294 8.23206 25.9117 7.22706 22.5559 7.22706H16.5897L16.6167 13.4215H17.602C18.6412 10.7853 20.1317 8.85677 21.7306 8.85677C23.1159 8.85677 23.755 10.0794 23.755 11.3562V12.5515C21.5185 13.9097 15.5244 15.0515 15.5244 19.1824C15.5244 21.5732 17.1488 23.5571 19.5194 23.5571C21.5709 23.5571 23.0088 22.1991 23.7276 20.5956C23.8615 21.9276 24.6859 23.3944 26.6306 23.3944H29.6929V22.1991C28.7076 22.1991 28.2279 21.5194 28.2279 20.8138L28.2294 20.8135ZM23.675 13.9665V19.4553C23.2494 20.0797 22.5562 20.7871 21.7573 20.7871C20.6382 20.7871 19.9194 19.9171 19.9194 18.1785C19.9194 16.1947 22.5562 14.9179 23.6753 13.9668L23.675 13.9665ZM68.0744 8.93971C68.6865 8.93971 69.3259 9.02118 69.6462 9.78206L75.0532 23.4218C74.0138 25.84 72.23 26.2206 69.0338 25.2156V29.9985C70.6582 29.9985 72.1503 30.0262 72.5235 29.9171C74.6276 29.2926 75.9062 25.0806 76.4912 23.4509L81.0726 10.8162C81.5779 9.43088 82.005 8.42559 82.8835 8.42559V7.23029H77.9562V8.42559C79.6347 8.42559 80.1129 9.32176 79.2873 11.7403L77.2897 17.2565L74.7329 10.5447C74.1462 9.24059 74.4668 8.42559 75.6909 8.42559V7.23029H63.0132V1.79412H61.8414C61.4956 3.64147 59.5506 7.22912 56.3273 7.22912V8.42441H58.4047V19.5921C58.4047 21.4674 59.0167 23.64 62.5859 23.64H68.1256V17.445H67.22C66.82 18.8862 65.9144 21.7662 64.1306 21.7662C63.1456 21.7662 63.0115 20.6521 63.0115 19.7562V8.93971H68.0744ZM54.4638 20.8132V7.22735H48.392V8.42265C49.4312 8.42265 49.8841 9.07471 49.8841 9.83588V20.8132C49.8315 21.5468 49.3515 22.1988 48.392 22.1988V23.3941H56.0626V22.1988C55.3167 22.1988 54.5179 21.5191 54.4653 20.8135L54.4638 20.8132ZM36.9129 20.8132L36.94 11.5206C37.5791 10.6506 38.2453 9.89118 39.3629 9.89118C40.4806 9.89118 41.0415 10.7871 41.0415 11.9012V20.8132C41.0415 21.5191 40.5617 22.1988 39.5765 22.1988V23.3941H47.1406V22.1988C46.1823 22.1988 45.7026 21.4376 45.7026 20.8135V11.5206C45.7026 8.61294 44.3444 6.90206 41.6535 6.90206C39.417 6.90206 38.0047 8.42412 36.94 10.0262V7.22735H30.6815V8.42265C31.8003 8.42265 32.2532 9.18353 32.2532 9.83588V20.8132C32.2532 21.5191 31.7732 22.1988 30.7882 22.1988V23.3941H38.352V22.1988C37.3941 22.1988 36.9144 21.4376 36.9144 20.8135L36.9129 20.8132ZM51.8017 5.54265C53.5059 5.54265 54.5723 4.31941 54.5723 2.74353C54.5723 1.16765 53.507 0 51.8015 0C50.0959 0 49.0053 1.16765 49.0053 2.74353C49.0053 4.31941 50.15 5.54235 51.8015 5.54235L51.8017 5.54265Z" fill="black"/>
    </g>
  </g>
  <defs>
    <clipPath id="clip0_7110_2277">
      <rect width="82.3529" height="30" fill="white" transform="translate(0.530273)"/>
    </clipPath>
  </defs>
</svg>