<svg width="100" height="42" viewBox="0 0 100 42" fill="none" xmlns="http://www.w3.org/2000/svg">
<path d="M25.0922 11.2649H23.079C22.7082 11.2649 22.3903 11.5828 22.3903 11.9536V12.3245L22.2844 12.2185C21.2248 11.3708 19.9003 11 18.364 11C16.1389 11.053 14.3376 11.7947 12.9602 13.2781C11.6357 14.7615 11 16.5627 11 18.6818C11 20.801 11.6357 22.6552 12.9602 24.0856C14.3376 25.569 16.0859 26.3107 18.258 26.3107C19.8474 26.3107 21.2248 25.9399 22.2844 25.0922L22.3903 24.9862V25.3571C22.3903 25.7279 22.7082 26.0458 23.079 26.0458H25.0922C25.4631 26.0458 25.7809 25.7279 25.7809 25.3571V11.9536C25.8339 11.5828 25.4631 11.2649 25.0922 11.2649ZM21.4367 21.8605C20.748 22.7082 19.7414 23.132 18.5229 23.132C17.3044 23.132 16.2978 22.7082 15.5561 21.8605C14.8144 21.0129 14.4436 20.0063 14.4436 18.6818C14.4436 17.4104 14.8144 16.3508 15.5561 15.5031C16.3508 14.6025 17.3044 14.2317 18.5229 14.2317C19.7944 14.2317 20.695 14.6025 21.4897 15.5031C22.1784 16.3508 22.5493 17.3574 22.5493 18.6818C22.4963 20.0063 22.1784 21.0129 21.4367 21.8605Z" fill="#475569"/>
<path d="M43.6346 14.2846C44.4292 14.2846 45.065 14.5495 45.5418 15.0793C46.0716 15.7151 46.2835 16.4568 46.2835 17.3574V25.4631C46.2835 25.8339 46.6014 26.1518 46.9722 26.1518H48.9854C49.3562 26.1518 49.6741 25.8339 49.6741 25.4631V17.3044C49.6741 15.5031 49.0913 14.0198 47.9788 12.8013C47.449 12.2715 46.8133 11.8477 46.1246 11.5298C45.4358 11.1589 44.6941 11.053 43.9524 11.053C43.2108 11.053 42.522 11.1589 41.9393 11.4238C40.8797 11.7947 40.0321 12.3774 39.3963 13.1721L39.3433 13.2251L39.2904 13.1721C38.9195 12.6953 38.3897 12.2715 37.86 11.9006C37.0123 11.3708 36.0057 11.053 34.9991 11.053C33.6747 11.053 32.5621 11.4238 31.7145 12.0596L31.6615 12.1655V11.9536C31.6615 11.5828 31.3436 11.2649 30.9728 11.2649H28.9596C28.5888 11.2649 28.2709 11.5828 28.2709 11.9536V25.4631C28.2709 25.8339 28.5888 26.1518 28.9596 26.1518H30.9728C31.3436 26.1518 31.6615 25.8339 31.6615 25.4631V17.4104C31.6615 16.4038 31.9264 15.6621 32.5621 15.1323C33.1449 14.6025 33.7806 14.3376 34.6283 14.3376C35.423 14.3376 36.0587 14.6025 36.5355 15.1323C37.0653 15.768 37.2772 16.5097 37.2772 17.4104V25.516C37.2772 25.8869 37.5951 26.2047 37.9659 26.2047H39.9791C40.3499 26.2047 40.6678 25.8869 40.6678 25.516V17.4633C40.6678 16.4568 40.9327 15.7151 41.5684 15.1853C42.0982 14.5495 42.7339 14.2846 43.6346 14.2846Z" fill="#475569"/>
<path d="M65.1967 11.2649H63.1835C62.8127 11.2649 62.4948 11.5828 62.4948 11.9536V12.3245L62.3889 12.2715C61.3293 11.4238 60.0048 11.053 58.4685 11.053C56.2434 11.053 54.4421 11.7947 53.0647 13.2781C51.7402 14.7085 51.1045 16.5097 51.1045 18.6818C51.1045 20.801 51.7402 22.6552 53.0647 24.0856C54.4421 25.569 56.1904 26.3107 58.3625 26.3107C59.9519 26.3107 61.3293 25.9399 62.3889 25.0922L62.4948 24.9862V25.3571C62.4948 25.7279 62.8127 26.0458 63.1835 26.0458H65.1967C65.5676 26.0458 65.8854 25.7279 65.8854 25.3571V11.9536C65.8854 11.5828 65.5676 11.2649 65.1967 11.2649ZM61.5412 21.8605C60.8525 22.7082 59.8459 23.132 58.5744 23.132C57.3559 23.132 56.3493 22.7612 55.6076 21.8605C54.8659 21.0129 54.4951 20.0063 54.4951 18.6818C54.4951 17.3574 54.8659 16.3508 55.6076 15.5031C56.3493 14.6025 57.3559 14.2317 58.5744 14.2317C59.8459 14.2317 60.7465 14.6025 61.5412 15.5031C62.2299 16.3508 62.6008 17.3574 62.6008 18.6818C62.6008 20.0063 62.2299 21.0129 61.5412 21.8605Z" fill="#475569"/>
<path d="M81.9378 11.2649H79.9247C79.5538 11.2649 79.2359 11.5828 79.2359 11.9536V12.3245L79.13 12.2185C78.0704 11.4238 76.746 11 75.2096 11C72.9845 11 71.1832 11.7417 69.8058 13.1721C68.4814 14.6025 67.8456 16.4038 67.8456 18.4699C67.8456 20.5891 68.4814 22.3903 69.8058 23.7677C71.1832 25.1982 72.9315 25.9399 75.0507 25.9399C76.64 25.9399 78.0174 25.516 79.077 24.6684L79.183 24.5624V24.8273C79.183 25.9928 78.8651 26.9464 78.3353 27.5292C77.7525 28.112 76.7989 28.4298 75.4215 28.4298C72.8256 28.4298 72.2958 27.1584 72.1368 26.7345C72.0309 26.4696 71.766 26.3107 71.5011 26.3107H69.276C68.9052 26.3107 68.5873 26.6286 68.5873 26.9994C68.5873 27.1054 68.5873 27.1054 68.6403 27.2113C69.0641 28.5358 69.8588 29.6483 71.0773 30.443C72.2428 31.2377 73.8322 31.6085 75.8453 31.6085C77.8585 31.6085 79.5538 31.0258 80.7723 29.9132C81.9908 28.8007 82.6795 27.1054 82.6795 24.9862V11.9536C82.6265 11.5828 82.3087 11.2649 81.9378 11.2649ZM78.2823 21.7016C77.9115 22.0724 77.4876 22.3903 77.0108 22.6022C76.534 22.8141 75.9513 22.9731 75.3155 22.9731C74.0441 22.9731 73.0905 22.6022 72.3488 21.7546C71.6071 20.9069 71.2362 19.9003 71.2362 18.6289C71.2362 17.3574 71.6071 16.3508 72.3488 15.5561C73.0905 14.7085 74.0441 14.3376 75.3155 14.3376C76.534 14.3376 77.4877 14.7085 78.2823 15.5561C78.971 16.3508 79.3419 17.4104 79.3419 18.6818C79.3419 19.9003 78.971 20.9069 78.2823 21.7016Z" fill="#475569"/>
<path d="M88.1892 11.1589H86.1761C85.8052 11.1589 85.4874 11.4768 85.4874 11.8477V25.0922C85.4874 25.4631 85.8052 25.7809 86.1761 25.7809H88.1892C88.5601 25.7809 88.878 25.4631 88.878 25.0922V11.8477C88.825 11.4238 88.5071 11.1589 88.1892 11.1589Z" fill="#475569"/>
</svg>