<svg width="119" height="33" viewBox="0 0 119 33" fill="none" xmlns="http://www.w3.org/2000/svg">
<g clip-path="url(#clip0_11326_5718)">
<path d="M21.5788 1.29256H18.5236C17.9608 1.29256 17.4784 1.78456 17.4784 2.35855V2.93255L17.3176 2.76855C15.7097 1.45656 13.6997 0.882568 11.3681 0.882568C7.99141 0.964568 5.25786 2.11256 3.16749 4.40853C1.15753 6.70451 0.192749 9.49249 0.192749 12.7725C0.192749 16.0524 1.15753 18.9224 3.16749 21.1364C5.25786 23.4324 7.91101 24.5803 11.2073 24.5803C13.6193 24.5803 15.7097 24.0063 17.3176 22.6944L17.4784 22.5304V23.1044C17.4784 23.6783 17.9608 24.1703 18.5236 24.1703H21.5788C22.1415 24.1703 22.6239 23.6783 22.6239 23.1044V2.35855C22.7043 1.78456 22.1415 1.29256 21.5788 1.29256ZM16.0313 17.6924C14.9861 19.0044 13.4585 19.6604 11.6093 19.6604C9.76017 19.6604 8.2326 19.0044 7.10702 17.6924C5.98144 16.3804 5.41865 14.8224 5.41865 12.7725C5.41865 10.8045 5.98144 9.16449 7.10702 7.8525C8.313 6.45851 9.76017 5.88452 11.6093 5.88452C13.5389 5.88452 14.9057 6.45851 16.1117 7.8525C17.1568 9.16449 17.7196 10.7225 17.7196 12.7725C17.6392 14.8224 17.1568 16.3804 16.0313 17.6924Z" fill="#000099"/>
<path d="M49.7183 5.96655C50.9243 5.96655 51.889 6.37655 52.6126 7.19654C53.4166 8.18053 53.7382 9.32852 53.7382 10.7225V23.2684C53.7382 23.8424 54.2206 24.3344 54.7834 24.3344H57.8385C58.4013 24.3344 58.8837 23.8424 58.8837 23.2684V10.6405C58.8837 7.85253 57.9993 5.55656 56.311 3.67057C55.507 2.85058 54.5422 2.19459 53.497 1.70259C52.4518 1.1286 51.3263 0.9646 50.2007 0.9646C49.0751 0.9646 48.0299 1.1286 47.1455 1.53859C45.5376 2.11259 44.2512 3.01458 43.2864 4.24457L43.206 4.32657L43.1256 4.24457C42.5628 3.50658 41.7588 2.85058 40.9548 2.27659C39.6685 1.45659 38.1409 0.9646 36.6133 0.9646C34.6034 0.9646 32.915 1.53859 31.6286 2.52258L31.5482 2.68658V2.35859C31.5482 1.78459 31.0658 1.2926 30.503 1.2926H27.4479C26.8851 1.2926 26.4027 1.78459 26.4027 2.35859V23.2684C26.4027 23.8424 26.8851 24.3344 27.4479 24.3344H30.503C31.0658 24.3344 31.5482 23.8424 31.5482 23.2684V10.8045C31.5482 9.24652 31.9502 8.09853 32.915 7.27854C33.7994 6.45855 34.7642 6.04855 36.0505 6.04855C37.2565 6.04855 38.2213 6.45855 38.9449 7.27854C39.7489 8.26253 40.0705 9.41052 40.0705 10.8045V23.3504C40.0705 23.9244 40.5529 24.4164 41.1156 24.4164H44.1708C44.7336 24.4164 45.216 23.9244 45.216 23.3504V10.8865C45.216 9.32852 45.618 8.18053 46.5827 7.36054C47.3867 6.37655 48.3515 5.96655 49.7183 5.96655Z" fill="#000099"/>
<path d="M82.4405 1.2926H79.3853C78.8225 1.2926 78.3401 1.78459 78.3401 2.35859V2.93258L78.1793 2.85058C76.5714 1.53859 74.5614 0.9646 72.2298 0.9646C68.8531 0.9646 66.1196 2.11259 64.0292 4.40857C62.0192 6.62255 61.0544 9.41052 61.0544 12.7725C61.0544 16.0525 62.0192 18.9224 64.0292 21.1364C66.1196 23.4324 68.7727 24.5804 72.069 24.5804C74.481 24.5804 76.5714 24.0064 78.1793 22.6944L78.3401 22.5304V23.1044C78.3401 23.6784 78.8225 24.1704 79.3853 24.1704H82.4405C83.0032 24.1704 83.4856 23.6784 83.4856 23.1044V2.35859C83.4856 1.78459 83.0032 1.2926 82.4405 1.2926ZM76.893 17.6924C75.8478 19.0044 74.3202 19.6604 72.3906 19.6604C70.5415 19.6604 69.0139 19.0864 67.8883 17.6924C66.7627 16.3805 66.1999 14.8225 66.1999 12.7725C66.1999 10.7225 66.7627 9.16452 67.8883 7.85253C69.0139 6.45855 70.5415 5.88455 72.3906 5.88455C74.3202 5.88455 75.687 6.45855 76.893 7.85253C77.9381 9.16452 78.5009 10.7225 78.5009 12.7725C78.5009 14.8225 77.9381 16.3805 76.893 17.6924Z" fill="#000099"/>
<path d="M107.847 1.29256H104.791C104.229 1.29256 103.746 1.78456 103.746 2.35855V2.93255L103.585 2.76855C101.977 1.53856 99.9675 0.882568 97.636 0.882568C94.2592 0.882568 91.5257 2.03056 89.4353 4.24454C87.4254 6.45852 86.4606 9.24649 86.4606 12.4445C86.4606 15.7244 87.4254 18.5124 89.4353 20.6444C91.5257 22.8584 94.1788 24.0063 97.3948 24.0063C99.8067 24.0063 101.897 23.3504 103.505 22.0384L103.666 21.8744V22.2844C103.666 24.0883 103.183 25.5643 102.379 26.4663C101.495 27.3683 100.048 27.8603 97.9576 27.8603C94.018 27.8603 93.214 25.8923 92.9728 25.2363C92.8121 24.8263 92.4101 24.5803 92.0081 24.5803H88.6313C88.0685 24.5803 87.5861 25.0723 87.5861 25.6463C87.5861 25.8103 87.5862 25.8103 87.6665 25.9743C88.3097 28.0243 89.5157 29.7463 91.3649 30.9763C93.1336 32.2063 95.5456 32.7803 98.6007 32.7803C101.656 32.7803 104.229 31.8783 106.078 30.1563C107.927 28.4343 108.972 25.8103 108.972 22.5304V2.35855C108.892 1.78456 108.409 1.29256 107.847 1.29256ZM102.299 17.4464C101.736 18.0204 101.093 18.5124 100.37 18.8404C99.6459 19.1684 98.7615 19.4144 97.7968 19.4144C95.8672 19.4144 94.42 18.8404 93.2944 17.5284C92.1689 16.2164 91.6061 14.6584 91.6061 12.6905C91.6061 10.7225 92.1689 9.16449 93.2944 7.9345C94.42 6.62251 95.8672 6.04852 97.7968 6.04852C99.6459 6.04852 101.093 6.62251 102.299 7.9345C103.344 9.16449 103.907 10.8045 103.907 12.7725C103.907 14.6584 103.344 16.2164 102.299 17.4464Z" fill="#000099"/>
<path d="M117.333 1.12866H114.278C113.715 1.12866 113.233 1.62066 113.233 2.19465V22.6945C113.233 23.2685 113.715 23.7604 114.278 23.7604H117.333C117.896 23.7604 118.378 23.2685 118.378 22.6945V2.19465C118.298 1.53866 117.816 1.12866 117.333 1.12866Z" fill="#000099"/>
</g>
<defs>
<clipPath id="clip0_11326_5718">
<rect width="118.186" height="31.9797" fill="white" transform="translate(0.192993 0.9646)"/>
</clipPath>
</defs>
</svg>