<svg width="95" height="32" viewBox="0 0 95 32" fill="none" xmlns="http://www.w3.org/2000/svg">
<mask id="mask0_11326_5643" style="mask-type:luminance" maskUnits="userSpaceOnUse" x="0" y="0" width="95" height="32">
<path d="M94.4468 0.067627H0.0305176V31.3947H94.4468V0.067627Z" fill="white"/>
</mask>
<g mask="url(#mask0_11326_5643)">
<path d="M18.945 1.05581L17.3286 10.2189H11.7178C6.48322 10.2189 1.49385 14.4583 0.569104 19.6908L0.177686 21.9179C-0.742754 27.1505 2.74979 31.39 7.98435 31.39H12.664C16.4792 31.39 20.1137 28.3028 20.7847 24.4892L25.0944 0.067627L18.945 1.05581ZM14.9638 23.6249C14.7574 24.803 13.6964 25.7619 12.5178 25.7619H9.67472C7.32197 25.7619 5.74774 23.8528 6.16063 21.4966L6.40582 20.1078C6.82301 17.756 9.06823 15.8427 11.421 15.8427H16.3365L14.9638 23.6249ZM62.1561 31.3895L65.8379 10.5108H71.6616L67.9798 31.3895H62.1561ZM62.7859 10.7515C62.494 12.4075 62.2009 14.0637 61.909 15.7197C59.1499 14.8627 56.3033 15.1356 55.4288 15.3099C54.4843 20.6711 53.5386 26.0335 52.5928 31.3947H46.7652C47.5565 26.9089 50.2602 11.5893 50.2602 11.5893C52.1556 10.8047 56.8102 9.21235 62.7859 10.7515ZM39.1732 10.2153H34.6398C30.2225 10.2153 26.0118 13.7926 25.2331 18.2081L24.317 23.3978C23.5384 27.8134 26.4848 31.3907 30.9022 31.3907H40.5454L41.5347 25.7798H32.4719C31.001 25.7798 30.016 24.5888 30.2784 23.114L30.3086 22.9377H44.9197L45.7541 18.2081C46.5325 13.7926 43.5863 10.2153 39.169 10.2153H39.1732ZM39.9088 17.761L39.8743 18.062H31.1861L31.2334 17.7954C31.4956 16.325 32.8378 15.0308 34.3129 15.0308H37.7066C39.1647 15.0308 40.1497 16.3035 39.9088 17.761ZM88.5566 10.5108H94.3847C92.3993 15.787 87.8496 24.7623 83.4424 31.3895H77.6144C75.5914 25.0821 74.2849 16.2938 74.0357 10.5108H79.8639C79.9691 12.3972 80.8139 19.3941 81.778 24.2822C84.4223 19.5268 87.3374 13.2876 88.5521 10.5108H88.5566Z" fill="#FF444F"/>
</g>
</svg>