<svg width="46" height="42" viewBox="0 0 46 42" fill="none" xmlns="http://www.w3.org/2000/svg">
<path d="M27.579 8.34288C27.579 5.42202 30.0412 3.05852 33.0679 3.05852C36.0946 3.05852 38.5639 5.42202 38.5639 8.34288C38.5639 11.2637 36.1017 13.6272 33.0679 13.6272C30.0342 13.6272 27.579 11.2637 27.579 8.34288ZM42.7688 29.1558H41.5412C39.0225 29.1558 37.7526 27.3708 37.7526 24.5558V19.2714H28.4467V26.757C28.4467 34.8916 33.8369 38.3064 39.0578 38.3064H42.7618V29.1558H42.7688ZM11.9869 31.6674C11.9869 28.9441 13.4897 27.7094 16.5517 27.7094H24.136V19.2502H11.9869V15.7579C11.9869 12.9923 14.3716 11.4895 17.2219 11.4895H24.129V3.03735H14.8443C7.55626 3.03735 2.66699 6.8895 2.66699 14.9818V38.2923H11.9869V31.6674Z" fill="#00B899"/>
</svg>