<svg xmlns="http://www.w3.org/2000/svg" fill="none" viewBox="0 0 240 102" height="102" width="240">
<rect fill="#0A0A3E" height="102" width="239.581"></rect>
<g clip-path="url(#clip0_4134_20673)">
<path fill="white" d="M66.777 81.52V56.7877H66.7036L56.2319 81.52H53.8653L43.4981 56.7877H43.425V81.52H40.6289V53.7432H44.9329L55.0694 77.391L65.2479 53.7432H69.5414V81.52H66.777Z"></path>
<path fill="white" d="M93.1961 81.5201V77.9125H93.1227C92.2309 79.2058 91.0296 80.2578 89.6273 80.9732C88.2251 81.6886 86.6662 82.045 85.091 82.0102C83.645 82.0451 82.2067 81.7909 80.8611 81.2626C79.5156 80.7343 78.2901 79.9427 77.2571 78.9346C76.2242 77.9265 75.4047 76.7224 74.8473 75.3935C74.2899 74.0645 74.0058 72.6378 74.0118 71.1977C74.0198 69.7654 74.3141 68.349 74.8775 67.031C75.4409 65.7131 76.2619 64.5199 77.2932 63.5213C78.3244 62.5226 79.5451 61.7385 80.8839 61.2143C82.2226 60.6902 83.6528 60.4366 85.091 60.4685C86.6763 60.4213 88.2471 60.7799 89.6534 61.5101C91.0597 62.2404 92.2542 63.3178 93.1227 64.6392H93.1961V61.0316H95.8349V81.5618L93.1961 81.5201ZM93.353 71.2706C93.3669 70.1734 93.1631 69.0844 92.7535 68.0657C92.3439 67.047 91.7366 66.1188 90.9662 65.3343C90.1958 64.5497 89.2775 63.9243 88.2639 63.4937C87.2503 63.0631 86.1614 62.8358 85.0595 62.8249C83.9433 62.8118 82.8357 63.0235 81.8037 63.4472C80.7717 63.871 79.8366 64.4981 79.0541 65.2909C78.2717 66.0836 77.6581 67.0256 77.2505 68.0604C76.8429 69.0951 76.6496 70.2013 76.6821 71.3124C76.6575 72.4198 76.8593 73.5206 77.2755 74.5478C77.6918 75.5751 78.3136 76.5073 79.1032 77.2876C79.8928 78.068 80.8336 78.6801 81.8684 79.0869C82.9032 79.4936 84.0102 79.6866 85.1222 79.6538C86.2158 79.6429 87.2968 79.4172 88.3028 78.9898C89.3087 78.5623 90.22 77.9414 90.9846 77.1627C91.7492 76.3839 92.352 75.4627 92.7584 74.4516C93.1648 73.4405 93.3669 72.3596 93.353 71.2706V71.2706Z"></path>
<path fill="white" d="M121.066 75.4731C118.971 79.6438 115.599 82.0107 110.814 82.0107C109.354 82.049 107.902 81.7923 106.545 81.2562C105.187 80.7201 103.953 79.9157 102.917 78.8916C101.881 77.8674 101.063 76.6447 100.515 75.2973C99.9659 73.9499 99.6972 72.5058 99.7246 71.0521C99.828 68.1986 101.044 65.4974 103.114 63.5216C105.184 61.5458 107.946 60.4508 110.814 60.4689C113.004 60.4255 115.156 61.0439 116.986 62.2426C118.816 63.4413 120.239 65.164 121.066 67.1837H118.165C117.472 65.8611 116.426 64.7546 115.142 63.9857C113.858 63.2168 112.386 62.8153 110.887 62.8254C109.775 62.806 108.67 63.0074 107.636 63.4179C106.603 63.8284 105.662 64.4398 104.869 65.2164C104.075 65.9929 103.445 66.919 103.015 67.9407C102.585 68.9623 102.363 70.059 102.363 71.1668C102.349 72.2834 102.56 73.3914 102.984 74.4252C103.408 75.459 104.036 76.3975 104.831 77.1851C105.626 77.9728 106.571 78.5935 107.612 79.0104C108.652 79.4274 109.766 79.6321 110.887 79.6125C112.371 79.6668 113.84 79.3046 115.127 78.5671C116.414 77.8296 117.467 76.7466 118.165 75.4418L121.066 75.4731Z"></path>
<path fill="white" d="M140.408 81.5199V70.0504C140.408 65.4313 137.612 62.8038 134 62.8038C129.999 62.8038 127.549 65.8485 127.549 69.8628V81.4991H124.91V53.7222H127.549V63.5963H127.622C128.333 62.5908 129.285 61.7779 130.391 61.2317C131.498 60.6854 132.724 60.423 133.958 60.4683C139.654 60.4683 143.036 64.3678 143.036 70.0713V81.5407L140.408 81.5199Z"></path>
<path fill="white" d="M148.023 81.5205V62.304C148.023 61.9556 148.163 61.6214 148.41 61.375C148.657 61.1286 148.993 60.9902 149.343 60.9902V60.9902C149.692 60.993 150.026 61.1323 150.273 61.3781C150.52 61.6238 150.66 61.9564 150.662 62.304V81.5205H148.023Z"></path>
<path fill="white" d="M171.05 81.52V70.0505C171.05 65.4315 168.265 62.804 164.642 62.804C160.652 62.804 158.201 65.8486 158.201 69.8629V81.4992H155.562V60.9688H158.201V63.5964H158.275C158.986 62.5909 159.937 61.7781 161.044 61.2318C162.15 60.6855 163.376 60.4231 164.61 60.4684C170.296 60.4684 173.689 64.3679 173.689 70.0714V81.5408L171.05 81.52Z"></path>
<path fill="white" d="M180.251 72.2093C180.427 74.2119 181.34 76.0791 182.815 77.4516C184.29 78.8241 186.223 79.6049 188.241 79.6436C189.819 79.6752 191.369 79.2296 192.687 78.3658C194.005 77.5021 195.029 76.2608 195.624 74.8056H198.42C197.68 76.901 196.308 78.7177 194.492 80.0074C192.675 81.297 190.503 81.9966 188.273 82.0105C185.42 81.9995 182.689 80.8627 180.677 78.8495C178.665 76.8363 177.536 74.111 177.539 71.2709C177.544 68.4327 178.669 65.7102 180.671 63.6897C182.672 61.6692 185.391 60.5125 188.241 60.4688C191.126 60.5233 193.874 61.7012 195.896 63.7499C197.918 65.7986 199.054 68.5548 199.058 71.4273C199.058 71.688 199.058 71.9486 199.058 72.2093H180.251ZM196.346 69.8528C196.061 67.9106 195.087 66.1341 193.6 64.845C192.114 63.5559 190.213 62.8394 188.241 62.8252C186.286 62.8518 184.404 63.5753 182.938 64.8646C181.472 66.1539 180.519 67.9237 180.251 69.8528H196.346Z"></path>
<path fill="white" d="M55.0967 42.7744L44.9496 19.1265H40.6562V46.9034H43.4417V22.1711H43.515L53.882 46.9034H56.2591L66.6994 22.1711H66.7832V46.9034H69.5686V19.1265H65.2648L55.0967 42.7744Z"></path>
<path fill="white" d="M84.5734 25.8521C81.7234 25.8958 79.0044 27.0524 77.0026 29.0729C75.0009 31.0934 73.8763 33.816 73.8711 36.6542C73.8683 39.4961 74.9981 42.223 77.0124 44.2365C79.0266 46.2499 81.7609 47.3854 84.6151 47.3937C86.8444 47.3792 89.0149 46.6792 90.8293 45.3895C92.6438 44.0998 94.0138 42.2835 94.7519 40.1889H91.9662C91.3695 41.6449 90.3437 42.8866 89.0239 43.7503C87.7041 44.614 86.1524 45.059 84.5734 45.0268C82.5563 44.9835 80.6261 44.2013 79.1519 42.8297C77.6778 41.4581 76.7633 39.5934 76.5834 37.5925H95.3591C95.3591 37.3318 95.3591 37.0711 95.3591 36.8105C95.3543 33.9432 94.2234 31.1917 92.2078 29.1439C90.1923 27.0961 87.4523 25.9147 84.5734 25.8521ZM76.5834 35.2361C76.8534 33.3089 77.8077 31.5416 79.2734 30.2544C80.739 28.9672 82.6193 28.245 84.5734 28.2188C86.5432 28.2327 88.4429 28.9477 89.9294 30.2347C91.4159 31.5216 92.3911 33.2958 92.6785 35.2361H76.5834Z"></path>
<path fill="white" d="M121.563 25.8519C120.158 25.8356 118.775 26.1921 117.555 26.8848C116.335 27.5775 115.322 28.5814 114.62 29.7932C113.937 28.5679 112.93 27.5526 111.707 26.8577C110.485 26.1628 109.095 25.815 107.688 25.8519C106.582 25.8116 105.484 26.0562 104.501 26.5622C103.517 27.0682 102.682 27.8183 102.075 28.7401V26.3733H99.3945V46.9035H102.033V34.8919C102.033 30.8776 103.991 28.2083 107.646 28.2083C111.301 28.2083 113.259 30.8776 113.259 34.8919V46.9035H115.898V34.9336C115.898 30.9193 117.898 28.2083 121.521 28.2083C125.144 28.2083 127.134 30.9505 127.134 34.8606V46.9035H129.773V34.5896C129.815 29.7516 126.872 25.8519 121.563 25.8519Z"></path>
<path fill="white" d="M162.153 29.3346H162.08V26.3734H159.441V46.9036H162.08V34.7773C162.08 31.4824 164.112 29.0008 167.923 28.6255V25.8521C164.635 26.0397 163.054 27.1971 162.153 29.3346Z"></path>
<path fill="white" d="M187.341 26.373L180.336 42.7327L173.78 26.373H170.984L179.016 46.2256L175.435 54.1083H178.189L190.137 26.373H187.341Z"></path>
<path fill="#4D8BFF" d="M149.337 58.488C150.655 58.488 151.724 57.4237 151.724 56.1107C151.724 54.7978 150.655 53.7334 149.337 53.7334C148.018 53.7334 146.949 54.7978 146.949 56.1107C146.949 57.4237 148.018 58.488 149.337 58.488Z"></path>
<path fill="#4D8BFF" d="M144.661 34.2766C144.348 34.2681 144.036 34.3228 143.745 34.4373C143.454 34.5518 143.188 34.7237 142.965 34.9429C142.742 35.162 142.566 35.4237 142.447 35.7124C142.328 36.001 142.269 36.3106 142.274 36.6226C142.269 36.9345 142.328 37.2441 142.447 37.5328C142.566 37.8214 142.742 38.0832 142.965 38.3023C143.188 38.5214 143.454 38.6933 143.745 38.8078C144.036 38.9223 144.348 38.9771 144.661 38.9686C144.976 38.9772 145.29 38.9218 145.583 38.8061C145.876 38.6903 146.142 38.5164 146.365 38.295C146.588 38.0737 146.764 37.8095 146.882 37.5184C146.999 37.2273 147.056 36.9154 147.049 36.6017C147.052 36.2911 146.992 35.9831 146.872 35.6962C146.753 35.4094 146.576 35.1495 146.353 34.9323C146.13 34.7151 145.865 34.545 145.574 34.4323C145.284 34.3196 144.973 34.2667 144.661 34.2766V34.2766Z"></path>
<path fill="#4D8BFF" d="M144.631 25.8521C141.757 25.896 139.017 27.0671 137.005 29.1112C134.993 31.1552 133.873 33.907 133.887 36.7688C133.941 39.5824 135.093 42.2646 137.098 44.2477C139.103 46.2307 141.805 47.359 144.631 47.3937C144.914 47.3937 145.196 47.3937 145.479 47.3937L148.16 50.9388L149.406 46.2885C151.207 45.3957 152.725 44.0241 153.791 42.3255C154.857 40.6269 155.431 38.6677 155.448 36.6646C155.426 33.8108 154.281 31.0795 152.258 29.0576C150.236 27.0357 147.497 25.8847 144.631 25.8521V25.8521ZM151.04 37.1442C151.041 37.2217 151.027 37.2988 150.998 37.3709C150.969 37.4429 150.926 37.5085 150.872 37.5638C150.817 37.6192 150.752 37.663 150.68 37.693C150.608 37.723 150.531 37.7385 150.453 37.7385H149.951C149.826 37.7376 149.705 37.7768 149.605 37.8501C149.505 37.9234 149.432 38.0268 149.396 38.1451C149.318 38.4009 149.216 38.6488 149.092 38.8855C149.037 38.9961 149.018 39.1213 149.039 39.243C149.059 39.3648 149.118 39.4768 149.207 39.5632L149.552 39.9073C149.662 40.0185 149.724 40.1683 149.724 40.3244C149.724 40.4805 149.662 40.6302 149.552 40.7414L148.799 41.4818C148.689 41.5906 148.54 41.6517 148.385 41.6517C148.23 41.6517 148.081 41.5906 147.971 41.4818L147.594 41.1167C147.511 41.0298 147.403 40.971 147.285 40.9486C147.166 40.9261 147.044 40.9411 146.935 40.9916C146.692 41.107 146.44 41.2012 146.181 41.2732C146.063 41.3129 145.961 41.3888 145.889 41.49C145.818 41.5912 145.781 41.7125 145.783 41.8362V42.3785C145.784 42.456 145.77 42.533 145.741 42.605C145.712 42.6771 145.669 42.7428 145.615 42.7981C145.56 42.8534 145.495 42.8973 145.423 42.9273C145.351 42.9573 145.274 42.9727 145.196 42.9727H144.149C143.991 42.9727 143.839 42.9102 143.727 42.7987C143.615 42.6873 143.552 42.5361 143.552 42.3785V41.8362C143.555 41.7135 143.518 41.5931 143.447 41.4934C143.375 41.3936 143.272 41.3199 143.154 41.2836C142.9 41.2035 142.652 41.1059 142.411 40.9916C142.302 40.9411 142.179 40.9261 142.061 40.9486C141.942 40.971 141.834 41.0298 141.751 41.1167L141.374 41.4818C141.264 41.5906 141.116 41.6517 140.961 41.6517C140.806 41.6517 140.657 41.5906 140.547 41.4818L139.793 40.7414C139.683 40.6302 139.621 40.4805 139.621 40.3244C139.621 40.1683 139.683 40.0185 139.793 39.9073L140.138 39.5632C140.225 39.4756 140.282 39.363 140.301 39.2413C140.32 39.1195 140.3 38.995 140.243 38.8855C140.123 38.6469 140.022 38.3993 139.94 38.1451C139.903 38.0268 139.83 37.9234 139.73 37.8501C139.63 37.7768 139.509 37.7376 139.384 37.7385H138.892C138.734 37.7385 138.582 37.6759 138.47 37.5645C138.358 37.453 138.295 37.3018 138.295 37.1442V36.1015C138.298 35.9457 138.362 35.7972 138.474 35.688C138.586 35.5788 138.736 35.5175 138.892 35.5176H139.384C139.508 35.5168 139.629 35.4771 139.728 35.404C139.828 35.331 139.902 35.2285 139.94 35.111C140.024 34.8542 140.125 34.6033 140.243 34.3602C140.299 34.2523 140.319 34.1295 140.3 34.0095C140.281 33.8896 140.225 33.7788 140.138 33.6929L139.793 33.3488C139.683 33.2376 139.621 33.0878 139.621 32.9317C139.621 32.7757 139.683 32.6258 139.793 32.5146L140.547 31.7639C140.657 31.6551 140.806 31.594 140.961 31.594C141.116 31.594 141.264 31.6551 141.374 31.7639L141.751 32.1393C141.836 32.2236 141.944 32.2808 142.062 32.3031C142.179 32.3254 142.301 32.3119 142.411 32.2644C142.652 32.1519 142.901 32.0545 143.154 31.9726C143.271 31.9348 143.373 31.8607 143.445 31.7613C143.516 31.6619 143.554 31.5422 143.552 31.4199V30.8777C143.555 30.7219 143.619 30.5734 143.731 30.4642C143.842 30.355 143.993 30.2937 144.149 30.2937H145.196C145.352 30.2937 145.501 30.3553 145.611 30.4648C145.721 30.5743 145.783 30.7228 145.783 30.8777V31.4303C145.781 31.5527 145.819 31.6723 145.891 31.7717C145.962 31.8711 146.064 31.9452 146.181 31.983C146.438 32.0631 146.69 32.1605 146.935 32.2748C147.044 32.3253 147.166 32.3404 147.285 32.318C147.403 32.2956 147.511 32.2367 147.594 32.1497L147.971 31.7744C148.081 31.6655 148.23 31.6043 148.385 31.6043C148.54 31.6043 148.689 31.6655 148.799 31.7744L149.552 32.5251C149.662 32.6363 149.724 32.7861 149.724 32.9422C149.724 33.0983 149.662 33.2481 149.552 33.3593L149.207 33.7033C149.118 33.7874 149.059 33.8985 149.04 34.0192C149.021 34.14 149.043 34.2635 149.102 34.3706C149.221 34.6137 149.322 34.8645 149.406 35.1213C149.444 35.2388 149.517 35.3414 149.617 35.4145C149.717 35.4875 149.837 35.5272 149.961 35.528H150.453C150.609 35.528 150.758 35.5896 150.868 35.6991C150.978 35.8086 151.04 35.9571 151.04 36.112V37.1442Z"></path>
</g>
<defs>
<clipPath id="clip0_4134_20673">
<rect transform="translate(40.6562 19.1265)" fill="white" height="62.8734" width="158.405"></rect>
</clipPath>
</defs>
</svg>
