<svg width="100" height="42" viewBox="0 0 100 42" fill="none" xmlns="http://www.w3.org/2000/svg">
<path fill-rule="evenodd" clip-rule="evenodd" d="M7.08709 12.0205C6.3914 12.0234 5.6957 12.0263 5 12.0263C5.02485 18.0575 5.02485 24.0887 5 30.12C6.83863 30.1463 8.65242 30.1463 10.491 30.12C10.4538 26.8813 10.4584 23.6575 10.4631 20.4262C10.4646 19.3481 10.4662 18.2691 10.4662 17.1884C12.0617 17.2526 12.7215 18.7613 13.3263 20.1441C13.4655 20.4624 13.6018 20.7741 13.7459 21.06C14.1214 21.7764 14.4576 22.5255 14.7951 23.2773C15.4626 24.7643 16.1349 26.262 17.125 27.5389C18.4667 29.2245 20.5538 30.2516 22.6658 30.1463C23.5726 30.1331 24.4857 30.1331 25.3988 30.1331C26.3119 30.1331 27.2251 30.1331 28.132 30.12C28.1195 29.1718 28.1195 28.2303 28.1195 27.2887C28.1195 26.3472 28.1195 25.4056 28.1071 24.4575C26.7157 23.9571 25.5728 22.4822 25.7467 20.8493C25.7716 19.3481 26.84 18.1629 28.1071 17.6361C28.132 15.7399 28.132 13.8699 28.132 12C27.5182 12 26.9071 12.0029 26.297 12.0059C25.0796 12.0117 23.8657 12.0175 22.6409 12C22.6409 13.0811 22.6394 14.1605 22.6378 15.2387C22.6332 18.4683 22.6285 21.6867 22.6658 24.9052C21.7713 24.8789 20.9762 24.2994 20.5787 23.4567C19.9147 22.164 19.3025 20.84 18.6896 19.5146C18.1787 18.4096 17.6673 17.3036 17.125 16.2139C15.9324 13.9489 13.7459 12.1844 11.2613 12.0263C9.86989 12.0088 8.47849 12.0146 7.08709 12.0205ZM43.035 12.0179C38.6073 12.0222 34.1787 12.0265 29.748 12.0265C29.7679 12.7744 29.7719 13.5224 29.7759 14.2704C29.7818 15.3923 29.7878 16.5143 29.8474 17.6363C31.3134 18.1894 32.4315 19.7959 32.183 21.5078C32.0588 22.93 31.0401 23.9572 29.8474 24.4576C29.835 25.3926 29.835 26.3275 29.835 27.2658C29.835 28.204 29.835 29.1456 29.8226 30.0937C32.676 30.1238 35.5374 30.1195 38.4024 30.1152C40.5518 30.112 42.7032 30.1088 44.8546 30.1201C46.7926 30.1464 48.8797 29.6197 50.2711 28.0921C51.7122 26.6172 52.234 24.4049 52.3085 22.3506C52.3831 20.3227 52.4328 18.2684 51.9358 16.2931C53.2775 16.2799 54.6255 16.2799 55.9734 16.2799C57.3213 16.2799 58.6692 16.2799 60.0109 16.2667C60.0275 19.3579 60.0219 22.4374 60.0164 25.513C60.0137 27.0494 60.0109 28.5847 60.0109 30.1201H65.2783C65.2949 27.0474 65.2894 23.9747 65.2839 20.9021C65.2811 19.3657 65.2783 17.8294 65.2783 16.2931C66.0891 16.2931 66.9026 16.2902 67.717 16.2872C69.3485 16.2814 70.9838 16.2755 72.608 16.2931C74.0391 19.0584 75.4971 21.8238 76.955 24.5891C77.9271 26.4328 78.8991 28.2764 79.8631 30.1201H86.522C89.2799 24.6156 92.0379 19.1112 94.771 13.5804C95.0443 13.0536 95.3673 12.5532 95.6903 12.0528C94.4633 12.0034 93.2461 12.0055 92.0325 12.0075C91.3046 12.0088 90.578 12.01 89.8514 12.0001C88.7868 14.0835 87.7552 16.1902 86.723 18.2983C85.563 20.6673 84.4021 23.0381 83.1926 25.3794C81.8626 22.7898 80.5075 20.2091 79.1516 17.627C78.1769 15.771 77.2019 13.9142 76.2356 12.0528C65.1621 11.9964 54.1012 12.0071 43.035 12.0179ZM35.118 23.4321C35.1226 21.07 35.1273 18.7153 35.09 16.3458C38.0964 16.2667 41.1028 16.2931 44.1092 16.3458C45.3516 16.3194 46.743 17.1095 46.8672 18.5317C46.9169 20.2963 46.9417 22.0609 46.8423 23.8255C46.6684 25.195 45.277 25.8798 44.1092 25.8271C43.365 25.8271 42.6192 25.8288 41.8723 25.8304C39.6268 25.8353 37.3708 25.8403 35.1149 25.8008C35.1149 25.0099 35.1164 24.2206 35.118 23.4321Z" fill="#475569"/>
<path d="M25.7461 20.8489C25.7709 19.3477 26.8393 18.1362 28.1065 17.6358C28.6531 17.5831 29.2246 17.5831 29.7712 17.6358C31.2371 18.2152 32.3552 19.7955 32.1067 21.5074C32.0073 22.9032 30.9638 23.9567 29.7712 24.4571C29.2246 24.5098 28.6531 24.5098 28.1065 24.4571C26.7151 23.9567 25.5721 22.5082 25.7461 20.8489Z" fill="white"/>
</svg>