<svg width="189" height="46" viewBox="0 0 189 46" fill="none" xmlns="http://www.w3.org/2000/svg">
<rect width="189" height="46" fill-opacity="0"/>
<g clip-path="url(#clip0_0_1)">
<mask id="mask0_0_1" style="mask-type:luminance" maskUnits="userSpaceOnUse" x="-10" y="0" width="209" height="46">
<path d="M199 0H-10V45.283H199V0Z" fill="white"/>
</mask>
<g mask="url(#mask0_0_1)">
<path d="M110.525 34.2881C110.525 34.2881 111.517 35.4756 112.04 35.9716C112.04 35.9716 110.906 36.1557 110.442 35.8372C110.065 35.5828 110.094 35.1761 110.196 34.9905C110.297 34.8052 110.525 34.2881 110.525 34.2881ZM113.938 24.8264C113.415 26.4387 111.481 26.2016 111.481 26.2016C111.164 23.6569 113.304 23.2776 113.304 23.2776C113.351 22.6453 113.097 22.345 113.097 22.345C112.337 22.4714 111.449 23.1827 111.449 23.1827C111.259 22.5504 110.863 21.776 110.863 21.776L110.102 22.3134C110.102 22.3134 110.736 23.2776 110.704 24.621C110.673 26.9444 109.643 27.3397 109.643 27.3397C109.643 27.3397 108.391 26.3755 108.676 23.8623C108.961 21.3492 111.148 20.9382 111.148 20.9382L111.196 20.0374C110.156 20.1802 109.754 20.5589 109.754 20.5589C109.516 18.8043 110.955 18.3175 111.684 18.4114C112.398 18.5033 112.341 18.9248 112.214 19.0511C112.087 19.1774 112.242 19.421 112.305 19.5473C112.369 19.6739 112.495 19.6896 112.812 19.579C113.029 19.5033 113.344 19.4738 113.531 19.6343C113.895 19.9472 113.837 20.5837 113.816 21.104C113.795 21.5976 113.824 22.1472 113.951 22.5898C114.078 23.0324 114.303 23.5933 113.938 24.8264ZM107.947 26.1563C107.947 26.1563 106.471 26.5384 105.659 25.1786C104.848 23.8189 105.332 21.6502 105.806 20.7849C106.347 19.9196 107.834 19.1219 107.834 19.1219C107.834 19.1219 109.062 19.7287 108.848 21.4704C108.848 21.4704 108.273 22.302 107.913 23.1673C107.913 23.1673 106.989 22.2683 106.234 22.3582C106.234 22.3582 106.042 22.7515 105.986 23.2234C105.986 23.2234 108.037 23.0324 107.947 26.1563ZM106.745 17.2543C106.046 16.8984 106.009 16.4708 105.885 16.3491C105.739 16.2071 105.546 16.1879 105.361 16.5152C105.175 16.8429 104.646 16.731 104.302 16.6873C103.919 16.6391 103.062 16.4427 103.062 16.4427C103.386 16.1119 104.689 15.6027 105.889 15.9158C107.445 16.3147 108.187 17.7384 108.187 17.7384C107.901 17.7242 107.445 17.6104 106.745 17.2543ZM107.164 15.2323C107.204 15.1333 107.241 15.0242 107.318 14.9467C107.426 14.8376 107.748 15.0529 107.85 15.1102C108.067 15.2321 108.272 15.3754 108.461 15.5373C108.927 15.9384 109.29 16.47 109.386 17.0859C109.403 17.1968 109.411 17.3088 109.411 17.4207C109.412 17.4558 109.411 17.7753 109.385 17.7797C109.385 17.7797 109.13 17.821 108.981 17.5394C108.734 17.0746 108.435 16.6249 108.086 16.2304C107.93 16.0534 107.759 15.8849 107.565 15.7492C107.478 15.6887 107.387 15.6349 107.29 15.5941C107.241 15.5735 107.088 15.5622 107.054 15.5059C107.051 15.5019 107.049 15.4975 107.048 15.4931C107.031 15.4285 107.139 15.2952 107.164 15.2323ZM107.343 13.9769C107.365 13.7221 107.651 13.4013 107.868 13.2111C108.149 12.9639 109.637 11.4917 110.031 10.9412C110.031 10.9412 112.107 12.8115 112.704 13.2497C112.896 13.3957 112.917 13.5889 112.793 13.7125C112.669 13.8361 112.432 14.0062 112.218 13.8226C112.061 13.6877 111.947 13.5144 111.8 13.5817C111.562 13.6916 111.558 14.1232 111.569 14.335C111.578 14.528 111.469 14.4916 111.343 14.4026C111.252 14.338 111.168 14.2606 111.09 14.1817C110.882 13.972 110.729 13.7122 110.628 13.4358C110.459 12.7727 110.446 12.5965 110.119 12.5738C109.849 12.5515 109.707 12.7651 109.321 13.7393C109.073 14.3685 108.671 14.5914 108.514 14.5351C108.356 14.4788 108.55 14.0637 108.595 13.9401C108.64 13.8165 108.554 13.67 108.352 13.5803C108.149 13.4903 107.969 13.6604 107.879 13.7953C107.811 13.8966 107.748 14.1015 107.592 14.1694C107.428 14.2407 107.327 14.1505 107.343 13.9769ZM110.048 16.9269C109.797 16.8896 109.62 16.298 109.561 15.8534C109.517 15.5209 109.332 15.1709 109.332 15.1709C109.62 14.8563 109.8 14.0568 109.926 13.8366C110.012 13.6864 110.321 13.6353 110.383 14.0846C110.496 14.7214 110.896 15.1085 110.896 15.1085C110.746 15.2458 110.684 15.6079 110.608 15.845C110.533 16.0822 110.298 16.9643 110.048 16.9269ZM110.651 17.2722C110.715 17.1058 110.786 16.9422 110.861 16.7804C111.028 16.4216 111.213 16.064 111.442 15.7406C111.483 15.6836 111.525 15.6278 111.57 15.5744C112.009 15.0519 112.715 14.9212 112.799 14.9549C112.884 14.9885 112.791 15.4584 112.69 15.5764C112.589 15.6944 111.169 17.5824 111.051 17.6834C110.956 17.764 110.74 17.6878 110.644 17.6414C110.611 17.6251 110.59 17.6038 110.578 17.5789C110.538 17.4914 110.616 17.3632 110.651 17.2722ZM114.274 15.9158C115.473 15.6027 116.777 16.1119 117.101 16.4427C117.101 16.4427 116.243 16.6391 115.86 16.6873C115.516 16.731 114.987 16.8429 114.801 16.5152C114.616 16.1879 114.423 16.2071 114.278 16.3491C114.153 16.4708 114.117 16.8984 113.417 17.2543C112.718 17.6104 112.261 17.7242 111.975 17.7384C111.975 17.7384 112.718 16.3147 114.274 15.9158ZM121.372 20.6852C120.646 20.6946 119.697 20.5555 119.697 20.5555C119.697 20.3141 119.825 20.1524 119.946 19.9759C120.067 19.7997 119.827 19.609 119.716 19.5348C119.604 19.4606 119.437 19.5254 119.39 19.5906C119.344 19.6554 119.111 20.0079 118.767 20.0637C118.423 20.1192 117.855 19.7481 117.548 19.5254C117.241 19.3028 116.378 18.7857 116.378 18.7857C117.17 18.1683 117.993 18.5628 118.507 18.7368C118.788 18.8321 118.956 18.7051 119.024 18.5374C119.097 18.3556 119.01 18.2263 118.846 18.142C118.541 17.9847 117.949 17.8289 117.426 17.8227C116.535 17.8063 116.205 18.0697 115.61 18.4318C114.901 18.4893 112.904 18.4318 112.904 18.4318C113.531 17.5347 117.014 17.0491 118.062 17.0901C119.109 17.1314 119.737 18.374 120.339 18.9584C120.941 19.5429 121.536 19.8226 121.924 19.724C122.311 19.6252 122.212 19.4522 121.742 19.1231C121.082 18.6456 120.818 18.5057 120.9 18.3411C120.983 18.1767 121.371 18.374 121.561 18.3578C121.75 18.3411 121.74 18.154 121.707 17.8989C121.674 17.6438 121.214 17.6006 121.214 17.6006C120.133 17.4688 119.126 17.0161 118.986 16.9092C118.846 16.8021 119.035 16.6622 119.134 16.5882C119.233 16.514 119.308 16.4482 119.596 16.6293C119.885 16.8104 120.62 16.9997 120.876 17.008C121.131 17.0161 121.404 16.9997 121.387 16.761C121.371 16.5224 121.288 16.2343 121.082 16.2424C120.876 16.2508 120.347 16.399 120.314 16.2014C120.281 16.0038 120.65 15.8568 120.84 15.7416C121.03 15.6265 120.815 15.296 120.708 15.1972C120.601 15.0984 120.378 15.1891 120.196 15.296C120.015 15.4029 118.697 16.0448 118.325 16.1604C117.954 16.2754 117.748 16.0448 117.74 15.8227C117.731 15.6005 118.301 15.5017 118.383 15.3454C118.466 15.1891 118.26 14.9585 118.185 14.901C118.111 14.8433 117.954 14.8927 117.674 14.9998C117.393 15.1067 116.923 15.1478 116.923 15.1478C116.596 15.1815 116.51 14.9753 116.363 14.7617C116.217 14.5484 116.048 14.5931 115.901 14.728C115.755 14.8629 115.361 15.1999 115.034 15.1888C114.818 15.1815 114.6 15.2186 114.388 15.252C114.187 15.2835 113.975 15.3429 113.772 15.3031C113.474 15.2446 113.598 14.9173 113.754 14.7708C113.89 14.644 114.096 14.5567 114.279 14.537C114.594 14.5034 116.375 14.1099 116.994 14.0426C117.614 13.975 117.666 14.1379 118.209 14.4218C118.752 14.7059 119.461 14.6417 119.762 14.5398C120.063 14.438 119.993 14.2343 119.993 14.2343C119.982 14.1556 119.907 13.9669 119.848 13.8855C119.778 13.7892 119.566 13.8405 119.566 13.8405C118.811 13.9192 118.403 13.7843 118.403 13.7843C118.459 13.492 118.989 13.3347 119.067 13.1548C119.146 12.9749 118.82 12.7053 118.617 12.6493C118.414 12.593 118.155 12.8176 118.155 12.8176C117.298 13.492 115.665 13.6044 115.665 13.6044C115.665 13.6044 115.789 13.2335 115.89 13.0875C115.991 12.9413 116.239 12.8963 116.239 12.8963C117.524 13.0086 118.02 12.2445 118.053 12.1322C118.087 12.0199 117.727 11.7839 117.625 11.739C117.524 11.694 117.423 11.8626 117.423 11.8626C117.231 12.1885 116.634 12.0535 116.634 12.0535C116.6 11.9638 116.803 11.4691 116.814 11.2671C116.825 11.0646 116.408 10.9299 116.408 10.9299C116.273 10.8962 116.239 11.0085 116.239 11.0085C116.091 11.6458 115.597 11.5704 115.27 11.6266C114.944 11.6827 114.955 11.9186 115.045 12.1098C115.209 12.4571 115.053 12.9246 114.86 13.2224C114.423 13.8968 113.809 14.0254 113.628 13.8735C113.29 13.4913 113.975 12.8626 114.223 12.638C114.504 12.4018 114.234 12.1661 114.098 12.0535C113.963 11.9412 113.806 12.1098 113.806 12.1098C113.535 12.3458 113.254 12.3008 113.254 12.3008C113.254 12.3008 113.242 12.0312 113.276 11.7952C113.31 11.5591 113.755 11.4706 113.755 11.4706C114.884 11.2607 115.282 10.559 115.214 10.413C115.138 10.2486 114.903 10.0967 114.578 10.4022C114.176 10.7264 113.583 10.5738 113.583 10.5738C113.583 10.5738 113.564 10.4403 113.621 10.0586C113.64 9.54354 112.932 9.61973 112.779 10.0205C112.607 10.4784 112.435 12.2337 112.435 12.2337C111.995 12.0238 111.306 11.4133 111.306 11.2226C111.306 11.0316 111.708 10.6691 112.014 10.3447C112.378 9.90605 112.416 9.52462 112.033 9.42902C111.651 9.33366 111.421 9.58164 111.306 9.92522C111.192 10.2685 111.077 10.4592 110.79 10.4784C110.503 10.4973 110.556 10.0677 110.537 9.68634C110.518 9.22847 110.101 9.2383 110.101 9.2383H110.061C110.061 9.2383 109.652 9.22847 109.633 9.68634C109.613 10.0677 109.659 10.4973 109.373 10.4784C109.086 10.4592 108.971 10.2685 108.856 9.92522C108.741 9.58164 108.512 9.33366 108.129 9.42902C107.746 9.52462 107.785 9.90605 108.148 10.3447C108.454 10.6691 108.856 11.0316 108.856 11.2226C108.856 11.4133 108.167 12.0238 107.727 12.2337C107.727 12.2337 107.555 10.4784 107.383 10.0205C107.23 9.61973 106.522 9.54354 106.541 10.0586C106.599 10.4403 106.579 10.5738 106.579 10.5738C106.579 10.5738 105.986 10.7264 105.585 10.4022C105.259 10.0967 105.024 10.2486 104.948 10.413C104.881 10.559 105.278 11.2607 106.407 11.4706C106.407 11.4706 106.852 11.5591 106.886 11.7952C106.92 12.0312 106.909 12.3008 106.909 12.3008C106.909 12.3008 106.627 12.3458 106.357 12.1098C106.357 12.1098 106.199 11.9412 106.064 12.0535C105.928 12.1661 105.658 12.4018 105.94 12.638C106.188 12.8626 106.872 13.4913 106.534 13.8735C106.353 14.0254 105.74 13.8968 105.302 13.2224C105.109 12.9246 104.953 12.4571 105.117 12.1098C105.207 11.9186 105.223 11.6018 104.892 11.6266C104.521 11.6544 104.071 11.6458 103.923 11.0085C103.923 11.0085 103.889 10.8962 103.754 10.9299C103.754 10.9299 103.337 11.0646 103.348 11.2671C103.36 11.4691 103.578 12.012 103.545 12.102C103.545 12.102 102.898 12.2108 102.706 11.8847C102.706 11.8847 102.605 11.7164 102.503 11.7613C102.402 11.8061 102.041 12.0422 102.075 12.1546C102.109 12.2669 102.513 12.9894 103.797 12.8771C103.797 12.8771 104.045 12.9221 104.146 13.0681C104.248 13.2143 104.372 13.5852 104.372 13.5852C104.372 13.5852 102.782 13.5309 101.925 12.8567C101.925 12.8567 101.666 12.6318 101.463 12.6881C101.26 12.7442 101.016 12.9749 101.095 13.1548C101.174 13.3347 101.703 13.492 101.76 13.7843C101.76 13.7843 101.351 13.9192 100.596 13.8405C100.596 13.8405 100.384 13.7892 100.314 13.8855C100.255 13.9669 100.18 14.1556 100.169 14.2343C100.169 14.2343 100.099 14.438 100.4 14.5398C100.701 14.6417 101.41 14.7059 101.953 14.4218C102.496 14.1379 102.548 13.975 103.168 14.0426C103.788 14.1099 105.568 14.5034 105.883 14.537C106.066 14.5567 106.272 14.644 106.408 14.7708C106.565 14.9173 106.688 15.2446 106.39 15.3031C106.187 15.3429 105.975 15.2835 105.775 15.252C105.563 15.2186 105.344 15.1815 105.128 15.1888C104.802 15.1999 104.421 14.9136 104.275 14.7786C104.128 14.6437 103.96 14.5987 103.813 14.8123C103.667 15.0259 103.566 15.1815 103.24 15.1478C103.24 15.1478 102.769 15.1067 102.489 14.9998C102.208 14.8927 102.051 14.8433 101.977 14.901C101.903 14.9585 101.696 15.1891 101.779 15.3454C101.861 15.5017 102.431 15.6005 102.422 15.8227C102.414 16.0448 102.208 16.2754 101.837 16.1604C101.465 16.0448 100.148 15.4029 99.9664 15.296C99.7844 15.1891 99.5624 15.0984 99.4544 15.1972C99.3474 15.296 99.1334 15.6265 99.3234 15.7416C99.5124 15.8568 99.8814 16.0038 99.8484 16.2014C99.8154 16.399 99.2874 16.2508 99.0804 16.2424C98.8744 16.2343 98.7914 16.5224 98.7754 16.761C98.7594 16.9997 99.0314 17.0161 99.2874 17.008C99.5434 16.9997 100.277 16.8104 100.566 16.6293C100.855 16.4482 100.929 16.514 101.028 16.5882C101.127 16.6622 101.317 16.8021 101.176 16.9092C101.036 17.0161 100.029 17.4688 98.9484 17.6006C98.9484 17.6006 98.4884 17.6438 98.4564 17.8989C98.4224 18.154 98.4124 18.3411 98.6024 18.3578C98.7914 18.374 99.1804 18.1767 99.2624 18.3411C99.3414 18.4991 99.1454 18.6741 99.0484 18.7456C98.9154 18.8437 98.7114 18.9321 98.5544 18.984C98.4054 19.0327 98.3114 19.1155 98.2744 19.273C98.2514 19.3684 98.2204 19.5001 98.2574 19.5945C98.3054 19.7186 98.5444 19.6935 98.6564 19.6864C98.8134 19.6763 98.9644 19.6164 99.1014 19.5409C99.3734 19.3908 99.6024 19.173 99.8234 18.9584C100.426 18.374 101.132 17.1631 102.181 17.1218C103.229 17.0808 106.631 17.5347 107.258 18.4318C107.258 18.4318 105.261 18.4893 104.552 18.4318C103.958 18.0697 103.627 17.8063 102.736 17.8227C102.213 17.8289 101.621 17.9847 101.316 18.142C101.152 18.2263 101.066 18.3556 101.139 18.5374C101.206 18.7051 101.375 18.8321 101.655 18.7368C102.17 18.5628 102.992 18.1683 103.784 18.7857C103.784 18.7857 102.921 19.3028 102.614 19.5254C102.307 19.7481 101.74 20.1192 101.395 20.0637C101.051 20.0079 100.819 19.6554 100.772 19.5906C100.726 19.5254 100.558 19.4606 100.446 19.5348C100.335 19.609 100.095 19.7997 100.216 19.9759C100.337 20.1524 100.465 20.3141 100.465 20.5555C100.465 20.5555 99.5164 20.6946 98.7904 20.6852C98.7904 20.6852 98.3354 20.6272 98.2694 20.8333C98.2034 21.0394 98.2714 21.3952 99.3804 21.4421C99.3804 21.4421 99.1774 21.6994 98.9704 21.8305C98.7634 21.9616 98.4264 22.1729 98.5304 22.3602C98.5994 22.4859 98.6684 22.5977 98.7924 22.6756C98.9154 22.7529 99.0134 22.6864 99.1114 22.6073C99.3414 22.4232 99.7674 22.0418 100.062 21.6993C100.649 21.0183 101.048 20.9213 101.772 20.8586C101.772 20.8586 101.753 21.3976 101.772 21.5182C101.79 21.6389 101.888 21.6967 102.065 21.7059C102.242 21.7152 102.415 21.6252 102.478 21.3756C102.478 21.3756 102.873 20.4009 103.094 20.2969C103.316 20.1929 103.928 20.2581 104.059 20.2969C104.189 20.336 104.319 20.3099 104.345 20.0629C104.36 19.9285 104.373 19.6844 104.406 19.4819C104.444 19.2487 104.528 19.1499 104.773 19.1524C105.24 19.1568 106.247 19.1664 106.287 19.1664C106.319 19.1664 106.388 19.19 106.386 19.2293C106.383 19.2671 106.33 19.2775 106.304 19.2873C105.422 19.6176 104.602 20.3753 104.122 21.1267C103.783 21.6583 103.055 22.3683 102.471 22.571C101.886 22.7737 100.648 22.6322 100.419 22.6449C100.19 22.6576 100.032 22.7484 99.9814 23.0398C99.9304 23.3312 100.244 23.3331 100.244 23.3331C101.033 23.4322 102.153 23.4452 102.153 23.4452C101.886 24.104 100.946 24.37 100.654 24.3827C100.362 24.3953 100.362 24.674 100.4 24.8768C100.438 25.0796 100.667 25.0668 100.667 25.0668C101.353 24.9909 102.259 24.5445 102.653 24.0505C103.047 23.5564 103.601 22.761 103.754 22.5837C103.906 22.4062 104.237 22.0135 104.414 22.1149C104.656 22.2416 104.541 22.7737 104.465 23.9266C104.503 25.0921 105.024 26.0297 105.024 26.0297C103.703 26.3971 102.852 25.0414 102.852 25.0414L102.016 25.6667C102.016 25.6667 102.425 26.0432 102.971 26.4355C103.465 26.7904 104.272 27.1401 105.5 27.012C106.729 26.8838 107.379 26.972 107.692 27.0841C108.005 27.1961 108.762 27.6705 108.957 27.9699C109.203 28.3451 108.887 28.8902 108.887 28.8902C107.661 32.0827 109.226 33.8074 109.226 33.8074C108.7 34.8792 107.567 36.0443 107.567 36.0443H108.666C108.666 36.0443 109.764 34.9841 110.558 33.1663C111.469 30.9175 110.57 28.9952 110.57 28.9952C110.324 29.3331 110.056 29.8574 110.126 31.139C110.196 32.4207 109.682 32.8867 109.682 32.8867C108.56 30.673 109.799 28.1446 111.084 27.3406C112.369 26.5367 113.724 27.3406 115.43 26.9096C117.135 26.4785 118.386 24.2819 118.41 24.1654L117.213 24.0991C115.864 26.3416 114.279 26.0664 114.279 26.0664C114.279 26.0664 114.775 25.2123 114.921 24.6281C115.101 23.8302 114.955 22.6615 114.955 22.6615C115.381 21.7716 116.353 21.6599 116.772 21.655C116.901 21.6536 117.05 21.6933 117.094 21.5327C117.118 21.4483 117.108 21.3399 117.096 21.2569C117.067 21.0706 116.912 21.0111 116.755 21.0163C116.56 21.0227 115.912 21.0457 115.359 21.3344C114.936 21.5549 114.604 21.8977 114.604 21.8977C114.48 21.6617 114.504 20.8748 114.493 20.3579C114.482 19.841 114.177 19.4478 114.177 19.4478C114.335 19.0656 114.934 19.145 114.934 19.145C115.408 19.2472 115.678 19.5997 115.939 20.0637C116.199 20.5274 116.506 20.2677 116.553 20.1566C116.599 20.0452 116.701 19.8503 116.701 19.8503C117.306 20.2863 117.628 21.149 117.685 21.3756C117.747 21.6252 117.92 21.7152 118.097 21.7059C118.274 21.6967 118.372 21.6389 118.391 21.5182C118.409 21.3976 118.391 20.8586 118.391 20.8586C118.391 20.8586 119.204 20.9265 120.199 21.307C121.314 21.6609 122.062 21.2031 122.127 21.0547C122.192 20.9063 121.886 20.6715 121.372 20.6852Z" fill="#C2971A"/>
<path d="M107.566 20.7059C107.729 20.7408 107.935 20.7143 107.949 20.9298C107.97 21.2596 107.45 21.5254 107.343 21.6498C107.236 21.7743 107.161 22.0252 106.943 22.0406C106.943 22.0406 107.151 22.0044 107.174 21.7647C107.191 21.5781 107.161 21.5592 107.103 21.4845C106.995 21.3465 106.942 21.152 106.96 20.8231C106.966 20.7037 107.033 20.6088 107.15 20.5771C107.29 20.5393 107.358 20.5995 107.462 20.6668C107.492 20.686 107.528 20.6975 107.566 20.7059Z" fill="#C2971A"/>
<path d="M116.404 22.478C116.49 22.3358 116.533 22.1332 116.741 22.1907C117.061 22.2787 117.142 22.8562 117.225 22.9978C117.308 23.1393 117.521 23.292 117.464 23.5024C117.464 23.5024 117.498 23.295 117.278 23.195C117.107 23.117 117.079 23.1398 116.989 23.17C116.823 23.2259 116.622 23.2124 116.316 23.0878C116.205 23.0426 116.137 22.9486 116.145 22.8278C116.155 22.6838 116.235 22.6393 116.333 22.5629C116.36 22.5413 116.383 22.5114 116.404 22.478Z" fill="#C2971A"/>
<path d="M120.417 23.7473C120.364 23.9048 120.366 24.1118 120.15 24.1005C119.819 24.0835 119.615 23.5371 119.503 23.4167C119.392 23.2963 119.15 23.1931 119.16 22.9756C119.16 22.9756 119.172 23.1853 119.408 23.2357C119.592 23.2749 119.614 23.2466 119.696 23.1977C119.845 23.1075 120.045 23.0771 120.371 23.1329C120.489 23.1532 120.576 23.2303 120.594 23.35C120.615 23.4928 120.547 23.5533 120.468 23.649C120.446 23.6762 120.43 23.7102 120.417 23.7473Z" fill="#C2971A"/>
<path d="M96.8366 21.6363C96.9786 21.7232 97.1826 21.766 97.1236 21.9738C97.0346 22.2921 96.4556 22.3716 96.3136 22.4538C96.1706 22.536 96.0176 22.7482 95.8066 22.6911C95.8066 22.6911 96.0146 22.7253 96.1156 22.5064C96.1946 22.3361 96.1716 22.3081 96.1406 22.2185C96.0856 22.0529 96.0996 21.8518 96.2256 21.5472C96.2706 21.4368 96.3656 21.3691 96.4866 21.3777C96.6306 21.3881 96.6756 21.4673 96.7516 21.5653C96.7736 21.5931 96.8036 21.6158 96.8366 21.6363Z" fill="#C2971A"/>
<path d="M110.95 19.1648C111.022 19.0498 111.06 18.8849 111.23 18.935C111.489 19.0117 111.547 19.4846 111.612 19.6016C111.678 19.7185 111.85 19.8463 111.8 20.0174C111.8 20.0174 111.831 19.8486 111.653 19.7635C111.515 19.6974 111.491 19.7156 111.418 19.7389C111.281 19.782 111.117 19.7679 110.869 19.6618C110.779 19.6232 110.724 19.5453 110.733 19.4467C110.744 19.3292 110.809 19.2941 110.89 19.2332C110.913 19.2157 110.932 19.1919 110.95 19.1648Z" fill="#C2971A"/>
<path d="M0.449219 14.8838C0.808119 14.901 1.27782 14.9179 1.85892 14.9349C2.43942 14.9521 3.01212 14.9604 3.57592 14.9604C4.37892 14.9604 5.14762 14.9521 5.88252 14.9349C6.61682 14.9179 7.13822 14.9093 7.44572 14.9093C9.51292 14.9093 11.0593 15.378 12.0845 16.3149C13.1096 17.2522 13.6222 18.4619 13.6222 19.9444C13.6222 20.5578 13.5196 21.2012 13.3147 21.8742C13.1096 22.5475 12.7549 23.1693 12.251 23.74C11.747 24.3111 11.0593 24.7752 10.188 25.1331C9.31662 25.4909 8.21462 25.6696 6.88192 25.6696H4.42172V25.1586H6.62582C7.83862 25.1586 8.76562 24.9286 9.40632 24.4685C10.047 24.0083 10.4827 23.4038 10.7133 22.6537C10.944 21.9041 11.0593 21.0946 11.0593 20.2256C11.0593 18.6069 10.739 17.3972 10.0982 16.5963C9.45762 15.7953 8.35972 15.3947 6.80502 15.3947C6.01902 15.3947 5.50652 15.5397 5.26732 15.8292C5.02792 16.1192 4.90862 16.7071 4.90862 17.5929V30.2704C4.90862 30.8838 4.97272 31.3439 5.10092 31.6506C5.22902 31.9573 5.48082 32.1618 5.85692 32.2641C6.23262 32.3663 6.77942 32.4347 7.49702 32.4686V32.9798C7.05252 32.9459 6.48872 32.9247 5.80562 32.9158C5.12202 32.9075 4.43002 32.9031 3.72972 32.9031C3.06342 32.9031 2.43942 32.9075 1.85892 32.9158C1.27782 32.9247 0.808119 32.9459 0.449219 32.9798V32.4686C1.02992 32.4347 1.47002 32.3663 1.76902 32.2641C2.06792 32.1618 2.26892 31.9573 2.37152 31.6506C2.47402 31.3439 2.52522 30.8838 2.52522 30.2704V17.5929C2.52522 16.9627 2.47402 16.4982 2.37152 16.2001C2.26892 15.902 2.06792 15.6975 1.76902 15.5867C1.47002 15.4758 1.02992 15.4119 0.449219 15.3947V14.8838Z" fill="#756A68"/>
<path d="M25.7194 20.2511C25.6508 21.2225 25.6209 21.9636 25.6297 22.4749C25.6381 22.9861 25.6425 23.4549 25.6425 23.8805C25.6425 24.3067 25.6508 24.7752 25.6681 25.2864C25.685 25.7973 25.7278 26.5389 25.7963 27.5102H25.2067C25.1384 26.9648 25.0571 26.4324 24.9634 25.9127C24.8693 25.3929 24.6643 24.9669 24.3483 24.6347C24.032 24.3024 23.4982 24.1362 22.7466 24.1362V23.625C23.3104 23.625 23.7415 23.51 24.0406 23.28C24.3394 23.0499 24.5572 22.7559 24.6943 22.3982C24.8307 22.0402 24.9251 21.6697 24.9762 21.2863C25.0273 20.9029 25.0787 20.5578 25.1298 20.2511H25.7194ZM24.9762 23.625V24.1362H20.2862V23.625H24.9762ZM29.3841 14.8838C29.3158 15.4802 29.2688 16.0595 29.2433 16.6216C29.2177 17.1842 29.2049 17.6101 29.2049 17.8996C29.2049 18.2063 29.2133 18.5003 29.2305 18.7814C29.2472 19.0626 29.2644 19.297 29.2816 19.4843H28.6922C28.5898 18.4791 28.4445 17.6823 28.2565 17.0945C28.0685 16.5066 27.748 16.0893 27.2955 15.8423C26.8426 15.5953 26.1635 15.4714 25.2581 15.4714H23.131C22.55 15.4714 22.1098 15.5186 21.8112 15.6122C21.5121 15.7059 21.3113 15.902 21.2088 16.2001C21.1063 16.4982 21.055 16.9627 21.055 17.5929V30.2704C21.055 30.8838 21.1063 31.3439 21.2088 31.6506C21.3113 31.9573 21.5121 32.1579 21.8112 32.2513C22.1098 32.3452 22.55 32.3919 23.131 32.3919H25.0018C26.0782 32.3919 26.8939 32.2474 27.4494 31.9573C28.0043 31.6679 28.4059 31.195 28.6539 30.5388C28.9014 29.8831 29.085 28.9924 29.2049 27.8678H29.7943C29.7429 28.3278 29.7174 28.9413 29.7174 29.7084C29.7174 30.032 29.7301 30.4966 29.7559 31.1011C29.7815 31.7062 29.8282 32.3324 29.8968 32.9798C29.0255 32.9459 28.0427 32.9247 26.9495 32.9158C25.8558 32.9075 24.8821 32.9031 24.028 32.9031C23.652 32.9031 23.1693 32.9031 22.58 32.9031C21.9904 32.9031 21.3538 32.9075 20.6706 32.9158C19.9871 32.9247 19.295 32.933 18.5948 32.9414C17.8941 32.9503 17.2276 32.9631 16.5957 32.9798V32.4686C17.1765 32.4347 17.6164 32.3663 17.9155 32.2641C18.2143 32.1618 18.4154 31.9573 18.5179 31.6506C18.6204 31.3439 18.6717 30.8838 18.6717 30.2704V17.5929C18.6717 16.9627 18.6204 16.4982 18.5179 16.2001C18.4154 15.902 18.2143 15.6975 17.9155 15.5867C17.6164 15.4758 17.1765 15.4119 16.5957 15.3947V14.8838C17.2276 14.901 17.8941 14.9135 18.5948 14.9218C19.295 14.9307 19.9871 14.9391 20.6706 14.9474C21.3538 14.9563 21.9904 14.9604 22.58 14.9604C23.1693 14.9604 23.652 14.9604 24.028 14.9604C24.8135 14.9604 25.7066 14.9563 26.7059 14.9474C27.7057 14.9391 28.5981 14.9179 29.3841 14.8838Z" fill="#756A68"/>
<path d="M42.4792 20.2511C42.4109 21.2225 42.3807 21.9636 42.3897 22.4749C42.3981 22.9861 42.4023 23.4549 42.4023 23.8805C42.4023 24.3067 42.4109 24.7752 42.4281 25.2864C42.4448 25.7973 42.4878 26.5389 42.5561 27.5102H41.9668C41.8982 26.9648 41.8171 26.4324 41.7232 25.9127C41.6291 25.3929 41.4241 24.9669 41.1081 24.6347C40.7918 24.3024 40.2579 24.1362 39.5064 24.1362V23.625C40.0702 23.625 40.5015 23.51 40.8006 23.28C41.0995 23.0499 41.3172 22.7559 41.4541 22.3982C41.5908 22.0402 41.6849 21.6697 41.7362 21.2863C41.7874 20.9029 41.8385 20.5578 41.8899 20.2511H42.4792ZM41.7362 23.625V24.1362H37.0462V23.625H41.7362ZM46.1441 14.8838C46.0756 15.4802 46.0289 16.0595 46.0033 16.6216C45.9775 17.1842 45.9647 17.6101 45.9647 17.8996C45.9647 18.2063 45.9731 18.5003 45.9903 18.7814C46.0072 19.0626 46.0244 19.297 46.0416 19.4843H45.4523C45.3498 18.4791 45.2043 17.6823 45.0165 17.0945C44.8283 16.5066 44.5078 16.0893 44.0553 15.8423C43.6026 15.5953 42.9233 15.4714 42.0179 15.4714H39.8908C39.3098 15.4714 38.8696 15.5186 38.571 15.6122C38.2719 15.7059 38.0713 15.902 37.9686 16.2001C37.8661 16.4982 37.815 16.9627 37.815 17.5929V30.2704C37.815 30.8838 37.8661 31.3439 37.9686 31.6506C38.0713 31.9573 38.2719 32.1579 38.571 32.2513C38.8696 32.3452 39.3098 32.3919 39.8908 32.3919H41.7616C42.838 32.3919 43.6537 32.2474 44.2092 31.9573C44.7641 31.6679 45.1657 31.195 45.4137 30.5388C45.6612 29.8831 45.845 28.9924 45.9647 27.8678H46.5541C46.5029 28.3278 46.4774 28.9413 46.4774 29.7084C46.4774 30.032 46.4902 30.4966 46.5157 31.1011C46.5413 31.7062 46.5882 32.3324 46.6568 32.9798C45.7853 32.9459 44.8027 32.9247 43.7095 32.9158C42.6159 32.9075 41.6419 32.9031 40.7878 32.9031C40.4118 32.9031 39.9293 32.9031 39.3397 32.9031C38.7504 32.9031 38.1136 32.9075 37.4306 32.9158C36.7471 32.9247 36.055 32.933 35.3546 32.9414C34.6539 32.9503 33.9876 32.9631 33.3555 32.9798V32.4686C33.9363 32.4347 34.3764 32.3663 34.6755 32.2641C34.9741 32.1618 35.1752 31.9573 35.2779 31.6506C35.3804 31.3439 35.4315 30.8838 35.4315 30.2704V17.5929C35.4315 16.9627 35.3804 16.4982 35.2779 16.2001C35.1752 15.902 34.9741 15.6975 34.6755 15.5867C34.3764 15.4758 33.9363 15.4119 33.3555 15.3947V14.8838C33.9876 14.901 34.6539 14.9135 35.3546 14.9218C36.055 14.9307 36.7471 14.9391 37.4306 14.9474C38.1136 14.9563 38.7504 14.9604 39.3397 14.9604C39.9293 14.9604 40.4118 14.9604 40.7878 14.9604C41.5735 14.9604 42.4664 14.9563 43.466 14.9474C44.4655 14.9391 45.3582 14.9179 46.1441 14.8838Z" fill="#756A68"/>
<path d="M50.1152 14.8838C50.4741 14.901 50.944 14.9179 51.525 14.9349C52.1055 14.9521 52.6781 14.9604 53.2419 14.9604C54.0448 14.9604 54.8136 14.9521 55.5485 14.9349C56.2828 14.9179 56.8043 14.9093 57.1118 14.9093C59.179 14.9093 60.7253 15.378 61.7507 16.3149C62.7756 17.2522 63.2882 18.4619 63.2882 19.9444C63.2882 20.5578 63.1857 21.2012 62.9808 21.8742C62.7756 22.5475 62.4209 23.1693 61.9171 23.74C61.413 24.3111 60.7253 24.7752 59.8541 25.1331C58.9826 25.4909 57.8808 25.6696 56.548 25.6696H54.0878V25.1586H56.2919C57.5048 25.1586 58.4318 24.9286 59.0725 24.4685C59.713 24.0083 60.1488 23.4038 60.3795 22.6537C60.6101 21.9041 60.7253 21.0946 60.7253 20.2256C60.7253 18.6069 60.4051 17.3972 59.7644 16.5963C59.1237 15.7953 58.0258 15.3947 56.4711 15.3947C55.6851 15.3947 55.1724 15.5397 54.9335 15.8292C54.6939 16.1192 54.5747 16.7071 54.5747 17.5929V30.2704C54.5747 30.8838 54.6389 31.3439 54.7669 31.6506C54.895 31.9573 55.1469 32.1618 55.5229 32.2641C55.8987 32.3663 56.4455 32.4347 57.1632 32.4686V32.9798C56.7186 32.9459 56.1548 32.9247 55.4718 32.9158C54.788 32.9075 54.0962 32.9031 53.3958 32.9031C52.7295 32.9031 52.1055 32.9075 51.525 32.9158C50.944 32.9247 50.4741 32.9459 50.1152 32.9798V32.4686C50.696 32.4347 51.1362 32.3663 51.4353 32.2641C51.7339 32.1618 51.9349 31.9573 52.0376 31.6506C52.1401 31.3439 52.1912 30.8838 52.1912 30.2704V17.5929C52.1912 16.9627 52.1401 16.4982 52.0376 16.2001C51.9349 15.902 51.7339 15.6975 51.4353 15.5867C51.1362 15.4758 50.696 15.4119 50.1152 15.3947V14.8838Z" fill="#756A68"/>
<path d="M81.9714 14.8838V15.3947C81.3904 15.4119 80.9505 15.497 80.6516 15.6506C80.3525 15.8037 80.152 16.0509 80.0495 16.3918C79.9468 16.7327 79.8956 17.2183 79.8956 17.8485V25.5421C79.8956 26.7348 79.8187 27.7744 79.6649 28.6601C79.5113 29.5464 79.2377 30.3132 78.845 30.9606C78.4176 31.6763 77.7941 32.2513 76.9739 32.6859C76.1538 33.1204 75.214 33.3376 74.155 33.3376C73.3348 33.3376 72.553 33.2393 71.8098 33.0436C71.0666 32.8481 70.4131 32.4858 69.8493 31.9574C69.3536 31.4806 68.9653 30.9778 68.6834 30.4494C68.4012 29.9214 68.2093 29.2739 68.1066 28.5068C68.0041 27.74 67.953 26.7776 67.953 25.6187V17.5929C67.953 16.9627 67.9016 16.4982 67.7991 16.2001C67.6966 15.902 67.4956 15.6975 67.197 15.5867C66.8976 15.4758 66.4577 15.4119 65.877 15.3947V14.8838C66.2358 14.901 66.7054 14.9179 67.2864 14.9349C67.8672 14.9521 68.491 14.9605 69.1575 14.9605C69.7552 14.9605 70.349 14.9521 70.9386 14.9349C71.5279 14.9179 72.019 14.901 72.4122 14.8838V15.3947C71.8312 15.4119 71.391 15.4758 71.0924 15.5867C70.7933 15.6975 70.5925 15.902 70.49 16.2001C70.3876 16.4982 70.3364 16.9627 70.3364 17.5929V26.0532C70.3364 26.9223 70.3787 27.7444 70.4642 28.5198C70.5498 29.2952 70.7248 29.9765 70.9899 30.5643C71.2546 31.1523 71.6602 31.6123 72.2072 31.9446C72.7538 32.2769 73.4798 32.4431 74.3855 32.4431C75.6839 32.4431 76.6876 32.1579 77.3969 31.5868C78.1057 31.016 78.6014 30.2282 78.8833 29.2227C79.1652 28.2173 79.306 27.0843 79.306 25.823V17.8485C79.306 17.2183 79.2333 16.7327 79.0883 16.3918C78.943 16.0509 78.6995 15.8037 78.3579 15.6506C78.016 15.497 77.5547 15.4119 76.9739 15.3947V14.8838C77.2814 14.901 77.6872 14.9179 78.1912 14.9349C78.6951 14.9521 79.1608 14.9605 79.5879 14.9605C80.0323 14.9605 80.4722 14.9521 80.908 14.9349C81.3437 14.9179 81.6979 14.901 81.9714 14.8838Z" fill="#756A68"/>
<path d="M91.4275 14.8838V15.3947C90.8465 15.4119 90.4065 15.4758 90.1085 15.5867C89.8089 15.6975 89.6082 15.902 89.5057 16.2001C89.4032 16.4982 89.3521 16.9627 89.3521 17.5929V30.2704C89.3521 30.8838 89.4032 31.3439 89.5057 31.6506C89.6082 31.9573 89.8089 32.1579 90.1085 32.2513C90.4065 32.3452 90.8465 32.3919 91.4275 32.3919H93.2985C94.1015 32.3919 94.7555 32.3069 95.2595 32.1363C95.7635 31.9662 96.1645 31.6978 96.4635 31.3311C96.7625 30.9649 96.9895 30.4749 97.1425 29.8615C97.2965 29.2482 97.4165 28.4984 97.5015 27.6124H98.0915C98.0405 28.1405 98.0145 28.839 98.0145 29.7084C98.0145 30.032 98.0275 30.4966 98.0525 31.1011C98.0785 31.7062 98.1255 32.3324 98.1935 32.9798C97.3225 32.9459 96.3395 32.9247 95.2465 32.9158C94.1525 32.9075 93.1785 32.9031 92.3245 32.9031C91.9485 32.9031 91.4665 32.9031 90.8765 32.9031C90.2875 32.9031 89.6507 32.9075 88.9677 32.9158C88.2839 32.9247 87.5921 32.933 86.8917 32.9414C86.191 32.9503 85.5247 32.9631 84.8926 32.9798V32.4686C85.4733 32.4347 85.9133 32.3663 86.2126 32.2641C86.5112 32.1618 86.7123 31.9573 86.8147 31.6506C86.9175 31.3439 86.9686 30.8838 86.9686 30.2704V17.5929C86.9686 16.9627 86.9175 16.4982 86.8147 16.2001C86.7123 15.902 86.5112 15.6975 86.2126 15.5867C85.9133 15.4758 85.4733 15.4119 84.8926 15.3947V14.8838C85.2514 14.901 85.7211 14.9179 86.3023 14.9349C86.8828 14.9521 87.5068 14.9604 88.1731 14.9604C88.7711 14.9604 89.3648 14.9521 89.9542 14.9349C90.5435 14.9179 91.0345 14.901 91.4275 14.8838Z" fill="#756A68"/>
<path d="M137.756 14.8838C137.688 15.5316 137.641 16.1576 137.615 16.7622C137.59 17.3673 137.577 17.8318 137.577 18.1552C137.577 18.5642 137.585 18.9478 137.603 19.3054C137.62 19.6632 137.636 19.9788 137.654 20.2511H137.064C136.945 19.0586 136.782 18.1169 136.577 17.4267C136.372 16.7366 136.014 16.2382 135.501 15.9315C134.988 15.6247 134.194 15.4714 133.118 15.4714H131.734V30.0148C131.734 30.6965 131.798 31.2077 131.926 31.5484C132.054 31.8896 132.306 32.1196 132.682 32.2385C133.058 32.358 133.605 32.4347 134.322 32.4686V32.9798C133.877 32.9459 133.314 32.9247 132.631 32.9158C131.947 32.9075 131.255 32.9031 130.555 32.9031C129.786 32.9031 129.064 32.9075 128.389 32.9158C127.714 32.9247 127.172 32.9459 126.762 32.9798V32.4686C127.48 32.4347 128.026 32.358 128.402 32.2385C128.777 32.1196 129.03 31.8896 129.158 31.5484C129.286 31.2077 129.35 30.6965 129.35 30.0148V15.4714H127.966C126.907 15.4714 126.117 15.6247 125.596 15.9315C125.074 16.2382 124.711 16.7366 124.506 17.4267C124.301 18.1169 124.139 19.0586 124.02 20.2511H123.43C123.464 19.9788 123.485 19.6632 123.494 19.3054C123.503 18.9478 123.507 18.5642 123.507 18.1552C123.507 17.8318 123.494 17.3673 123.469 16.7622C123.443 16.1576 123.396 15.5316 123.328 14.8838C124.045 14.901 124.827 14.9179 125.673 14.9349C126.518 14.9521 127.368 14.9604 128.223 14.9604C129.077 14.9604 129.854 14.9604 130.555 14.9604C131.255 14.9604 132.028 14.9604 132.874 14.9604C133.72 14.9604 134.57 14.9521 135.424 14.9349C136.278 14.9179 137.056 14.901 137.756 14.8838Z" fill="#756A68"/>
<path d="M144.804 23.9573C145.726 23.9918 146.452 24.0299 146.982 24.0724C147.511 24.1151 147.943 24.1533 148.276 24.1873C148.609 24.2217 148.93 24.264 149.237 24.3151C150.382 24.5028 151.206 24.848 151.71 25.3504C152.214 25.8532 152.586 26.6325 152.825 27.6891L153.466 30.296C153.637 31.0461 153.812 31.5868 153.991 31.9191C154.171 32.2513 154.448 32.4092 154.824 32.3919C155.115 32.3752 155.358 32.2813 155.555 32.1108C155.751 31.9407 155.961 31.7106 156.182 31.4206L156.567 31.7018C156.208 32.2302 155.837 32.6348 155.452 32.9159C155.068 33.1971 154.525 33.3376 153.825 33.3376C153.192 33.3376 152.637 33.1501 152.159 32.7753C151.68 32.4007 151.322 31.6679 151.082 30.5771L150.519 28.0211C150.365 27.2887 150.19 26.6539 149.993 26.1172C149.797 25.5804 149.523 25.1587 149.173 24.852C148.823 24.5452 148.306 24.3918 147.623 24.3918H144.855L144.804 23.9573ZM140.729 14.8838C141.088 14.901 141.557 14.9179 142.138 14.9349C142.719 14.9521 143.292 14.9605 143.855 14.9605C144.658 14.9605 145.427 14.9521 146.162 14.9349C146.896 14.9179 147.418 14.9093 147.725 14.9093C149.109 14.9093 150.258 15.1055 151.172 15.497C152.086 15.8892 152.77 16.4216 153.222 17.0945C153.675 17.7679 153.902 18.5219 153.902 19.3565C153.902 19.8677 153.799 20.4134 153.594 20.9924C153.389 21.572 153.034 22.117 152.531 22.6282C152.026 23.1394 151.339 23.5612 150.468 23.8934C149.596 24.2257 148.494 24.3918 147.161 24.3918H144.701V23.8806H146.905C148.118 23.8806 149.045 23.6889 149.686 23.3055C150.326 22.9221 150.762 22.411 150.993 21.7719C151.224 21.1329 151.339 20.4217 151.339 19.6377C151.339 18.2919 151.019 17.2481 150.378 16.5066C149.737 15.7654 148.639 15.3947 147.085 15.3947C146.299 15.3947 145.786 15.5397 145.547 15.8293C145.307 16.1193 145.188 16.7071 145.188 17.5929V30.2704C145.188 30.8839 145.239 31.3439 145.342 31.6507C145.444 31.9574 145.645 32.1619 145.944 32.2641C146.243 32.3664 146.683 32.4347 147.264 32.4686V32.9798C146.871 32.9459 146.38 32.9247 145.79 32.9159C145.201 32.9075 144.607 32.9031 144.009 32.9031C143.343 32.9031 142.719 32.9075 142.138 32.9159C141.557 32.9247 141.088 32.9459 140.729 32.9798V32.4686C141.309 32.4347 141.75 32.3664 142.049 32.2641C142.347 32.1619 142.549 31.9574 142.651 31.6507C142.754 31.3439 142.805 30.8839 142.805 30.2704V17.5929C142.805 16.9627 142.754 16.4982 142.651 16.2001C142.549 15.902 142.347 15.6975 142.049 15.5867C141.75 15.4758 141.309 15.4119 140.729 15.3947V14.8838Z" fill="#756A68"/>
<path d="M167.612 20.2511C167.543 21.2225 167.513 21.9636 167.522 22.4749C167.531 22.9861 167.535 23.4549 167.535 23.8805C167.535 24.3067 167.543 24.7752 167.56 25.2864C167.577 25.7973 167.62 26.5389 167.689 27.5102H167.099C167.031 26.9648 166.949 26.4324 166.856 25.9127C166.762 25.3929 166.557 24.9669 166.241 24.6347C165.924 24.3024 165.39 24.1362 164.639 24.1362V23.625C165.203 23.625 165.634 23.51 165.933 23.28C166.232 23.0499 166.449 22.7559 166.587 22.3982C166.723 22.0402 166.817 21.6697 166.869 21.2863C166.92 20.9029 166.971 20.5578 167.022 20.2511H167.612ZM166.869 23.625V24.1362H162.179V23.625H166.869ZM171.277 14.8838C171.208 15.4802 171.161 16.0595 171.136 16.6216C171.11 17.1842 171.097 17.6101 171.097 17.8996C171.097 18.2063 171.106 18.5003 171.123 18.7814C171.14 19.0626 171.157 19.297 171.174 19.4843H170.585C170.482 18.4791 170.337 17.6823 170.149 17.0945C169.961 16.5066 169.64 16.0893 169.188 15.8423C168.735 15.5953 168.056 15.4714 167.15 15.4714H165.023C164.442 15.4714 164.002 15.5186 163.703 15.6122C163.404 15.7059 163.204 15.902 163.101 16.2001C162.999 16.4982 162.947 16.9627 162.947 17.5929V30.2704C162.947 30.8838 162.999 31.3439 163.101 31.6506C163.204 31.9573 163.404 32.1579 163.703 32.2513C164.002 32.3452 164.442 32.3919 165.023 32.3919H166.894C167.971 32.3919 168.786 32.2474 169.342 31.9573C169.897 31.6679 170.298 31.195 170.546 30.5388C170.794 29.8831 170.978 28.9924 171.097 27.8678H171.687C171.635 28.3278 171.61 28.9413 171.61 29.7084C171.61 30.032 171.623 30.4966 171.648 31.1011C171.674 31.7062 171.72 32.3324 171.789 32.9798C170.918 32.9459 169.935 32.9247 168.842 32.9158C167.748 32.9075 166.774 32.9031 165.92 32.9031C165.544 32.9031 165.062 32.9031 164.472 32.9031C163.883 32.9031 163.246 32.9075 162.563 32.9158C161.88 32.9247 161.187 32.933 160.487 32.9414C159.786 32.9503 159.12 32.9631 158.488 32.9798V32.4686C159.069 32.4347 159.509 32.3663 159.808 32.2641C160.107 32.1618 160.308 31.9573 160.41 31.6506C160.513 31.3439 160.564 30.8838 160.564 30.2704V17.5929C160.564 16.9627 160.513 16.4982 160.41 16.2001C160.308 15.902 160.107 15.6975 159.808 15.5867C159.509 15.4758 159.069 15.4119 158.488 15.3947V14.8838C159.12 14.901 159.786 14.9135 160.487 14.9218C161.187 14.9307 161.88 14.9391 162.563 14.9474C163.246 14.9563 163.883 14.9604 164.472 14.9604C165.062 14.9604 165.544 14.9604 165.92 14.9604C166.706 14.9604 167.599 14.9563 168.598 14.9474C169.598 14.9391 170.491 14.9179 171.277 14.8838Z" fill="#756A68"/>
<path d="M184.372 20.2511C184.304 21.2225 184.274 21.9636 184.283 22.4749C184.291 22.9861 184.295 23.4549 184.295 23.8805C184.295 24.3067 184.304 24.7752 184.321 25.2864C184.338 25.7973 184.381 26.5389 184.449 27.5102H183.86C183.791 26.9648 183.71 26.4324 183.616 25.9127C183.522 25.3929 183.317 24.9669 183.001 24.6347C182.685 24.3024 182.151 24.1362 181.399 24.1362V23.625C181.963 23.625 182.394 23.51 182.694 23.28C182.992 23.0499 183.21 22.7559 183.347 22.3982C183.484 22.0402 183.578 21.6697 183.629 21.2863C183.68 20.9029 183.732 20.5578 183.783 20.2511H184.372ZM183.629 23.625V24.1362H178.939V23.625H183.629ZM188.037 14.8838C187.969 15.4802 187.922 16.0595 187.896 16.6216C187.871 17.1842 187.858 17.6101 187.858 17.8996C187.858 18.2063 187.866 18.5003 187.883 18.7814C187.9 19.0626 187.917 19.297 187.935 19.4843H187.345C187.243 18.4791 187.097 17.6823 186.909 17.0945C186.721 16.5066 186.401 16.0893 185.949 15.8423C185.496 15.5953 184.817 15.4714 183.911 15.4714H181.784C181.203 15.4714 180.763 15.5186 180.464 15.6122C180.165 15.7059 179.964 15.902 179.862 16.2001C179.759 16.4982 179.708 16.9627 179.708 17.5929V30.2704C179.708 30.8838 179.759 31.3439 179.862 31.6506C179.964 31.9573 180.165 32.1579 180.464 32.2513C180.763 32.3452 181.203 32.3919 181.784 32.3919H183.655C184.731 32.3919 185.547 32.2474 186.102 31.9573C186.657 31.6679 187.059 31.195 187.307 30.5388C187.554 29.8831 187.738 28.9924 187.858 27.8678H188.447C188.396 28.3278 188.37 28.9413 188.37 29.7084C188.37 30.032 188.383 30.4966 188.409 31.1011C188.434 31.7062 188.481 32.3324 188.55 32.9798C187.678 32.9459 186.696 32.9247 185.602 32.9158C184.509 32.9075 183.535 32.9031 182.681 32.9031C182.305 32.9031 181.822 32.9031 181.233 32.9031C180.643 32.9031 180.007 32.9075 179.324 32.9158C178.64 32.9247 177.948 32.933 177.248 32.9414C176.547 32.9503 175.881 32.9631 175.248 32.9798V32.4686C175.829 32.4347 176.269 32.3663 176.568 32.2641C176.867 32.1618 177.068 31.9573 177.171 31.6506C177.273 31.3439 177.325 30.8838 177.325 30.2704V17.5929C177.325 16.9627 177.273 16.4982 177.171 16.2001C177.068 15.902 176.867 15.6975 176.568 15.5867C176.269 15.4758 175.829 15.4119 175.248 15.3947V14.8838C175.881 14.901 176.547 14.9135 177.248 14.9218C177.948 14.9307 178.64 14.9391 179.324 14.9474C180.007 14.9563 180.643 14.9604 181.233 14.9604C181.822 14.9604 182.305 14.9604 182.681 14.9604C183.467 14.9604 184.359 14.9563 185.359 14.9474C186.359 14.9391 187.251 14.9179 188.037 14.8838Z" fill="#756A68"/>
<path d="M33.6853 37.8047V38.0155C33.4467 38.0211 33.2636 38.0488 33.1416 38.0932C33.0195 38.1376 32.9363 38.2208 32.8919 38.3484C32.8475 38.4705 32.8309 38.6646 32.8309 38.9254V44.1517C32.8309 44.4069 32.8531 44.5955 32.8919 44.7232C32.9307 44.8508 33.014 44.934 33.1416 44.9784C33.2636 45.0227 33.4467 45.0505 33.6853 45.0616V45.2724C33.5244 45.2558 33.3191 45.2502 33.0805 45.2447C32.8364 45.2447 32.5923 45.2447 32.3482 45.2447C32.1041 45.2447 31.8156 45.2447 31.577 45.2447C31.3384 45.2447 31.1443 45.2558 31 45.2724V45.0616C31.2386 45.0449 31.4217 45.0172 31.5437 44.9784C31.6658 44.934 31.749 44.8508 31.7934 44.7232C31.8378 44.5955 31.8544 44.4069 31.8544 44.1517V38.9254C31.8544 38.6646 31.8322 38.476 31.7934 38.3484C31.749 38.2263 31.6658 38.1431 31.5437 38.0932C31.4217 38.0488 31.2386 38.0211 31 38.0155V37.8047C31.1498 37.8102 31.3384 37.8213 31.577 37.8269C31.8156 37.8324 32.0708 37.838 32.3482 37.838C32.6256 37.838 32.8364 37.838 33.0805 37.8269C33.3247 37.8213 33.5244 37.8102 33.6853 37.8047Z" fill="black"/>
<path d="M37.9788 39.6914C38.2451 39.6914 38.467 39.7247 38.6501 39.7968C38.8277 39.8689 38.9775 39.9633 39.0995 40.0909C39.2327 40.2296 39.327 40.4071 39.3825 40.6179C39.438 40.8288 39.4657 41.1117 39.4657 41.4723V44.2852C39.4657 44.5793 39.5267 44.779 39.6488 44.8844C39.7708 44.9898 39.9761 45.0398 40.2646 45.0398V45.2617C40.1426 45.2561 39.965 45.245 39.7154 45.2339C39.4712 45.2228 39.2327 45.2173 38.9997 45.2173C38.7666 45.2173 38.5392 45.2173 38.3172 45.2339C38.0953 45.245 37.9289 45.2506 37.8179 45.2617V45.0398C38.0731 45.0398 38.2507 44.9843 38.3561 44.8844C38.4615 44.7846 38.517 44.5793 38.517 44.2852V41.2393C38.517 41.0229 38.5003 40.8232 38.4615 40.6401C38.4282 40.457 38.345 40.3072 38.2229 40.1963C38.1009 40.0853 37.9122 40.0298 37.657 40.0298C37.4018 40.0298 37.1022 40.1131 36.8803 40.285C36.6584 40.4515 36.4864 40.6845 36.3643 40.973C36.2423 41.2671 36.1812 41.5889 36.1812 41.9495V44.2908C36.1812 44.5848 36.2367 44.7846 36.3421 44.89C36.4475 44.9954 36.6251 45.0453 36.8803 45.0453V45.2672C36.7693 45.2617 36.6029 45.2506 36.381 45.2395C36.159 45.2284 35.9316 45.2229 35.6985 45.2229C35.4655 45.2229 35.227 45.2229 34.9828 45.2395C34.7387 45.2506 34.5556 45.2561 34.4336 45.2672V45.0453C34.7221 45.0453 34.9274 44.9898 35.0494 44.89C35.1715 44.7846 35.2325 44.5848 35.2325 44.2908V40.9897C35.2325 40.6734 35.177 40.4404 35.0661 40.2906C34.9551 40.1408 34.7443 40.0631 34.4336 40.0631V39.8412C34.6611 39.8634 34.8774 39.8745 35.0883 39.8745C35.2991 39.8745 35.4877 39.8634 35.6708 39.8357C35.8594 39.8135 36.0259 39.7746 36.1812 39.7247V40.9675C36.3643 40.4903 36.6195 40.1574 36.9469 39.9688C37.2742 39.7802 37.6182 39.6914 37.9733 39.6914H37.9788Z" fill="black"/>
<path d="M44.2705 37.0225C44.4647 37.0225 44.6534 37.0391 44.8309 37.0668C45.0084 37.0946 45.1693 37.1334 45.3136 37.1778C45.4634 37.2222 45.5854 37.2777 45.6797 37.3387C45.7907 37.4108 45.8795 37.4941 45.9461 37.5884C46.0071 37.6827 46.0404 37.7936 46.0404 37.9213C46.0404 38.1099 45.9738 38.2708 45.8406 38.4039C45.7075 38.5371 45.5466 38.6037 45.3691 38.6037C45.1915 38.6037 45.0306 38.5371 44.8919 38.4039C44.7588 38.2708 44.6922 38.1099 44.6922 37.9323C44.6922 37.7548 44.7255 37.6882 44.7865 37.5828C44.8475 37.4774 44.9363 37.3942 45.0417 37.3387C44.9529 37.2832 44.8364 37.2444 44.6922 37.2166C44.5535 37.1945 44.4092 37.1778 44.2705 37.1778C43.9044 37.1778 43.5992 37.2499 43.3551 37.3997C43.111 37.5495 42.9168 37.7437 42.7781 37.9878C42.6782 38.1654 42.6061 38.3873 42.5617 38.6647C42.5173 38.9366 42.4951 39.3305 42.4951 39.8464H44.1929C44.4758 39.8464 44.7144 39.8464 44.9197 39.8353C45.1249 39.8298 45.308 39.8187 45.4689 39.7965C45.6298 39.7799 45.7907 39.7521 45.9461 39.7188V44.2849C45.9461 44.579 46.0071 44.7787 46.1291 44.8841C46.2512 44.9895 46.4565 45.0395 46.745 45.0395V45.2614C46.6229 45.2558 46.4454 45.2447 46.2013 45.2336C45.9572 45.2225 45.713 45.217 45.4689 45.217C45.2248 45.217 44.9862 45.217 44.7421 45.2336C44.498 45.2447 44.3149 45.2503 44.1929 45.2614V45.0395C44.4814 45.0395 44.6866 44.984 44.8087 44.8841C44.9308 44.7787 44.9918 44.579 44.9918 44.2849V40.9838C44.9918 40.6676 44.9363 40.4345 44.8253 40.2847C44.7144 40.1349 44.5036 40.0573 44.1929 40.0573H42.4951V44.2849C42.4951 44.5845 42.5784 44.7898 42.7393 44.8897C42.9002 44.9895 43.1221 45.045 43.405 45.045V45.2669C43.2663 45.2614 43.0666 45.2503 42.8114 45.2392C42.5562 45.2281 42.2954 45.2225 42.0236 45.2225C41.7517 45.2225 41.5131 45.2225 41.2801 45.2392C41.0471 45.2503 40.8696 45.2558 40.7475 45.2669V45.045C41.036 45.045 41.2413 44.9895 41.3633 44.8897C41.4854 44.7842 41.5464 44.5845 41.5464 44.2905V40.0628H40.7031V39.852H41.5464C41.5464 39.4026 41.6019 38.9976 41.7184 38.6425C41.8349 38.2819 42.0291 37.9767 42.301 37.716C42.5062 37.5273 42.767 37.3664 43.0888 37.2333C43.4106 37.1001 43.8045 37.0336 44.2705 37.0336V37.0225Z" fill="black"/>
<path d="M50.8164 39.6914C51.0827 39.6914 51.3046 39.7247 51.4877 39.7968C51.6652 39.8689 51.815 39.9633 51.9371 40.0909C52.0702 40.2296 52.1646 40.4071 52.22 40.6179C52.2755 40.8288 52.3033 41.1117 52.3033 41.4723V44.2852C52.3033 44.5793 52.3643 44.779 52.4864 44.8844C52.6084 44.9898 52.8137 45.0398 53.1022 45.0398V45.2617C52.9801 45.2561 52.8026 45.245 52.5529 45.2339C52.3088 45.2228 52.0702 45.2173 51.8372 45.2173C51.6042 45.2173 51.3767 45.2173 51.1548 45.2339C50.9329 45.245 50.7664 45.2506 50.6555 45.2617V45.0398C50.9107 45.0398 51.0882 44.9843 51.1936 44.8844C51.2991 44.779 51.3545 44.5793 51.3545 44.2852V41.2393C51.3545 41.0229 51.3379 40.8232 51.2991 40.6401C51.2658 40.457 51.1825 40.3072 51.0605 40.1963C50.9384 40.0853 50.7498 40.0298 50.4946 40.0298C50.2394 40.0298 49.9398 40.1131 49.7179 40.285C49.4959 40.457 49.3239 40.6845 49.2019 40.973C49.0798 41.2671 49.0188 41.5889 49.0188 41.9495V44.2908C49.0188 44.5848 49.0687 44.7846 49.1741 44.89C49.2796 44.9954 49.4571 45.0453 49.7123 45.0453V45.2672C49.6013 45.2617 49.4349 45.2506 49.213 45.2395C48.9911 45.2284 48.7636 45.2229 48.5306 45.2229C48.2975 45.2229 48.059 45.2229 47.8149 45.2395C47.5707 45.2506 47.3877 45.2561 47.2656 45.2672V45.0453C47.5541 45.0453 47.7594 44.9898 47.8814 44.89C48.0035 44.7846 48.0645 44.5848 48.0645 44.2908V40.9897C48.0645 40.6734 48.009 40.4404 47.8981 40.2906C47.7871 40.1408 47.5763 40.0631 47.2656 40.0631V39.8412C47.4931 39.8634 47.7094 39.8745 47.9203 39.8745C48.1311 39.8745 48.3197 39.8634 48.5028 39.8357C48.6915 39.8135 48.8579 39.7746 49.0132 39.7247V40.9675C49.1963 40.4903 49.4515 40.1574 49.7789 39.9688C50.1062 39.7802 50.4502 39.6914 50.8053 39.6914H50.8164Z" fill="black"/>
<path d="M55.3157 39.7239V44.29C55.3157 44.584 55.3767 44.7838 55.4988 44.8892C55.6208 44.9946 55.8261 45.0445 56.1146 45.0445V45.2665C55.9926 45.2609 55.815 45.2498 55.5709 45.2387C55.3268 45.2276 55.0827 45.2221 54.8385 45.2221C54.5944 45.2221 54.3559 45.2221 54.1117 45.2387C53.8676 45.2498 53.6845 45.2554 53.5625 45.2665V45.0445C53.851 45.0445 54.0563 44.989 54.1783 44.8892C54.3004 44.7838 54.3614 44.584 54.3614 44.29V40.9889C54.3614 40.6726 54.3059 40.4396 54.195 40.2898C54.084 40.14 53.8732 40.0623 53.5625 40.0623V39.8404C53.79 39.8626 54.0063 39.8737 54.2172 39.8737C54.428 39.8737 54.6166 39.8626 54.7997 39.8349C54.9883 39.8127 55.1548 39.7738 55.3101 39.7239H55.3157ZM54.7664 37.2051C54.9495 37.2051 55.1049 37.2717 55.238 37.4048C55.3712 37.538 55.4377 37.6989 55.4377 37.8764C55.4377 38.0539 55.3712 38.2148 55.238 38.3535C55.1049 38.4867 54.944 38.5533 54.7664 38.5533C54.5889 38.5533 54.428 38.4867 54.2893 38.3535C54.1561 38.2204 54.0896 38.0595 54.0896 37.8764C54.0896 37.6933 54.1561 37.538 54.2893 37.4048C54.4224 37.2717 54.5833 37.2051 54.7664 37.2051Z" fill="black"/>
<path d="M58.3511 38.0879V39.8467H59.9101V40.0575H58.3511V44.1354C58.3511 44.4682 58.4121 44.6957 58.5286 44.8289C58.6507 44.962 58.8116 45.0286 59.0224 45.0286C59.2332 45.0286 59.4163 44.9454 59.5717 44.7678C59.727 44.5958 59.8602 44.3073 59.9711 43.8968L60.182 43.9523C60.1098 44.3573 59.9711 44.7068 59.7659 44.9842C59.5606 45.2672 59.2388 45.4059 58.8116 45.4059C58.3844 45.4059 58.3733 45.3781 58.2235 45.3171C58.0681 45.2561 57.9294 45.1728 57.8129 45.0563C57.6576 44.8954 57.5522 44.7013 57.4911 44.4793C57.4301 44.2519 57.4024 43.9578 57.4024 43.5805V40.0464H56.3926V39.8356H57.4024V38.2211C57.5799 38.2155 57.7463 38.1989 57.9072 38.1767C58.0681 38.1545 58.2179 38.1212 58.3511 38.0713V38.0879Z" fill="black"/>
<path d="M62.9501 39.6908C63.566 39.6908 64.0541 39.8794 64.3981 40.2567C64.7476 40.634 64.9196 41.2165 64.9196 42.0099H61.1968L61.1859 41.8102H63.9044C63.9211 41.4662 63.8878 41.1499 63.8212 40.8559C63.7491 40.5618 63.6381 40.3288 63.4883 40.1568C63.3385 39.9793 63.1442 39.8905 62.9057 39.8905C62.6671 39.8905 62.2954 40.0514 62.0457 40.3732C61.796 40.695 61.6463 41.211 61.5964 41.91L61.6296 41.9544C61.613 42.0598 61.6075 42.1763 61.5964 42.3039C61.5909 42.4315 61.5853 42.5591 61.5853 42.6812C61.5853 43.1583 61.663 43.5689 61.8183 43.9129C61.9737 44.2569 62.1733 44.5176 62.423 44.7007C62.6726 44.8782 62.928 44.967 63.1998 44.967C63.4717 44.967 63.6104 44.9337 63.799 44.8672C63.9876 44.8006 64.1651 44.6896 64.326 44.5343C64.4869 44.3789 64.6257 44.1736 64.7477 43.9129L64.9585 43.9961C64.8808 44.2291 64.7533 44.451 64.5813 44.673C64.4037 44.8893 64.1818 45.0669 63.9155 45.2056C63.6492 45.3443 63.3385 45.4109 62.989 45.4109C62.4841 45.4109 62.0514 45.2944 61.6852 45.0613C61.3246 44.8283 61.0471 44.5065 60.853 44.096C60.6588 43.6854 60.5645 43.2138 60.5645 42.6757C60.5645 42.1375 60.6643 41.5272 60.8585 41.0778C61.0527 40.634 61.3301 40.29 61.6907 40.0459C62.0514 39.8017 62.4674 39.6797 62.9445 39.6797L62.9501 39.6908Z" fill="black"/>
<path d="M71.1732 37.8047V38.0155C70.9347 38.0211 70.7516 38.0488 70.6295 38.0932C70.5075 38.1376 70.4242 38.2208 70.3799 38.3484C70.3355 38.4705 70.3188 38.6646 70.3188 38.9254V44.1517C70.3188 44.4069 70.341 44.5955 70.3799 44.7232C70.4242 44.8508 70.5019 44.934 70.6295 44.9784C70.7516 45.0227 70.9347 45.0505 71.1732 45.0616V45.2724C71.0123 45.2558 70.8071 45.2502 70.5685 45.2447C70.3244 45.2447 70.0803 45.2447 69.8361 45.2447C69.592 45.2447 69.3035 45.2447 69.065 45.2447C68.8264 45.2447 68.6322 45.2558 68.4824 45.2724V45.0616C68.721 45.0449 68.9041 45.0172 69.0261 44.9784C69.1482 44.934 69.2314 44.8508 69.2758 44.7232C69.3202 44.5955 69.3368 44.4069 69.3368 44.1517V38.9254C69.3368 38.6646 69.3146 38.476 69.2758 38.3484C69.2314 38.2263 69.1537 38.1431 69.0261 38.0932C68.9041 38.0488 68.721 38.0211 68.4824 38.0155V37.8047C68.6322 37.8102 68.8208 37.8213 69.065 37.8269C69.3035 37.8324 69.5587 37.838 69.8361 37.838C70.1136 37.838 70.3244 37.838 70.5685 37.8269C70.8126 37.8213 71.0123 37.8102 71.1732 37.8047Z" fill="black"/>
<path d="M75.4612 39.6914C75.7275 39.6914 75.9494 39.7247 76.1325 39.7968C76.31 39.8689 76.4599 39.9633 76.5819 40.0909C76.7151 40.2296 76.8094 40.4071 76.8649 40.6179C76.9203 40.8288 76.9481 41.1117 76.9481 41.4723V44.2852C76.9481 44.5793 77.0091 44.779 77.1312 44.8844C77.2532 44.9898 77.4585 45.0398 77.747 45.0398V45.2617C77.625 45.2561 77.4474 45.245 77.1977 45.2339C76.9536 45.2228 76.7151 45.2173 76.482 45.2173C76.249 45.2173 76.0215 45.2173 75.7996 45.2339C75.5777 45.245 75.4113 45.2506 75.3003 45.2617V45.0398C75.5555 45.0398 75.7331 44.9843 75.8385 44.8844C75.9439 44.7846 75.9994 44.5793 75.9994 44.2852V41.2393C75.9994 41.0229 75.9827 40.8232 75.9439 40.6401C75.9106 40.457 75.8274 40.3072 75.7053 40.1963C75.5833 40.0853 75.3946 40.0298 75.1394 40.0298C74.8842 40.0298 74.5846 40.1131 74.3627 40.285C74.1407 40.4515 73.9688 40.6845 73.8467 40.973C73.7246 41.2671 73.6636 41.5889 73.6636 41.9495V44.2908C73.6636 44.5848 73.7191 44.7846 73.8245 44.89C73.9299 44.9954 74.1075 45.0453 74.3627 45.0453V45.2672C74.2517 45.2617 74.0853 45.2506 73.8633 45.2395C73.6414 45.2284 73.4139 45.2229 73.1809 45.2229C72.9479 45.2229 72.7093 45.2229 72.4652 45.2395C72.2211 45.2506 72.038 45.2561 71.916 45.2672V45.0453C72.2045 45.0453 72.4097 44.9898 72.5318 44.89C72.6539 44.7846 72.7149 44.5848 72.7149 44.2908V40.9897C72.7149 40.6734 72.6594 40.4404 72.5484 40.2906C72.4375 40.1408 72.2267 40.0631 71.916 40.0631V39.8412C72.1434 39.8634 72.3598 39.8745 72.5706 39.8745C72.7815 39.8745 72.9701 39.8634 73.1532 39.8357C73.3418 39.8135 73.5083 39.7746 73.6636 39.7247V40.9675C73.8467 40.4903 74.1019 40.1574 74.4292 39.9688C74.7566 39.7802 75.1006 39.6914 75.4556 39.6914H75.4612Z" fill="black"/>
<path d="M80.7939 39.6908C81.1046 39.6908 81.3931 39.7629 81.665 39.9127C81.9368 40.0625 82.1144 40.3122 82.2087 40.6728L82.07 40.7782C81.9701 40.4842 81.8203 40.2678 81.6095 40.1347C81.4042 40.0015 81.1601 39.9349 80.8771 39.9349C80.461 39.9349 80.117 40.1513 79.8396 40.5785C79.5622 41.0057 79.4291 41.6659 79.4346 42.5592C79.4346 43.1306 79.4901 43.6022 79.5955 43.9795C79.7065 44.3568 79.8674 44.6342 80.0782 44.8228C80.2946 45.0114 80.5553 45.1002 80.866 45.1002C81.1767 45.1002 81.4264 44.9726 81.665 44.7229C81.9035 44.4677 82.0478 44.096 82.0977 43.6078L82.2253 43.7576C82.1698 44.2902 81.9979 44.7008 81.7149 44.9893C81.4319 45.2778 81.0436 45.422 80.5609 45.422C80.0782 45.422 79.7453 45.3166 79.418 45.1058C79.0907 44.8949 78.841 44.5787 78.669 44.157C78.497 43.7354 78.4082 43.2028 78.4082 42.5647C78.4082 41.9267 78.5192 41.3941 78.7411 40.9669C78.963 40.5397 79.2515 40.2234 79.6177 40.0126C79.9783 39.8018 80.3723 39.6964 80.7939 39.6964V39.6908ZM83.0076 37V44.1126C83.0076 44.4289 83.0631 44.6619 83.1796 44.8117C83.2961 44.9615 83.5069 45.0392 83.8065 45.0392V45.2611C83.5902 45.2389 83.3682 45.2278 83.1518 45.2278C82.9355 45.2278 82.7524 45.2389 82.5693 45.2611C82.3807 45.2833 82.2142 45.3221 82.0589 45.3776V38.265C82.0589 37.9487 82.0034 37.7157 81.8924 37.5659C81.7815 37.4161 81.5706 37.3384 81.26 37.3384V37.1165C81.4874 37.1387 81.7038 37.1498 81.9146 37.1498C82.1255 37.1498 82.3141 37.1387 82.4972 37.111C82.6858 37.0888 82.8523 37.0499 83.0076 37Z" fill="black"/>
<path d="M86.0872 39.7239V44.29C86.0872 44.584 86.1482 44.7838 86.2703 44.8892C86.3923 44.9946 86.5976 45.0445 86.8861 45.0445V45.2665C86.764 45.2609 86.5865 45.2498 86.3424 45.2387C86.0983 45.2276 85.8542 45.2221 85.61 45.2221C85.3659 45.2221 85.1274 45.2221 84.8832 45.2387C84.6391 45.2498 84.456 45.2554 84.334 45.2665V45.0445C84.6225 45.0445 84.8278 44.989 84.9498 44.8892C85.0719 44.7838 85.1329 44.584 85.1329 44.29V40.9889C85.1329 40.6726 85.0774 40.4396 84.9665 40.2898C84.8555 40.14 84.6447 40.0623 84.334 40.0623V39.8404C84.5615 39.8626 84.7778 39.8737 84.9887 39.8737C85.1995 39.8737 85.3881 39.8626 85.5712 39.8349C85.7598 39.8127 85.9263 39.7738 86.0816 39.7239H86.0872ZM85.5379 37.2051C85.721 37.2051 85.8764 37.2717 86.0095 37.4048C86.1427 37.538 86.2092 37.6989 86.2092 37.8764C86.2092 38.0539 86.1427 38.2148 86.0095 38.3535C85.8764 38.4867 85.7155 38.5533 85.5379 38.5533C85.3604 38.5533 85.1995 38.4867 85.0608 38.3535C84.9276 38.2204 84.8611 38.0595 84.8611 37.8764C84.8611 37.6933 84.9276 37.538 85.0608 37.4048C85.1939 37.2717 85.3548 37.2051 85.5379 37.2051Z" fill="black"/>
<path d="M88.9222 45.3391C88.6337 45.3391 88.3841 45.2836 88.1733 45.1782C87.9624 45.0672 87.8015 44.9174 87.6961 44.7177C87.5852 44.5235 87.5352 44.2905 87.5352 44.0297C87.5352 43.7689 87.6074 43.4693 87.7516 43.2696C87.8959 43.0754 88.0789 42.9145 88.3064 42.798C88.5339 42.676 88.7669 42.5761 89.0166 42.4984C89.2662 42.4152 89.5048 42.3431 89.7267 42.2654C89.9542 42.1933 90.1372 42.1045 90.2812 42.0047C90.4262 41.9048 90.4982 41.7772 90.4982 41.6163V40.9616C90.4982 40.6676 90.4532 40.4401 90.3652 40.2847C90.2762 40.1294 90.1592 40.024 90.0092 39.9741C89.8599 39.9241 89.699 39.8964 89.5159 39.8964C89.3328 39.8964 89.1497 39.9186 88.95 39.9685C88.7503 40.0184 88.5894 40.1183 88.4729 40.2736C88.606 40.3014 88.7224 40.3735 88.8223 40.4845C88.9222 40.5954 88.9722 40.7397 88.9722 40.9172C88.9722 41.0948 88.9166 41.2335 88.8056 41.3333C88.6947 41.4332 88.5505 41.4887 88.373 41.4887C88.1955 41.4887 88.0179 41.4221 87.9236 41.2945C87.8293 41.1669 87.7794 41.0171 87.7794 40.8562C87.7794 40.6953 87.8237 40.5233 87.9181 40.4124C88.0068 40.3014 88.1233 40.196 88.2676 40.0961C88.4285 39.9851 88.6393 39.8853 88.8945 39.8076C89.1497 39.7244 89.4382 39.6855 89.7656 39.6855C90.0932 39.6855 90.2982 39.7188 90.5032 39.7854C90.7092 39.852 90.8752 39.9463 91.0082 40.0739C91.1912 40.2404 91.3082 40.4456 91.3692 40.6898C91.4242 40.9339 91.4522 41.2224 91.4522 41.5608V44.4902C91.4522 44.6677 91.4802 44.7898 91.5302 44.8675C91.5852 44.9451 91.6632 44.984 91.7792 44.984C91.8962 44.984 91.9292 44.9673 92.0012 44.934C92.0732 44.9008 92.1571 44.8453 92.2561 44.7676L92.3732 44.9451C92.2232 45.0561 92.0841 45.1504 91.9511 45.2225C91.8181 45.2947 91.6412 45.3335 91.4132 45.3335C91.1862 45.3335 91.0411 45.3002 90.9081 45.2281C90.7751 45.156 90.6752 45.0561 90.6092 44.9174C90.5422 44.7787 90.5092 44.6067 90.5092 44.3959C90.3202 44.7121 90.0932 44.9451 89.8266 45.1005C89.5603 45.2558 89.2661 45.3335 88.9333 45.3335L88.9222 45.3391ZM89.2995 44.9174C89.5325 44.9174 89.7489 44.8508 89.9487 44.7177C90.1482 44.5845 90.3311 44.3848 90.4921 44.1185V42.0546C90.4091 42.1766 90.2872 42.2765 90.1262 42.3542C89.9653 42.4374 89.7878 42.5151 89.5991 42.5983C89.4105 42.6815 89.2274 42.7758 89.0554 42.8813C88.8834 42.9922 88.7392 43.1309 88.6282 43.3085C88.5173 43.486 88.4618 43.7135 88.4618 43.9909C88.4618 44.2683 88.5394 44.4957 88.6892 44.6677C88.839 44.8342 89.0443 44.9229 89.3051 44.9229L89.2995 44.9174Z" fill="black"/>
<path d="M93.6983 44.0684C93.8813 44.0684 94.0363 44.1349 94.1753 44.2681C94.3083 44.4013 94.3753 44.5621 94.3753 44.7397C94.3753 44.9172 94.3083 45.0781 94.1753 45.2113C94.0423 45.3444 93.8813 45.411 93.6983 45.411C93.5153 45.411 93.3603 45.3444 93.2263 45.2113C93.0933 45.0781 93.0273 44.9172 93.0273 44.7397C93.0273 44.5621 93.0933 44.4013 93.2263 44.2681C93.3603 44.1349 93.5203 44.0684 93.6983 44.0684Z" fill="black"/>
<path d="M98.0918 45.2666V45.0557C98.3308 45.0391 98.5138 45.0113 98.6358 44.9725C98.7578 44.9281 98.8408 44.8449 98.8848 44.7173C98.9298 44.5897 98.9458 44.4011 98.9458 44.1458V38.9195C98.9458 38.6588 98.9238 38.4701 98.8848 38.3425C98.8408 38.2205 98.7628 38.1373 98.6358 38.0873C98.5138 38.0429 98.3308 38.0152 98.0918 38.0097V37.7988C98.2418 37.8044 98.4298 37.8155 98.6748 37.821C98.9128 37.8266 99.1678 37.8321 99.4458 37.8321C99.7228 37.8321 99.9338 37.8321 100.178 37.821C100.422 37.8155 100.622 37.8044 100.783 37.7988V38.0097C100.544 38.0152 100.361 38.0429 100.239 38.0873C100.117 38.1317 100.034 38.2149 99.9888 38.3425C99.9448 38.4646 99.9278 38.6588 99.9278 38.9195V44.1458C99.9278 44.4011 99.9508 44.5897 99.9888 44.7173C100.034 44.8449 100.112 44.9281 100.239 44.9725C100.361 45.0169 100.544 45.0446 100.783 45.0557V45.2666C100.622 45.2499 100.417 45.2444 100.178 45.2388C99.9338 45.2388 99.6898 45.2388 99.4458 45.2388C99.2018 45.2388 98.9128 45.2388 98.6748 45.2388C98.4358 45.2388 98.2418 45.2499 98.0918 45.2666ZM99.5568 41.6215V41.4106H103.723V41.6215H99.5568ZM102.497 45.2666V45.0557C102.736 45.0391 102.919 45.0113 103.041 44.9725C103.163 44.9281 103.246 44.8449 103.291 44.7173C103.335 44.5897 103.352 44.4011 103.352 44.1458V38.9195C103.352 38.6588 103.329 38.4701 103.291 38.3425C103.246 38.2205 103.169 38.1373 103.041 38.0873C102.919 38.0429 102.736 38.0152 102.497 38.0097V37.7988C102.658 37.8044 102.863 37.8155 103.108 37.821C103.352 37.8266 103.596 37.8321 103.834 37.8321C104.073 37.8321 104.367 37.8321 104.606 37.821C104.844 37.8155 105.038 37.8044 105.188 37.7988V38.0097C104.949 38.0152 104.766 38.0429 104.644 38.0873C104.522 38.1317 104.439 38.2149 104.395 38.3425C104.35 38.4646 104.334 38.6588 104.334 38.9195V44.1458C104.334 44.4011 104.356 44.5897 104.395 44.7173C104.439 44.8449 104.517 44.9281 104.644 44.9725C104.766 45.0169 104.949 45.0446 105.188 45.0557V45.2666C105.038 45.2499 104.85 45.2444 104.606 45.2388C104.367 45.2388 104.112 45.2388 103.834 45.2388C103.557 45.2388 103.352 45.2388 103.108 45.2388C102.863 45.2388 102.658 45.2499 102.497 45.2666Z" fill="black"/>
<path d="M107.381 45.3391C107.092 45.3391 106.842 45.2836 106.632 45.1782C106.421 45.0672 106.26 44.9174 106.154 44.7177C106.043 44.5235 105.994 44.2905 105.994 44.0297C105.994 43.7689 106.066 43.4693 106.21 43.2696C106.354 43.0754 106.537 42.9145 106.765 42.798C106.992 42.676 107.225 42.5761 107.475 42.4984C107.725 42.4152 107.963 42.3431 108.185 42.2654C108.413 42.1933 108.596 42.1045 108.74 42.0047C108.884 41.9048 108.956 41.7772 108.956 41.6163V40.9616C108.956 40.6676 108.912 40.4401 108.823 40.2847C108.734 40.1294 108.618 40.024 108.468 39.9741C108.318 39.9186 108.157 39.8964 107.974 39.8964C107.791 39.8964 107.608 39.9186 107.408 39.9685C107.209 40.0184 107.048 40.1183 106.931 40.2736C107.064 40.3014 107.181 40.3735 107.281 40.4845C107.381 40.5954 107.431 40.7397 107.431 40.9172C107.431 41.0948 107.375 41.2335 107.264 41.3333C107.153 41.4332 107.009 41.4887 106.831 41.4887C106.654 41.4887 106.476 41.4221 106.382 41.2945C106.288 41.1669 106.238 41.0171 106.238 40.8562C106.238 40.6953 106.282 40.5233 106.376 40.4124C106.465 40.3014 106.582 40.196 106.726 40.0961C106.887 39.9851 107.098 39.8853 107.353 39.8076C107.608 39.7244 107.897 39.6855 108.224 39.6855C108.551 39.6855 108.756 39.7188 108.962 39.7854C109.167 39.852 109.333 39.9463 109.467 40.0739C109.65 40.2404 109.766 40.4456 109.827 40.6898C109.883 40.9339 109.91 41.2224 109.91 41.5608V44.4902C109.91 44.6677 109.938 44.7898 109.988 44.8675C110.044 44.9451 110.121 44.984 110.238 44.984C110.354 44.984 110.388 44.9673 110.46 44.934C110.532 44.9008 110.615 44.8453 110.715 44.7676L110.831 44.9451C110.682 45.0561 110.543 45.1504 110.41 45.2225C110.277 45.2947 110.099 45.3335 109.872 45.3335C109.644 45.3335 109.5 45.3002 109.367 45.2281C109.234 45.156 109.134 45.0561 109.067 44.9174C109.001 44.7787 108.967 44.6067 108.967 44.3959C108.779 44.7121 108.551 44.9451 108.285 45.1005C108.019 45.2558 107.725 45.3335 107.392 45.3335L107.381 45.3391ZM107.758 44.9174C107.991 44.9174 108.207 44.8508 108.407 44.7177C108.607 44.5845 108.79 44.3848 108.951 44.1185V42.0546C108.867 42.1766 108.745 42.2765 108.585 42.3542C108.424 42.4374 108.246 42.5151 108.057 42.5983C107.869 42.6815 107.686 42.7758 107.514 42.8813C107.342 42.9922 107.197 43.1309 107.087 43.3085C106.976 43.486 106.92 43.7135 106.92 43.9909C106.92 44.2683 106.998 44.4957 107.148 44.6677C107.297 44.8342 107.503 44.9229 107.763 44.9229L107.758 44.9174Z" fill="black"/>
<path d="M114.675 39.6914C114.942 39.6914 115.164 39.7247 115.347 39.7968C115.524 39.8689 115.674 39.9633 115.796 40.0909C115.929 40.2296 116.023 40.4071 116.079 40.6179C116.134 40.8288 116.162 41.1117 116.162 41.4723V44.2852C116.162 44.5793 116.223 44.779 116.345 44.8844C116.467 44.9898 116.673 45.0398 116.961 45.0398V45.2617C116.839 45.2561 116.662 45.245 116.412 45.2339C116.168 45.2228 115.929 45.2173 115.696 45.2173C115.463 45.2173 115.236 45.2173 115.014 45.2339C114.792 45.245 114.625 45.2506 114.514 45.2617V45.0398C114.77 45.0398 114.947 44.9843 115.053 44.8844C115.158 44.779 115.208 44.5793 115.208 44.2852V41.2393C115.208 41.0229 115.191 40.8232 115.152 40.6401C115.119 40.457 115.036 40.3072 114.914 40.1963C114.792 40.0853 114.603 40.0298 114.348 40.0298C114.093 40.0298 113.793 40.1131 113.571 40.285C113.349 40.4515 113.177 40.6845 113.055 40.973C112.933 41.2671 112.872 41.5889 112.872 41.9495V44.2908C112.872 44.5848 112.928 44.7846 113.033 44.89C113.138 44.9954 113.316 45.0453 113.571 45.0453V45.2672C113.46 45.2617 113.294 45.2506 113.072 45.2395C112.85 45.2284 112.622 45.2229 112.389 45.2229C112.156 45.2229 111.918 45.2229 111.674 45.2395C111.43 45.2506 111.247 45.2561 111.125 45.2672V45.0453C111.413 45.0453 111.618 44.9898 111.74 44.89C111.862 44.7846 111.923 44.5848 111.923 44.2908V40.9897C111.923 40.6734 111.868 40.4404 111.757 40.2906C111.646 40.1408 111.435 40.0631 111.125 40.0631V39.8412C111.352 39.8634 111.568 39.8745 111.779 39.8745C111.99 39.8745 112.179 39.8634 112.362 39.8357C112.55 39.8135 112.717 39.7746 112.872 39.7247V40.9675C113.055 40.4903 113.31 40.1574 113.638 39.9688C113.965 39.7802 114.309 39.6914 114.664 39.6914H114.675Z" fill="black"/>
<path d="M120.007 39.6908C120.318 39.6908 120.606 39.7629 120.878 39.9127C121.15 40.0625 121.327 40.3122 121.422 40.6728L121.283 40.7782C121.183 40.4842 121.033 40.2678 120.823 40.1347C120.617 40.0015 120.373 39.9349 120.09 39.9349C119.674 39.9349 119.33 40.1513 119.053 40.5785C118.775 41.0057 118.642 41.6659 118.648 42.5592C118.648 43.1306 118.703 43.6022 118.809 43.9795C118.92 44.3568 119.08 44.6342 119.291 44.8228C119.508 45.0114 119.768 45.1002 120.079 45.1002C120.39 45.1002 120.639 44.9726 120.878 44.7229C121.117 44.4677 121.261 44.096 121.311 43.6078L121.438 43.7576C121.383 44.2902 121.211 44.7008 120.928 44.9893C120.645 45.2778 120.257 45.422 119.774 45.422C119.291 45.422 118.958 45.3166 118.631 45.1058C118.304 44.8949 118.054 44.5787 117.882 44.157C117.71 43.7354 117.621 43.2028 117.621 42.5647C117.621 41.9267 117.732 41.3941 117.954 40.9669C118.176 40.5397 118.465 40.2234 118.831 40.0126C119.191 39.8018 119.585 39.6964 120.007 39.6964V39.6908ZM122.221 37V44.1126C122.221 44.4289 122.276 44.6619 122.393 44.8117C122.509 44.9615 122.72 45.0392 123.02 45.0392V45.2611C122.803 45.2389 122.581 45.2278 122.365 45.2278C122.149 45.2278 121.965 45.2389 121.782 45.2611C121.594 45.2833 121.427 45.3221 121.272 45.3776V38.265C121.272 37.9487 121.216 37.7157 121.106 37.5659C120.995 37.4161 120.784 37.3384 120.473 37.3384V37.1165C120.701 37.1387 120.917 37.1498 121.128 37.1498C121.339 37.1498 121.527 37.1387 121.71 37.111C121.899 37.0888 122.065 37.0499 122.221 37Z" fill="black"/>
<path d="M126.189 39.6914C126.416 39.6914 126.632 39.7191 126.843 39.7746C127.054 39.8301 127.243 39.9133 127.415 40.0298C127.576 40.1353 127.698 40.2573 127.786 40.396C127.87 40.5347 127.914 40.6845 127.914 40.8454C127.914 41.0063 127.859 41.1783 127.753 41.2837C127.648 41.3836 127.515 41.4391 127.354 41.4391C127.193 41.4391 127.065 41.3947 126.949 41.3004C126.832 41.2116 126.777 41.0784 126.777 40.912C126.777 40.7455 126.821 40.6179 126.91 40.5236C126.999 40.4238 127.104 40.3627 127.221 40.335C127.148 40.2074 127.026 40.102 126.849 40.0187C126.671 39.9355 126.477 39.8911 126.272 39.8911C126.067 39.8911 125.922 39.9355 125.745 40.0187C125.567 40.102 125.406 40.2407 125.262 40.4348C125.112 40.629 124.996 40.8898 124.901 41.2227C124.813 41.5556 124.763 41.9717 124.763 42.471C124.763 42.9703 124.835 43.5806 124.974 43.9468C125.112 44.313 125.301 44.5737 125.528 44.7346C125.756 44.8955 126.005 44.9732 126.283 44.9732C126.56 44.9732 126.649 44.9399 126.843 44.8678C127.032 44.7956 127.215 44.6847 127.381 44.5238C127.548 44.3629 127.692 44.1521 127.814 43.8858L128.014 43.9579C127.942 44.1854 127.825 44.4073 127.664 44.6403C127.503 44.8678 127.293 45.0564 127.032 45.2062C126.771 45.356 126.455 45.4281 126.072 45.4281C125.689 45.4281 125.245 45.3172 124.89 45.0897C124.541 44.8622 124.258 44.546 124.053 44.1243C123.847 43.7082 123.742 43.2089 123.742 42.6319C123.742 42.0549 123.847 41.55 124.053 41.1062C124.258 40.6679 124.552 40.3239 124.924 40.0742C125.295 39.8246 125.723 39.7025 126.2 39.7025L126.189 39.6914Z" fill="black"/>
<path d="M131.953 39.6914C132.142 39.6914 132.308 39.7302 132.452 39.8079C132.597 39.8856 132.708 39.9855 132.791 40.1075C132.874 40.2296 132.913 40.3683 132.913 40.5236C132.913 40.679 132.857 40.8565 132.752 40.9897C132.641 41.1228 132.497 41.1894 132.314 41.1894C132.131 41.1894 132.036 41.1395 131.925 41.0451C131.814 40.9508 131.759 40.8177 131.759 40.6401C131.759 40.4626 131.798 40.3905 131.87 40.2961C131.942 40.2018 132.025 40.1242 132.12 40.0687C132.07 39.9965 131.997 39.9633 131.898 39.9633C131.681 39.9633 131.482 40.0298 131.298 40.1574C131.115 40.285 130.96 40.457 130.832 40.6568C130.705 40.862 130.605 41.0784 130.538 41.3059C130.466 41.5334 130.433 41.7497 130.433 41.9439V44.1798C130.433 44.5238 130.533 44.7568 130.733 44.8678C130.932 44.9843 131.204 45.0398 131.548 45.0398V45.2617C131.387 45.2561 131.16 45.245 130.86 45.2339C130.566 45.2228 130.25 45.2173 129.922 45.2173C129.595 45.2173 129.445 45.2173 129.212 45.2339C128.979 45.245 128.802 45.2506 128.68 45.2617V45.0398C128.968 45.0398 129.173 44.9843 129.296 44.8844C129.418 44.779 129.479 44.5793 129.479 44.2852V40.9841C129.479 40.6679 129.423 40.4348 129.312 40.285C129.201 40.1353 128.99 40.0576 128.68 40.0576V39.8357C128.907 39.8578 129.124 39.8689 129.334 39.8689C129.545 39.8689 129.734 39.8578 129.917 39.8301C130.106 39.8079 130.272 39.7691 130.427 39.7191V41.0396C130.505 40.8343 130.616 40.629 130.76 40.4238C130.905 40.2185 131.076 40.0409 131.282 39.9022C131.487 39.7635 131.709 39.6914 131.959 39.6914H131.953Z" fill="black"/>
<path d="M134.86 45.3391C134.572 45.3391 134.322 45.2836 134.111 45.1782C133.9 45.0672 133.74 44.9174 133.634 44.7177C133.523 44.5235 133.473 44.2905 133.473 44.0297C133.473 43.7689 133.545 43.4693 133.69 43.2696C133.834 43.0754 134.017 42.9145 134.244 42.798C134.472 42.676 134.705 42.5761 134.955 42.4984C135.204 42.4152 135.443 42.3431 135.665 42.2654C135.892 42.1933 136.075 42.1045 136.22 42.0047C136.364 41.9048 136.436 41.7772 136.436 41.6163V40.9616C136.436 40.6676 136.392 40.4401 136.303 40.2847C136.214 40.1294 136.097 40.024 135.948 39.9741C135.798 39.9186 135.637 39.8964 135.454 39.8964C135.271 39.8964 135.088 39.9186 134.888 39.9685C134.688 40.0184 134.527 40.1183 134.411 40.2736C134.544 40.3014 134.661 40.3735 134.76 40.4845C134.86 40.5954 134.91 40.7397 134.91 40.9172C134.91 41.0948 134.855 41.2335 134.744 41.3333C134.633 41.4332 134.489 41.4887 134.311 41.4887C134.133 41.4887 133.956 41.4221 133.862 41.2945C133.767 41.1669 133.717 41.0171 133.717 40.8562C133.717 40.6953 133.762 40.5233 133.856 40.4124C133.945 40.3014 134.061 40.196 134.206 40.0961C134.366 39.9851 134.577 39.8853 134.833 39.8076C135.088 39.7244 135.376 39.6855 135.704 39.6855C136.031 39.6855 136.236 39.7188 136.441 39.7854C136.647 39.852 136.813 39.9463 136.946 40.0739C137.129 40.2404 137.246 40.4456 137.307 40.6898C137.362 40.9339 137.39 41.2224 137.39 41.5608V44.4902C137.39 44.6677 137.418 44.7898 137.468 44.8675C137.523 44.9451 137.601 44.984 137.718 44.984C137.834 44.984 137.867 44.9673 137.939 44.934C138.012 44.9008 138.095 44.8453 138.195 44.7676L138.311 44.9451C138.161 45.0561 138.023 45.1504 137.89 45.2225C137.756 45.2947 137.579 45.3335 137.351 45.3335C137.124 45.3335 136.98 45.3002 136.846 45.2281C136.713 45.156 136.613 45.0561 136.547 44.9174C136.48 44.7787 136.447 44.6067 136.447 44.3959C136.258 44.7121 136.031 44.9451 135.765 45.1005C135.498 45.2558 135.204 45.3335 134.871 45.3335L134.86 45.3391ZM135.238 44.9174C135.471 44.9174 135.687 44.8508 135.887 44.7177C136.086 44.5845 136.269 44.3848 136.43 44.1185V42.0546C136.347 42.1766 136.225 42.2765 136.064 42.3542C135.903 42.4374 135.726 42.5151 135.537 42.5983C135.348 42.6815 135.165 42.7758 134.993 42.8813C134.821 42.9922 134.677 43.1309 134.566 43.3085C134.455 43.486 134.4 43.7135 134.4 43.9909C134.4 44.2683 134.477 44.4957 134.627 44.6677C134.777 44.8342 134.982 44.9229 135.243 44.9229L135.238 44.9174Z" fill="black"/>
<path d="M141.217 37.0225C141.412 37.0225 141.589 37.0502 141.739 37.1001C141.889 37.1556 142.022 37.2222 142.133 37.3054C142.238 37.3886 142.321 37.4885 142.377 37.5995C142.432 37.7104 142.46 37.8325 142.46 37.9601C142.46 38.0877 142.405 38.2541 142.299 38.3596C142.194 38.465 142.061 38.5204 141.9 38.5204C141.739 38.5204 141.611 38.4705 141.495 38.3651C141.378 38.2652 141.323 38.1265 141.323 37.949C141.323 37.7715 141.362 37.6827 141.445 37.5884C141.528 37.4996 141.633 37.4386 141.767 37.4108C141.744 37.3498 141.689 37.2943 141.606 37.2499C141.517 37.2056 141.4 37.1834 141.251 37.1834C141.101 37.1834 140.951 37.2166 140.835 37.2888C140.718 37.3609 140.629 37.4552 140.568 37.5717C140.485 37.7215 140.43 37.9379 140.407 38.2319C140.385 38.526 140.374 38.9698 140.374 39.5746V39.8464H141.5V40.0573H140.374V44.1795C140.374 44.5235 140.474 44.7565 140.674 44.8675C140.873 44.984 141.145 45.0395 141.489 45.0395V45.2614C141.328 45.2558 141.101 45.2447 140.807 45.2336C140.513 45.2225 140.197 45.217 139.869 45.217C139.542 45.217 139.392 45.217 139.159 45.2336C138.926 45.2447 138.748 45.2503 138.626 45.2614V45.0395C138.915 45.0395 139.12 44.984 139.242 44.8841C139.364 44.7787 139.425 44.579 139.425 44.2849V40.0573H138.582V39.8464H139.425C139.425 39.4303 139.442 39.0864 139.481 38.8034C139.514 38.5205 139.57 38.2819 139.647 38.0822C139.725 37.8824 139.83 37.7049 139.964 37.5495C140.102 37.3886 140.285 37.261 140.502 37.1667C140.718 37.0724 140.957 37.0225 141.217 37.0225Z" fill="black"/>
<path d="M143.808 38.0879V39.8467H145.367V40.0575H143.808V44.1354C143.808 44.4682 143.869 44.6957 143.986 44.8289C144.108 44.962 144.269 45.0286 144.48 45.0286C144.69 45.0286 144.874 44.9454 145.029 44.7678C145.184 44.5958 145.317 44.3073 145.428 43.8968L145.639 43.9523C145.567 44.3573 145.428 44.7068 145.223 44.9842C145.018 45.2672 144.696 45.4059 144.269 45.4059C143.842 45.4059 143.83 45.3781 143.681 45.3171C143.525 45.2561 143.387 45.1728 143.27 45.0563C143.115 44.8954 143.009 44.7013 142.948 44.4793C142.887 44.2519 142.86 43.9578 142.86 43.5805V40.0464H141.85V39.8356H142.86V38.2211C143.037 38.2155 143.204 38.1989 143.364 38.1767C143.525 38.1545 143.675 38.1212 143.808 38.0713V38.0879Z" fill="black"/>
<path d="M148.407 39.6908C149.023 39.6908 149.511 39.8794 149.855 40.2567C150.204 40.634 150.376 41.2165 150.376 42.0099H146.654L146.642 41.8102H149.361C149.378 41.4662 149.344 41.1499 149.278 40.8559C149.206 40.5618 149.095 40.3288 148.945 40.1568C148.795 39.9793 148.601 39.8905 148.362 39.8905C148.124 39.8905 147.752 40.0514 147.502 40.3732C147.253 40.695 147.103 41.211 147.053 41.91L147.086 41.9544C147.07 42.0598 147.064 42.1763 147.053 42.3039C147.047 42.4315 147.042 42.5591 147.042 42.6812C147.042 43.1583 147.12 43.5689 147.275 43.9129C147.43 44.2569 147.63 44.5176 147.88 44.7007C148.129 44.8782 148.385 44.967 148.656 44.967C148.928 44.967 149.067 44.9337 149.256 44.8672C149.444 44.8006 149.622 44.6896 149.783 44.5343C149.944 44.3789 150.082 44.1736 150.204 43.9129L150.415 43.9961C150.337 44.2291 150.21 44.451 150.038 44.673C149.86 44.8893 149.638 45.0669 149.372 45.2056C149.106 45.3443 148.795 45.4109 148.446 45.4109C147.941 45.4109 147.508 45.2944 147.142 45.0613C146.781 44.8283 146.504 44.5065 146.31 44.096C146.115 43.6854 146.021 43.2138 146.021 42.6757C146.021 42.1375 146.121 41.5272 146.315 41.0778C146.509 40.634 146.792 40.29 147.147 40.0459C147.502 39.8017 147.924 39.6797 148.401 39.6797L148.407 39.6908Z" fill="black"/>
<path d="M153.763 39.6908C154.073 39.6908 154.362 39.7629 154.634 39.9127C154.905 40.0625 155.083 40.3122 155.177 40.6728L155.039 40.7782C154.939 40.4842 154.789 40.2678 154.578 40.1347C154.373 40.0015 154.129 39.9349 153.846 39.9349C153.43 39.9349 153.086 40.1513 152.808 40.5785C152.531 41.0057 152.398 41.6659 152.403 42.5592C152.403 43.1306 152.459 43.6022 152.564 43.9795C152.675 44.3568 152.836 44.6342 153.047 44.8228C153.263 45.0114 153.524 45.1002 153.835 45.1002C154.145 45.1002 154.395 44.9726 154.634 44.7229C154.872 44.4677 155.016 44.096 155.066 43.6078L155.194 43.7576C155.139 44.2902 154.967 44.7008 154.684 44.9893C154.401 45.2778 154.012 45.422 153.53 45.422C153.047 45.422 152.714 45.3166 152.387 45.1058C152.059 44.8949 151.81 44.5787 151.638 44.157C151.466 43.7354 151.377 43.2028 151.377 42.5647C151.377 41.9267 151.488 41.3941 151.71 40.9669C151.932 40.5397 152.22 40.2234 152.586 40.0126C152.947 39.8018 153.341 39.6964 153.763 39.6964V39.6908ZM155.976 37V44.1126C155.976 44.4289 156.032 44.6619 156.148 44.8117C156.265 44.9615 156.476 45.0392 156.775 45.0392V45.2611C156.559 45.2389 156.337 45.2278 156.121 45.2278C155.904 45.2278 155.721 45.2389 155.538 45.2611C155.349 45.2833 155.183 45.3221 155.028 45.3776V38.265C155.028 37.9487 154.972 37.7157 154.861 37.5659C154.75 37.4161 154.539 37.3384 154.229 37.3384V37.1165C154.456 37.1387 154.672 37.1498 154.883 37.1498C155.094 37.1498 155.283 37.1387 155.466 37.111C155.654 37.0888 155.821 37.0499 155.976 37Z" fill="black"/>
<path d="M158.327 44.0684C158.51 44.0684 158.665 44.1349 158.798 44.2681C158.931 44.4013 158.998 44.5621 158.998 44.7397C158.998 44.9172 158.931 45.0781 158.798 45.2113C158.665 45.3444 158.504 45.411 158.327 45.411C158.149 45.411 157.988 45.3444 157.85 45.2113C157.716 45.0781 157.65 44.9172 157.65 44.7397C157.65 44.5621 157.716 44.4013 157.85 44.2681C157.983 44.1349 158.144 44.0684 158.327 44.0684Z" fill="black"/>
</g>
</g>
<defs>
<clipPath id="clip0_0_1">
<rect width="209" height="46" fill="white" transform="translate(-10)"/>
</clipPath>
</defs>
</svg>
