<svg xmlns="http://www.w3.org/2000/svg" fill="none" viewBox="0 0 353 87" height="87" width="353">
<path fill="url(#paint0_linear_4051_5114)" d="M43.26 0C48.3797 0 52.53 4.15032 52.53 9.27V20.085L59.8801 12.7349C63.5002 9.11477 69.3698 9.11477 72.9899 12.7349C76.61 16.3551 76.6101 22.2247 72.9899 25.8448L64.8455 33.9892H77.25C82.3697 33.9892 86.52 38.1403 86.52 43.26C86.5198 48.3795 82.3696 52.5292 77.25 52.5292H64.8892L73.0126 60.6526C76.6327 64.2727 76.6327 70.1423 73.0126 73.7624C69.3924 77.3825 63.5228 77.3826 59.9027 73.7624L52.53 66.3897V77.25C52.53 82.3697 48.3797 86.52 43.26 86.52C38.1403 86.52 33.99 82.3697 33.99 77.25V64.8447L24.9207 73.9141C21.3005 77.534 15.4309 77.5341 11.8108 73.9141C8.19071 70.294 8.19084 64.4244 11.8108 60.8042L20.0858 52.5292H9.27C4.15032 52.5292 -1.11894e-07 48.3789 0 43.2592C0.000202937 38.1397 4.15045 33.9892 9.27 33.9892H20.1295L11.8334 25.6932C8.21349 22.073 8.2134 16.2034 11.8334 12.5833C15.4535 8.96321 21.3231 8.96334 24.9433 12.5833L33.99 21.63V9.27C33.99 4.15032 38.1403 0 43.26 0Z"></path>
<path fill="#02003E" d="M101.52 57.6798V34.7998C101.52 33.7065 101.786 32.7198 102.32 31.8398C102.853 30.9332 103.573 30.2132 104.48 29.6798C105.386 29.1465 106.373 28.8798 107.44 28.8798H124.36C125.453 28.8798 126.44 29.1465 127.32 29.6798C128.226 30.2132 128.946 30.9332 129.48 31.8398C130.04 32.7198 130.32 33.7065 130.32 34.7998V57.6798H124.04V48.3998H107.72V57.6798H101.52ZM107.72 42.1598H124.04V35.1198H107.72V42.1598Z"></path>
<path fill="#02003E" d="M140.717 57.6798C139.65 57.6798 138.664 57.4132 137.757 56.8798C136.85 56.3465 136.13 55.6265 135.597 54.7198C135.064 53.8132 134.797 52.8265 134.797 51.7598V28.8798H140.997V51.4398H157.317V28.8798H163.597V51.7598C163.597 52.8265 163.317 53.8132 162.757 54.7198C162.224 55.6265 161.504 56.3465 160.597 56.8798C159.717 57.4132 158.744 57.6798 157.677 57.6798H140.717Z"></path>
<path fill="#02003E" d="M190.362 57.6798L182.002 47.7198H190.122L196.762 55.5598V57.6798H190.362ZM168.002 57.6798V28.9198H190.842C191.935 28.9198 192.922 29.1865 193.802 29.7198C194.709 30.2532 195.429 30.9732 195.962 31.8798C196.522 32.7865 196.802 33.7732 196.802 34.8398V42.2798C196.802 43.3465 196.522 44.3332 195.962 45.2398C195.429 46.1465 194.709 46.8665 193.802 47.3998C192.922 47.9332 191.935 48.1998 190.842 48.1998L174.202 48.2398V57.6798H168.002ZM174.202 41.9598H190.522V35.1198H174.202V41.9598Z"></path>
<path fill="#02003E" d="M201.09 57.6798V34.7998C201.09 33.7065 201.357 32.7198 201.89 31.8398C202.423 30.9332 203.143 30.2132 204.05 29.6798C204.957 29.1465 205.943 28.8798 207.01 28.8798H223.93C225.023 28.8798 226.01 29.1465 226.89 29.6798C227.797 30.2132 228.517 30.9332 229.05 31.8398C229.61 32.7198 229.89 33.7065 229.89 34.7998V57.6798H223.61V48.3998H207.29V57.6798H201.09ZM207.29 42.1598H223.61V35.1198H207.29V42.1598Z"></path>
<path fill="#02003E" d="M234.487 57.6798V28.8398H240.687V51.4398H263.287V57.6798H234.487Z"></path>
<path fill="#02003E" d="M269.738 57.6798V46.9198L256.418 28.8798H263.818L272.858 40.2398L281.858 28.8798H289.338L275.978 46.9598V57.6798H269.738Z"></path>
<path fill="#02003E" d="M291.244 57.6798V28.8798H297.644L313.764 48.0798V28.8798H320.044V57.6798H313.644L297.444 38.3998V57.6798H291.244Z"></path>
<path fill="#02003E" d="M324.125 57.6798V55.5598L334.405 43.2798L324.125 30.9998V28.8798H330.565L338.565 38.3598L346.485 28.8798H352.925V30.9998L342.605 43.2798L352.925 55.5198V57.6798H346.485L338.485 48.2398L330.565 57.6798H324.125Z"></path>
<defs>
<linearGradient gradientUnits="userSpaceOnUse" y2="86.52" x2="43.26" y1="0" x1="43.26" id="paint0_linear_4051_5114">
<stop stop-color="#A45EFF"></stop>
<stop stop-color="#C581FF" offset="0.398248"></stop>
<stop stop-color="#BC9BFF" offset="0.6"></stop>
<stop stop-color="#44D7FF" offset="1"></stop>
</linearGradient>
</defs>
</svg>
