<svg width="94" height="49" viewBox="0 0 94 49" fill="none" xmlns="http://www.w3.org/2000/svg">
<path d="M63.6015 18.5848C63.0197 18.1512 62.1081 17.8881 61.2225 17.903C60.259 17.9178 59.34 18.2253 58.7026 18.7367V12.6631H55.6973V32.4701H58.7026V22.1312C58.7026 21.4085 59.3066 20.6155 60.4257 20.5674C60.926 20.5451 61.6153 20.7638 61.9673 21.2863C62.3416 21.8421 62.3193 22.5795 62.3193 23.3837L62.3156 32.4664H65.321V23.2725C65.3173 20.5599 64.9652 19.5928 63.6015 18.5848ZM39.1661 25.3848C39.1661 27.3228 39.1031 27.8676 39.0883 28.0381C38.9845 29.1127 38.525 30.2504 37.2725 30.2504C36.0237 30.2504 35.516 29.0349 35.4604 27.9862C35.4567 27.9788 35.3826 27.3228 35.3826 25.3848C35.3826 23.443 35.4604 22.6351 35.4604 22.6277C35.4752 21.5345 36.0422 20.4377 37.2725 20.4377C38.5028 20.4377 39.0698 21.5308 39.0883 22.6129C39.092 22.6351 39.1661 23.443 39.1661 25.3848ZM42.0751 23.0465C41.6489 18.8108 39.2439 17.903 37.2725 17.903C34.4747 17.903 32.7738 19.6817 32.4662 23.0391C32.4403 23.3059 32.3995 23.7987 32.3847 25.3811C32.3736 26.5335 32.4477 27.4748 32.4625 27.7157C32.6515 30.8507 34.4562 32.7851 37.2725 32.7851C40.0925 32.7851 41.8861 30.821 42.0825 27.7157C42.0973 27.4933 42.1603 26.5335 42.1603 25.3811C42.1603 24.8623 42.1121 23.443 42.0751 23.0465ZM70.3311 23.6023C70.3533 22.9464 70.3533 22.8093 70.3681 22.6203C70.4534 21.4345 70.9833 20.4525 72.1987 20.4414C73.6403 20.4302 73.9775 21.8421 74.0294 22.624C74.0553 23.0353 74.085 23.3096 74.0812 23.6023H70.3311ZM74.0442 27.5711C74.0442 27.5711 74.0479 27.7935 74.0145 28.0603C73.9293 28.7607 73.6551 30.2541 72.1913 30.2541C70.9462 30.2541 70.4645 29.1238 70.383 27.9936C70.3681 27.6749 70.3088 27.3154 70.3125 26.1H77.0125C77.0125 26.1 77.0236 25.1031 77.0051 24.5028C76.9939 24.2656 76.9828 23.8765 76.9272 23.0502C76.8346 21.7791 76.3603 20.3932 75.6339 19.4927C74.7927 18.4551 73.6032 17.9067 72.195 17.9067C69.4899 17.9067 67.7964 19.6706 67.4666 23.0465C67.4369 23.3503 67.3887 23.7691 67.3887 25.3885C67.3887 26.5409 67.4555 27.5044 67.4666 27.7231C67.6481 30.8062 69.4714 32.7925 72.1987 32.7925C74.9187 32.7925 76.7419 30.8618 76.9346 27.5748L74.0442 27.5711Z" fill="#007AC2"/>
<path d="M22.8795 2.5537H71.7021L90.3752 24.3988L71.7096 45.9438H22.8795L4.13976 24.3247L22.8795 2.5537ZM72.8843 0.126465H21.7011L0.934326 24.2469L21.7048 48.2154H72.8843L93.5769 24.3247L72.8843 0.126465Z" fill="#007AC2"/>
<path d="M23.4836 15.3494H24.9066C26.4519 15.3494 27.2894 16.1683 27.3264 17.6321C27.3301 17.7395 27.3412 17.8618 27.3412 18.0879C27.3412 18.3547 27.3375 18.451 27.3264 18.5511C27.2412 19.4219 26.8595 20.9376 25.0474 20.9376H23.4799L23.4836 15.3494ZM30.5986 31.2394L30.291 26.3775C30.1576 24.2023 29.5906 22.9201 28.4641 22.2642C29.2756 21.775 30.328 20.567 30.3169 18.0434C30.3021 14.1969 27.9156 12.848 25.1067 12.8184H20.519V32.466H23.4836V23.476H25.1326C26.0887 23.476 27.1634 24.3097 27.3264 26.6555L27.634 31.2579C27.6599 31.9101 27.7822 32.466 27.7822 32.466H30.7505C30.7542 32.4697 30.6245 31.925 30.5986 31.2394ZM50.8502 27.4337C50.8391 27.6486 50.8243 27.845 50.8132 27.9858C50.7279 29.0827 50.3425 30.25 49.0011 30.25C47.7485 30.25 47.2557 28.9863 47.163 28.0525C47.1075 27.4855 47.1223 27.0483 47.1112 25.3844C47.0963 23.4426 47.1593 22.9423 47.189 22.6274C47.2965 21.4008 47.7708 20.4484 49.0011 20.441C50.2684 20.4336 50.7983 21.5342 50.8132 22.6162C50.8132 22.6274 50.8391 22.8905 50.8576 23.4648H53.8296C53.8185 23.2647 53.8111 23.1017 53.8037 23.0053C53.4664 18.8994 50.9651 17.9063 48.9937 17.9063C46.1996 17.9063 44.4949 19.685 44.1874 23.0424C44.1614 23.3092 44.1207 23.8021 44.1058 25.3844C44.091 26.5369 44.1651 27.4781 44.1837 27.719C44.3764 30.854 46.1773 32.781 48.9937 32.7884C51.9138 32.7995 53.5257 31.0171 53.8037 27.719C53.8111 27.6004 53.8296 27.5152 53.8222 27.4337H50.8502Z" fill="#007AC2"/>
</svg>