<svg width="100" height="42" viewBox="0 0 100 42" fill="none" xmlns="http://www.w3.org/2000/svg">
<path d="M30.5288 3.43467H69.4437L84.3273 20.8467L69.4496 38.0194H30.5288L15.592 20.7876L30.5288 3.43467ZM70.3859 1.5H29.5896L13.0371 20.7256L29.5925 39.83H70.3859L86.8793 20.7876L70.3859 1.5Z" fill="#475569"/>
<path d="M61.0906 15.6689C61.7966 15.6571 62.5232 15.8668 62.9869 16.2124C64.0739 17.0158 64.3545 17.7867 64.3574 19.9488V27.2769H61.962L61.9649 20.0374C61.9649 20.0032 61.965 19.9692 61.965 19.9353C61.9659 19.3342 61.9667 18.7851 61.6843 18.3657C61.4037 17.9492 60.8544 17.7749 60.4556 17.7926C59.5636 17.831 59.0821 18.4631 59.0821 19.0391V27.2799H56.6867V11.4924H59.0821V16.3335C59.5902 15.9259 60.3227 15.6808 61.0906 15.6689Z" fill="#475569"/>
<path fill-rule="evenodd" clip-rule="evenodd" d="M42.001 15.6689C43.5723 15.6689 45.4893 16.3926 45.8289 19.7687C45.8585 20.0847 45.8969 21.216 45.8969 21.6295C45.8969 22.5481 45.8467 23.3131 45.8349 23.4903C45.6783 25.9655 44.2487 27.5309 42.001 27.5309C39.7562 27.5309 38.3177 25.9891 38.1671 23.4903C38.1658 23.4692 38.1639 23.4414 38.1616 23.4073C38.1431 23.1314 38.0972 22.4471 38.1051 21.6295C38.1169 20.3683 38.1494 19.9754 38.17 19.7627C38.4152 17.0867 39.7709 15.6689 42.001 15.6689ZM43.4511 23.716C43.4665 23.5488 43.5103 23.0745 43.5103 21.6324C43.5103 20.0847 43.4512 19.4408 43.4483 19.4231C43.4335 18.5606 42.9816 17.6893 42.001 17.6893C41.0203 17.6893 40.5684 18.5636 40.5566 19.4349C40.5566 19.4349 40.5564 19.4377 40.556 19.4425C40.5496 19.5188 40.4946 20.1748 40.4946 21.6324C40.4946 23.1772 40.5537 23.7 40.5566 23.7059C40.6009 24.5418 41.0056 25.5106 42.001 25.5106C42.9993 25.5106 43.3656 24.6038 43.4483 23.7473C43.4491 23.7382 43.45 23.7279 43.4511 23.716Z" fill="#475569"/>
<path fill-rule="evenodd" clip-rule="evenodd" d="M71.2868 23.765C71.3134 23.5523 71.3104 23.3751 71.3104 23.3751L73.6143 23.3781C73.4607 25.998 72.0075 27.5369 69.8395 27.5369C67.6656 27.5369 66.2123 25.9537 66.0676 23.4962C66.0664 23.4727 66.0644 23.4383 66.0618 23.3942C66.0454 23.1118 66.0056 22.4299 66.0056 21.6354C66.0056 20.3982 66.0409 20.0402 66.0646 19.7993C66.0656 19.7889 66.0666 19.7787 66.0676 19.7687C66.3305 17.0778 67.6803 15.6719 69.8365 15.6719C70.9589 15.6719 71.9071 16.109 72.5775 16.9361C73.1565 17.6538 73.5345 18.7585 73.6084 19.7716C73.6441 20.3022 73.6567 20.6066 73.665 20.8037C73.667 20.8513 73.6687 20.8927 73.6704 20.9295C73.6852 21.408 73.6763 22.2025 73.6763 22.2025H68.336C68.3338 22.9372 68.3604 23.2795 68.3786 23.5128C68.3844 23.5872 68.3893 23.6505 68.3922 23.7118C68.4571 24.6127 68.8411 25.5136 69.8336 25.5136C71.0003 25.5136 71.2188 24.3232 71.2868 23.765ZM68.3633 19.8219C68.3603 19.9194 68.3565 20.0444 68.3508 20.2117H71.3399C71.3421 20.0442 71.3305 19.8843 71.3161 19.6862C71.3105 19.6083 71.3044 19.5245 71.2986 19.4319C71.2572 18.8087 70.9885 17.6834 69.8395 17.6922C68.8707 17.7011 68.4483 18.4838 68.3803 19.429C68.3723 19.5314 68.3697 19.6147 68.3633 19.8219Z" fill="#475569"/>
<path fill-rule="evenodd" clip-rule="evenodd" d="M36.4362 22.4239L36.6814 26.2991C36.6992 26.7699 36.7784 27.1574 36.7981 27.2537C36.8013 27.2692 36.8025 27.2768 36.8025 27.2768H34.4366C34.4366 27.2768 34.3391 26.8337 34.3184 26.3139L34.0733 22.6454C33.9433 20.7757 33.0868 20.1111 32.3247 20.1111H31.0103V27.2768H28.6474V11.6163H32.304C34.5429 11.64 36.4451 12.7151 36.4569 15.781C36.4658 17.7925 35.6269 18.7554 34.9801 19.1453C35.878 19.6681 36.3299 20.6901 36.4362 22.4239ZM32.1445 13.6337H31.0103L31.0074 18.0879H32.2568C33.7011 18.0879 34.0053 16.8798 34.0733 16.1857C34.0821 16.1059 34.0851 16.0292 34.0851 15.8165C34.0851 15.6879 34.0806 15.6015 34.0769 15.5314C34.0755 15.5032 34.0741 15.4777 34.0733 15.4532C34.0437 14.2865 33.3762 13.6337 32.1445 13.6337Z" fill="#475569"/>
<path d="M52.7938 23.7058C52.8026 23.5935 52.8144 23.437 52.8233 23.2657H55.1921C55.1959 23.3069 55.1913 23.3493 55.186 23.399C55.1829 23.4276 55.1795 23.4586 55.1774 23.4931C54.9558 26.1219 53.671 27.5426 51.3435 27.5338C49.0987 27.5279 47.6632 25.9919 47.5096 23.4931L47.5089 23.4839C47.493 23.2781 47.4359 22.5368 47.4476 21.6323C47.4594 20.3711 47.4919 19.9782 47.5126 19.7656C47.7577 17.0895 49.1164 15.6718 51.3435 15.6718C52.9149 15.6718 54.9086 16.4633 55.1774 19.736C55.1813 19.7873 55.1853 19.8622 55.1901 19.9537C55.1925 19.9994 55.1951 20.0492 55.1981 20.1023H52.8292C52.8167 19.7144 52.7999 19.5046 52.7951 19.4442C52.7942 19.4333 52.7938 19.4259 52.7938 19.4259C52.7819 18.5634 52.3596 17.6862 51.3494 17.6921C50.3688 17.698 49.9907 18.4571 49.905 19.4348C49.9035 19.4512 49.9018 19.4684 49.9001 19.4864C49.8751 19.7431 49.832 20.1862 49.843 21.6323C49.8451 21.9436 49.846 22.2011 49.8468 22.4187C49.8494 23.1278 49.8505 23.4131 49.8844 23.759C49.9582 24.5033 50.3511 25.5105 51.3494 25.5105C52.4186 25.5105 52.7258 24.5801 52.7938 23.7058Z" fill="#475569"/>
</svg>