<svg width="100" height="42" viewBox="0 0 100 42" fill="none" xmlns="http://www.w3.org/2000/svg">
<path d="M50.01 11.4912C50.1355 11.4276 50.1982 11.5111 50.2713 11.5552C52.8439 13.1078 55.4154 14.6622 57.9873 16.2161C58.092 16.2793 58.1811 16.3156 58.1494 16.4935C57.9751 17.4737 57.7527 18.4418 57.4934 19.426C55.9529 18.4954 54.4325 17.5759 52.9112 16.658C51.9672 16.0885 51.0219 15.5213 50.0601 14.9382C49.9204 14.8277 49.9173 14.6884 49.9164 14.5534C49.9102 13.6504 49.9115 12.7473 49.9154 11.8442C49.9159 11.7305 49.9271 11.6183 50.01 11.4912Z" fill="#475569"/>
<path d="M50.0071 11.4636C50.0358 12.5961 50.0406 13.7278 50.0446 14.8917C48.1144 16.0909 46.1848 17.2579 44.2556 18.4255C43.7732 18.7175 43.2885 19.0059 42.8121 19.3075C42.6429 19.4147 42.5747 19.4088 42.5292 19.1944C42.3404 18.3044 42.1431 17.4161 41.9348 16.5304C41.8778 16.288 42.055 16.2401 42.1899 16.1584C43.0673 15.6268 43.9487 15.1019 44.8274 14.5725C46.5464 13.5368 48.2646 12.4996 50.0071 11.4636Z" fill="#475569"/>
<path d="M49.1245 18.1763C47.9557 18.8801 46.8039 19.5648 45.655 20.2544C44.8718 20.7244 44.0928 21.2013 43.2981 21.6836C43.1145 21.393 43.0795 21.0408 42.9601 20.72C42.9127 20.5929 43.0074 20.5392 43.0985 20.4843C44.9904 19.3431 46.8822 18.2016 48.7731 17.0587C49.1207 16.8485 49.468 16.6374 49.8079 16.4153C49.9761 16.3054 50.1033 16.3029 50.2871 16.415C52.5118 17.7718 54.7425 19.1187 56.9769 20.4595C57.1442 20.5598 57.1926 20.6434 57.1183 20.8258C57.0341 21.0328 56.9595 21.2484 56.9193 21.4673C56.8655 21.76 56.7283 21.6687 56.5715 21.5735C55.5879 20.9767 54.6034 20.3811 53.6197 19.7843C52.51 19.111 51.3997 18.4386 50.2925 17.7612C50.125 17.6587 49.9854 17.6112 49.8035 17.7493C49.5979 17.9053 49.3641 18.0242 49.1245 18.1763Z" fill="#475569"/>
<path d="M53.8879 28.144C53.0328 29.7073 51.4973 30.7226 49.613 30.2637C48.6458 30.0281 47.727 29.6694 46.7999 29.3307C45.269 28.7714 43.708 28.6083 42.0605 28.794C42.3104 28.645 42.5512 28.4777 42.8114 28.3499C44.4225 27.5586 46.0375 27.6818 47.6668 28.3145C48.442 28.6156 49.2326 28.8751 50.0513 29.0528C51.4077 29.3471 52.6216 29.0811 53.7131 28.2316C53.7576 28.197 53.804 28.1649 53.8879 28.144Z" fill="#475569"/>
<path d="M50.0128 24.4174C50.5171 24.5591 50.9129 24.88 51.3453 25.1341C52.3162 25.7049 53.2753 26.2959 54.24 26.8774C54.5836 27.0845 54.6092 27.209 54.3001 27.4691C53.7904 27.8979 53.239 28.2578 52.5857 28.446C51.7462 28.6878 50.9172 28.646 50.0625 28.4021C49.9211 28.2942 49.9167 28.1557 49.916 28.0203C49.9107 26.9362 49.9111 25.852 49.9157 24.7679C49.9162 24.655 49.9221 24.5412 50.0128 24.4174Z" fill="#475569"/>
<path d="M36.5198 33.1591C37.8347 31.5854 39.845 32.5447 40.2421 33.8818C40.359 34.2754 40.3394 34.6575 40.1882 35.0369C40.1423 35.152 40.1013 35.2091 39.9825 35.0933C39.8127 34.9279 39.6308 34.7739 39.4464 34.6245C39.3573 34.5524 39.3392 34.4735 39.3351 34.3631C39.3037 33.5317 38.4381 33.0682 37.7289 33.5105C37.2773 33.792 37.006 34.1867 37.0792 34.7531C37.1286 35.135 37.5078 35.5247 37.9443 35.6504C38.0228 35.673 38.1013 35.7031 38.1745 35.6744C38.2545 35.643 38.3764 35.6607 38.4066 35.5662C38.4396 35.463 38.3252 35.4162 38.2634 35.3589C38.1237 35.2293 37.9741 35.1103 37.8163 34.9767C38.0153 34.7538 38.2032 34.5433 38.3995 34.3235C38.8073 34.6838 39.187 35.0567 39.6069 35.3769C39.8778 35.5835 39.7928 35.7224 39.6203 35.9095C38.2857 37.357 36.694 36.4028 36.1995 35.2379C35.8852 34.4976 36.0221 33.8081 36.5198 33.1591Z" fill="#475569"/>
<path d="M63.2755 8.13612C63.0053 7.94215 62.8724 7.73314 62.8773 7.39065C62.883 7.00063 62.224 6.41711 61.6208 6.60728C61.075 6.77934 60.7332 7.13931 60.6304 7.69383C60.5403 8.17964 60.8239 8.50051 61.1963 8.75597C61.2599 8.79959 61.3342 8.85019 61.4062 8.85458C61.581 8.86526 61.8261 8.95401 61.913 8.80668C61.9987 8.6615 61.7586 8.55715 61.6461 8.47556C61.3516 8.26184 61.3725 8.06912 61.6535 7.89686C61.7872 7.81495 61.8043 7.45449 62.0573 7.66271C62.4676 8.00043 62.8375 8.38688 63.2397 8.73508C63.4154 8.88718 63.2785 8.96782 63.2019 9.05929C62.6136 9.76217 61.7902 10.0249 61.0682 9.74635C60.1771 9.40253 59.5732 8.52808 59.6087 7.63305C59.6474 6.65797 60.5147 5.69892 61.4518 5.5948C62.523 5.47579 63.5939 6.20155 63.822 7.23274C63.9133 7.64552 63.876 8.06406 63.6208 8.45026C63.5075 8.34721 63.4005 8.24989 63.2755 8.13612Z" fill="#475569"/>
<path d="M57.9409 3.46119C58.0314 4.11383 57.7205 4.75362 57.1583 4.99519C56.8771 5.11599 56.8671 5.27392 56.9221 5.51852C56.9984 5.85813 57.0481 6.20366 57.1163 6.54524C57.1592 6.75967 57.0857 6.79409 56.9084 6.69656C56.8987 6.69122 56.8869 6.68805 56.8759 6.68707C55.8977 6.6005 55.9737 5.82379 55.8795 5.16111C55.8528 4.97283 55.5351 4.70036 55.3494 4.71719C55.2446 4.72669 55.2367 4.82154 55.2103 4.88666C55.1095 5.13558 55.0107 5.38618 54.9298 5.64204C54.8688 5.83466 54.8095 5.90958 54.5781 5.82184C53.8479 5.54495 53.8389 5.5566 54.1133 4.83203C54.4864 3.84701 54.8718 2.86661 55.2378 1.87899C55.2962 1.72147 55.3348 1.69712 55.4905 1.76085C56.0198 1.97747 56.5613 2.16443 57.0897 2.38315C57.556 2.57614 57.8786 2.90214 57.9409 3.46119Z" fill="#475569"/>
<path d="M41.7811 3.07056C41.7304 2.9445 41.6445 2.83301 41.7478 2.73967C41.8551 2.64288 41.9842 2.65979 42.1247 2.72238C42.8625 3.05113 43.606 3.36725 44.3475 3.68798C44.4387 3.72744 44.5488 3.81375 44.6263 3.74095C44.702 3.66986 44.6241 3.55873 44.5891 3.46449C44.4214 3.01262 44.2704 2.5543 44.0935 2.10621C44.0325 1.95186 44.0703 1.90614 44.2093 1.84868C45.0108 1.51731 45.005 1.51551 45.2975 2.3284C45.6387 3.2768 45.9928 4.22056 46.3267 5.17149C46.3546 5.25114 46.4804 5.35773 46.3765 5.44124C46.2741 5.52363 46.1484 5.5445 46.0001 5.47406C45.2803 5.13202 44.5538 4.80384 43.827 4.47679C43.7014 4.42027 43.5497 4.27704 43.4354 4.38146C43.3363 4.47195 43.4599 4.63429 43.5025 4.75756C43.6563 5.20263 43.8124 5.64738 43.9864 6.08481C44.0477 6.23888 44.0313 6.28663 43.8712 6.35355C43.0846 6.68241 43.0912 6.68806 42.7997 5.87886C42.4652 4.95049 42.1235 4.02474 41.7811 3.07056Z" fill="#475569"/>
<path d="M50.0093 24.3887C50.0372 25.7046 50.0397 27.018 50.0394 28.3624C49.5408 28.3424 49.0794 28.1576 48.6114 28.0078C47.7095 27.7193 46.8151 27.4067 45.8528 27.4027C45.6751 27.402 45.6288 27.2627 45.5649 27.1557C45.4957 27.04 45.6228 27.0108 45.6953 26.9671C47.1247 26.1066 48.5543 25.2464 50.0093 24.3887Z" fill="#475569"/>
<path d="M56.6773 36.9447C56.5065 36.5148 56.3563 36.1048 56.1866 35.703C56.1223 35.5509 56.146 35.471 56.2994 35.4233C56.3743 35.4 56.4486 35.3746 56.5219 35.3469C57.095 35.1296 57.0903 35.1311 57.3167 35.7229C57.5365 36.2974 57.7643 36.8689 57.9933 37.4397C58.4298 38.5278 57.9012 39.4751 56.7399 39.7145C55.7537 39.9179 55.0987 39.5002 54.8429 38.6662C54.6233 37.9499 54.3204 37.2578 54.0276 36.5663C53.9443 36.3694 53.9953 36.3114 54.1624 36.2557C54.4138 36.1718 54.6981 35.9626 54.9021 36.0247C55.0964 36.0839 55.116 36.4607 55.2118 36.6979C55.4386 37.2593 55.6555 37.8247 55.8802 38.387C56.0477 38.8064 56.3011 38.92 56.6951 38.7602C57.1192 38.5884 57.2181 38.3443 57.0475 37.9111C56.9243 37.5983 56.809 37.2824 56.6773 36.9447Z" fill="#475569"/>
<path d="M34.6807 11.3625C35.2905 10.6826 35.8036 10.5625 36.4012 10.9716C36.9012 11.3138 36.9901 11.8067 36.8865 12.375C36.7407 13.1751 36.0524 13.9201 35.3682 13.9834C35.3129 13.9886 35.2569 13.9937 35.2017 13.9905C34.6498 13.9586 34.6124 13.8925 34.8862 13.419C35.004 13.2153 35.0678 12.9932 35.4026 12.9852C35.6975 12.9781 36.0259 12.4219 35.9845 12.1187C35.9658 11.9819 35.9101 11.8518 35.7668 11.7987C35.5894 11.7331 35.4233 11.7748 35.3061 11.9183C35.1209 12.145 34.9586 12.3904 34.7751 12.6186C34.4104 13.0722 33.8921 13.2459 33.4343 13.0791C32.917 12.8907 32.5602 12.3983 32.5984 11.8495C32.6476 11.1431 32.974 10.5828 33.5919 10.2153C33.8751 10.0468 34.1892 10.0223 34.5044 10.0977C34.6861 10.1412 34.8628 10.2074 34.666 10.451C34.5687 10.5715 34.5026 10.7192 34.4335 10.86C34.3687 10.992 34.287 11.0455 34.1269 11.05C33.8154 11.0586 33.4795 11.5428 33.549 11.8432C33.6161 12.1329 33.9342 12.2349 34.1575 12.0134C34.3482 11.8243 34.4978 11.5937 34.6807 11.3625Z" fill="#475569"/>
<path d="M62.6618 34.7012C62.4784 34.9698 62.2257 35.1303 62.0067 35.3245C61.8569 35.4573 61.8303 35.5535 61.9793 35.7107C62.1627 35.9042 62.4755 36.1061 62.4489 36.3298C62.4259 36.5228 62.0849 36.6685 61.9054 36.8552C61.7498 37.0171 61.6584 36.9641 61.534 36.8204C60.7421 35.9056 59.9438 34.9964 59.1476 34.0853C59.054 33.9782 58.9881 33.9046 59.1568 33.7711C59.573 33.4418 59.9597 33.0755 60.3631 32.7298C60.9883 32.194 61.6994 32.1713 62.2941 32.6618C62.9459 33.1994 63.092 33.9701 62.6618 34.7012Z" fill="#475569"/>
<path d="M51.5194 1.6373C51.5433 1.84435 51.5046 1.94062 51.2913 1.92858C50.9406 1.90879 50.5869 1.9365 50.2369 1.91048C49.9655 1.8903 50.0105 2.05891 50.0194 2.20961C50.028 2.35529 49.9265 2.56286 50.2348 2.546C50.5504 2.52873 50.8686 2.56522 51.1858 2.56558C51.3222 2.56574 51.3777 2.58943 51.3867 2.74859C51.4289 3.48839 51.4357 3.48814 50.7019 3.47836C50.5998 3.477 50.4977 3.46968 50.3957 3.47156C49.8848 3.481 49.9856 3.4061 49.9562 3.90147C49.9439 4.10882 49.997 4.17072 50.2125 4.1715C50.5846 4.17285 50.9572 4.14421 51.3314 4.20447C51.5038 4.23223 51.5213 4.28904 51.5258 4.43389C51.5477 5.13813 51.5518 5.13488 50.8545 5.12501C50.2986 5.11713 49.7425 5.10947 49.1868 5.11974C48.9869 5.12343 48.9111 5.08445 48.916 4.8624C48.9428 3.64967 48.9568 2.43659 48.9644 1.22357C48.9657 1.00866 49.0156 0.989919 49.2337 1.0033C49.8668 1.04214 50.5038 1.04005 51.1384 1.02228C51.434 1.014 51.5859 1.07583 51.523 1.40063C51.5103 1.46635 51.5201 1.53644 51.5194 1.6373Z" fill="#475569"/>
<path d="M50.015 19.0403C50.6721 19.2786 51.2241 19.6909 51.8118 20.0392C53.2737 20.9055 54.7198 21.7983 56.1796 22.6682C56.3937 22.7958 56.4645 22.9106 56.3499 23.1442C56.2322 23.384 56.2066 23.7717 56.03 23.8524C55.8353 23.9412 55.5776 23.639 55.3508 23.5028C53.6616 22.4883 51.9757 21.4684 50.2881 20.4512C50.2212 20.4108 50.1482 20.3807 50.0562 20.3325C49.8395 19.907 49.8921 19.4871 50.015 19.0403Z" fill="#475569"/>
<path d="M50.0091 19.0128C50.037 19.4309 50.0401 19.8471 50.0381 20.2911C48.1419 21.4588 46.2487 22.5952 44.3623 23.7427C44.1214 23.8891 43.9663 23.9392 43.9163 23.5926C43.9131 23.5704 43.9036 23.5492 43.8985 23.5272C43.8438 23.2891 43.5821 23.0522 43.7038 22.8411C43.8133 22.6509 44.0991 22.5597 44.3113 22.4316C46.2018 21.2905 48.0931 20.1509 50.0091 19.0128Z" fill="#475569"/>
<path d="M54.4475 30.3819C55.0959 30.4463 55.6835 30.6135 56.2425 30.9005C55.7638 30.9397 55.285 30.8956 54.809 30.9561C53.9851 31.0607 53.2181 31.3629 52.4355 31.6126C50.9466 32.0877 49.4726 32.1517 48.019 31.4703C47.3563 31.1597 46.5746 30.5484 46.1426 29.9567C46.7258 30.2705 47.2809 30.5312 47.8677 30.7236C49.0753 31.1195 50.2858 31.1223 51.4963 30.7616C52.145 30.5683 52.7978 30.4057 53.4708 30.3283C53.7894 30.2916 54.1033 30.3312 54.4475 30.3819Z" fill="#475569"/>
<path d="M49.9999 21.7172C50.47 21.8328 50.8337 22.1404 51.2346 22.378C52.6105 23.1936 53.9713 24.0346 55.3457 24.8527C55.5465 24.9722 55.5814 25.0764 55.4738 25.2714C55.3387 25.5159 55.2219 25.7704 55.0972 26.0206C54.8653 25.8861 54.6314 25.7551 54.4019 25.6167C52.9744 24.7557 51.548 23.893 50.0979 23.0221C49.9399 22.9287 49.9225 22.7908 49.9272 22.6538C49.9375 22.3504 49.8681 22.0414 49.9999 21.7172Z" fill="#475569"/>
<path d="M49.9945 21.6934C50.0989 22.11 50.0038 22.5382 50.071 22.9864C49.2721 23.4011 48.5403 23.9116 47.7731 24.3613C46.8981 24.8742 46.0362 25.4095 45.1721 25.9407C45.0346 26.0252 44.9804 26.0152 44.8959 25.8611C44.4483 25.0446 44.4377 25.041 45.2283 24.5609C46.8071 23.602 48.3912 22.6516 49.9945 21.6934Z" fill="#475569"/>
<path d="M65.828 10.9078C65.9831 10.657 66.1314 10.431 66.2697 10.1989C66.3748 10.0225 66.4615 10.0293 66.5489 10.2079C66.5539 10.2181 66.5585 10.2285 66.5641 10.2383C67.0075 11.0307 67.0068 11.0302 66.4741 11.7801C66.3447 11.9622 66.2218 12.1489 66.0296 12.4306C66.4835 12.4306 66.8591 12.4444 67.2333 12.4265C67.5605 12.4108 67.7982 12.4969 67.8857 12.8419C67.8965 12.8845 67.9247 12.9227 67.945 12.9629C68.0248 13.1213 68.2267 13.322 68.1506 13.4306C68.0377 13.5914 67.7758 13.4929 67.5803 13.4825C67.061 13.4551 66.5422 13.4151 66.0245 13.367C65.5869 13.3263 65.1693 13.3538 64.7967 13.6199C64.7427 13.6585 64.6786 13.6828 64.6189 13.7131C63.8406 14.1078 63.8454 14.1057 63.4962 13.2946C63.442 13.1685 63.4449 13.1112 63.5735 13.0725C64.6843 12.7383 65.303 11.889 65.828 10.9078Z" fill="#475569"/>
<path d="M38.0606 6.70108C37.9659 6.27609 37.8834 5.8809 37.7952 5.48702C37.7753 5.39844 37.7352 5.31863 37.824 5.24116C38.054 5.04037 38.2682 4.81915 38.5115 4.63642C38.7194 4.48024 38.6929 4.71321 38.7118 4.80355C38.831 5.37431 39.0035 5.94408 39.0336 6.52069C39.0693 7.20657 39.4334 7.66929 39.862 8.12416C39.9474 8.21483 40.0291 8.30927 40.1181 8.3963C40.258 8.53321 40.2435 8.64293 40.0765 8.74424C39.8568 8.87756 39.7139 9.21715 39.48 9.19438C39.2474 9.17175 39.0856 8.86907 38.9536 8.653C38.4969 7.9058 37.688 7.82801 36.9739 7.57035C36.616 7.44122 36.2497 7.33532 35.8871 7.21914C35.7169 7.16459 35.6953 7.08264 35.8405 6.96957C35.8494 6.96268 35.863 6.9603 35.8693 6.95195C36.2961 6.38403 36.8032 6.27022 37.4205 6.65215C37.5684 6.74363 37.7551 6.77413 37.9261 6.82566C38.0014 6.84836 38.0948 6.87285 38.0606 6.70108Z" fill="#475569"/>
<path d="M66.8024 24.4894C66.7192 24.53 66.6577 24.5559 66.5039 24.6206C66.8528 23.8265 66.7302 23.2094 65.9043 22.8064C66.2315 22.6522 66.5136 22.6618 66.7771 22.6307C66.9764 22.6072 67.0812 22.5357 67.1572 22.3646C67.265 22.1218 67.3869 21.8852 67.5324 21.5851C67.6796 21.8758 67.8151 22.1033 67.9115 22.3463C67.9901 22.5443 68.1022 22.6173 68.3154 22.6265C68.5712 22.6376 68.8245 22.7045 69.1386 22.7572C68.9006 22.9883 68.7049 23.1889 68.4973 23.3763C68.3652 23.4955 68.3316 23.6071 68.3788 23.791C68.4442 24.0454 68.507 24.3092 68.4852 24.6027C68.4016 24.5563 68.3302 24.5262 68.2695 24.4814C67.7885 24.1261 67.3078 24.0725 66.8024 24.4894Z" fill="#475569"/>
<path d="M34.0266 22.7075C34.0703 22.7686 34.246 22.6946 34.152 22.8344C34.115 22.8894 34.0614 22.9384 34.0053 22.9747C33.4835 23.3116 33.3639 23.7659 33.5929 24.3321C33.6208 24.4012 33.6058 24.4875 33.6109 24.5693C33.2511 24.477 32.9685 24.1295 32.6377 24.1498C32.3223 24.1692 32.0219 24.4312 31.7095 24.5892C31.6649 24.3586 31.7138 24.1527 31.7781 23.9669C31.8936 23.6329 31.7752 23.4147 31.5232 23.2136C31.366 23.0882 31.2322 22.9335 31 22.7058C31.8888 22.7811 32.4463 22.4805 32.5799 21.5936C32.812 21.8062 32.89 22.0322 32.9709 22.2359C33.0745 22.4967 33.1894 22.6561 33.501 22.6291C33.6645 22.615 33.8344 22.6738 34.0266 22.7075Z" fill="#475569"/>
<path d="M53.9023 28.1331C53.9143 28.1131 53.9338 28.101 53.9534 28.0889C53.9542 28.1051 53.9549 28.1213 53.9404 28.1473C53.9251 28.157 53.91 28.141 53.9023 28.1331Z" fill="#E2E8F0"/>
<path fill-rule="evenodd" clip-rule="evenodd" d="M49.0781 40.8607C49.5252 41.0161 49.9781 41.0474 50.4664 40.9242C52.2503 40.4502 52.3481 38.3104 51.4971 37.3988C50.8732 36.7304 49.9047 36.5284 49.0178 36.8747C48.2365 37.1797 47.7564 37.916 47.735 38.8422C47.7136 39.768 48.2497 40.5728 49.0781 40.8607ZM48.8443 38.5746C48.7355 39.0548 48.8583 39.4663 49.265 39.8024C50.1068 40.2369 50.8757 39.8259 50.951 38.9277C50.9979 38.3674 50.6092 37.821 50.1075 37.7421C49.4645 37.6409 48.9854 37.9519 48.8443 38.5746Z" fill="#475569"/>
<path fill-rule="evenodd" clip-rule="evenodd" d="M44.5919 38.5892C45.34 38.3533 45.8198 37.2629 45.2807 36.4334C45.0673 36.1164 44.7684 35.9585 44.4497 35.8348C44.2658 35.7633 44.0805 35.6953 43.8952 35.6274C43.6169 35.5252 43.3386 35.4231 43.0651 35.3093C42.87 35.2282 42.8003 35.2503 42.724 35.4585C42.4697 36.1528 42.2048 36.8433 41.9399 37.5337C41.8232 37.8378 41.7065 38.1418 41.5908 38.4462C41.3562 39.0632 41.3577 39.0638 41.9545 39.3008C41.9635 39.3043 41.9726 39.3079 41.9818 39.3116C42.2441 39.4158 42.426 39.4645 42.4813 39.0943C42.5088 38.9105 42.5975 38.7314 42.6827 38.5624C42.6969 38.5342 42.7067 38.4985 42.7166 38.4619C42.7468 38.3512 42.7791 38.2323 42.9439 38.289C42.9826 38.3024 43.0252 38.3123 43.0684 38.3223C43.2382 38.3619 43.4186 38.4039 43.421 38.6664C43.4215 38.727 43.4359 38.7881 43.4502 38.8489C43.4673 38.9217 43.4843 38.9941 43.4774 39.0647C43.4066 39.7908 43.8116 40.1124 44.4523 40.2392C44.474 40.2435 44.4949 40.2559 44.5159 40.2684C44.5611 40.2952 44.6067 40.3223 44.6615 40.2701C44.7233 40.211 44.7076 40.1473 44.69 40.0757C44.6882 40.0684 44.6864 40.061 44.6846 40.0536L44.6833 40.0481C44.5988 39.6895 44.5142 39.3303 44.4518 38.9675C44.4487 38.9493 44.4445 38.9304 44.4403 38.9112C44.4136 38.7893 44.384 38.6547 44.5919 38.5892ZM43.1894 37.1928C43.1793 37.2171 43.1679 37.2447 43.1545 37.2792C43.1034 37.427 43.1845 37.4606 43.2755 37.4935C43.3477 37.5196 43.4194 37.5475 43.491 37.5755C43.608 37.6213 43.7251 37.667 43.8448 37.7045C44.1167 37.7896 44.3686 37.6417 44.4672 37.339C44.555 37.0695 44.4928 36.8537 44.2176 36.7234C43.8563 36.5524 43.676 36.4666 43.5507 36.5172C43.4256 36.5678 43.3555 36.7546 43.2151 37.1287C43.2074 37.1493 43.199 37.1696 43.1894 37.1928Z" fill="#475569"/>
<path d="M55.7979 3.32971C55.8647 2.97861 56.0116 2.85337 56.331 3.05216C56.4437 3.1223 56.5856 3.14348 56.7064 3.20285C56.9828 3.33865 57.0208 3.5675 56.9208 3.83151C56.8219 4.09255 56.6428 4.23804 56.3474 4.17631C56.2708 4.16029 56.1969 4.12958 56.1228 4.10259C55.5751 3.90296 55.5752 3.90272 55.7979 3.32971Z" fill="#E2E8F0"/>
<path d="M61.0568 33.3426C61.4664 33.2659 61.7131 33.3976 61.8709 33.7366C62.0224 34.062 61.8593 34.2611 61.6215 34.4571C61.1852 34.8165 61.1908 34.8233 60.8288 34.4071C60.3892 33.9017 60.3891 33.9016 60.9029 33.4636C60.9458 33.4271 60.9909 33.3932 61.0568 33.3426Z" fill="#E2E8F0"/>
</svg>