<svg xmlns="http://www.w3.org/2000/svg" x="0px" y="0px" viewBox="0 0 558.9 587.8" style="enable-background:new 0 0 558.9 587.8" xml:space="preserve"><style type="text/css">.st0{fill:#011241;}
	.st1{fill:#02AEF1;}</style><path class="st0" d="m 263.1,0 37.4,0.8 c 0,0 -0.1,8.8 -0.1,13.2 -7.4,-0.1 -14.7,-0.1 -22.1,-0.2 0,3.1 -0.1,6.2 -0.1,9.3 6.7,0 13.4,0.6 20.1,0.3 0,4.5 0,8.9 -0.1,13.4 -6.9,0.2 -13.8,-0.3 -20.6,0 0,3.4 -0.1,6.7 -0.1,10.1 7.6,0.2 15.2,-0.1 22.9,0.8 0.2,4.5 0,9.1 0,13.6 -12.7,-0.1 -25.5,-0.4 -38.2,-0.4 0.4,-17.7 0,-35.3 0.7,-52.9 0.1,-2.7 0.2,-8 0.2,-8 z"/><path class="st0" d="m 205.1,8.7 c 6.6,19.1 13.7,38 20.6,56.9 -1.4,0.4 -2.8,0.9 -4.2,1.4 -10.3,-4.7 -20.7,-9.5 -31,-14.2 -3.1,-1.5 -6.3,-2.9 -9.7,-3.8 2.3,9.9 7.1,19.1 9.8,28.9 -4.5,2.2 -9.4,3.6 -14.1,5.4 -6.2,-16.4 -11.9,-33 -18,-49.4 -1,-2.6 -1.9,-5.2 -2.6,-7.8 2.1,-0.5 3.8,-1.7 6,-0.5 8.2,3.4 16.2,7.2 24.4,10.6 4.7,1.9 8.9,4.3 13.9,5.5 -2.7,-9.3 -6.4,-18.5 -9.8,-27.6 4.9,-1.9 9.7,-3.9 14.7,-5.4 z"/><path class="st0" d="m 355.8,10.6 c 8.1,2.7 15.9,5.9 23.9,8.9 5.4,2 10.2,4.9 13,10.1 4,7.4 2.9,17.5 -2.5,24 -2.9,3.8 -6.8,5.9 -11.2,7.4 0.9,7.7 4,22.8 4,22.8 l 0.2,1.5 -16.1,-6.1 c 0,0 -2.1,-14.1 -2.8,-21.1 -2.7,-1.2 -5.4,-2.3 -8.1,-3.5 -2.8,5.6 -4.7,11.8 -6.9,17.6 -5,-1.3 -9.9,-3.4 -14.7,-5.4 5.6,-13.6 10.4,-27.5 15.8,-41.2 1.8,-4.9 4,-9.9 5.4,-15 z m 7.1,24.7 c -0.9,2.5 -2.1,4.9 -2.5,7.5 3.5,1.8 7.8,3.3 11.6,4.4 7.2,1.5 11.9,-10.8 5.3,-14.2 -3.7,-1.6 -7.7,-3.5 -11.7,-4.2 -1.2,1.9 -1.8,4.4 -2.7,6.5 z"/><path class="st0" d="m 111.3,52.5 c 1.3,3.6 1.7,7.5 2.5,11.2 1.6,9 3.4,17.9 5,27 0.7,4.6 4.6,7.1 7.4,10.6 2.9,3.6 6.2,6.8 9,10.5 -3.9,3.2 -7.6,6.6 -11.4,9.9 -5.1,-5.3 -9.7,-11 -14.5,-16.5 -1.7,-2.2 -5.1,-2.6 -7.6,-3.5 C 90.4,98 79.2,94.5 68.1,90.5 c 3.7,-4.4 8.4,-7.9 12.8,-11.7 7.5,2.5 14.8,5.8 22.4,7.8 -1.2,-7.7 -3.4,-15.2 -4.8,-22.9 0.8,-1.4 2.3,-2.4 3.5,-3.5 3.3,-2.4 5.7,-5.6 9.3,-7.7 z"/><path class="st0" d="m 445.5,68 c 14.4,-2.3 28.6,6.5 34.3,19.6 3,7.3 2.3,15.6 -1.5,22.4 -3.6,-3.4 -7.3,-6.7 -10.9,-10.1 0,-2.6 0.5,-5.9 -0.7,-8.2 -2.9,-5.6 -8.7,-9.8 -15.2,-9.5 -6.3,0.5 -11.6,4.6 -14.8,9.8 -2.2,3.5 -3.6,7.8 -2.3,11.9 1.2,4.7 4.5,8.1 8.5,10.6 3.2,2.3 8,1.8 11.6,0.6 -3,-3.2 -6.4,-6 -9.4,-9.2 2.9,-3.1 5.9,-6 8.6,-9.3 6.9,6.4 13.9,12.7 20.8,19.2 -6.1,7.8 -14.5,14.7 -25,14.7 -14.3,-0.4 -27.5,-12.8 -29.9,-26.7 -3.2,-16.2 10,-33 25.9,-35.8 z"/><path class="st0" d="m 42.4,133.8 c 4.4,-1 8.5,0.1 12.4,2 -2.2,4.1 -4.6,8 -6.8,12.1 -1.7,0.1 -3.7,-0.2 -5.2,0.4 -3.8,2.4 -6.8,7.1 -6.3,11.6 0.8,2.3 3.4,4.6 6,4 2.3,-0.4 4.2,-2.7 5.5,-4.4 3.6,-5.1 8,-11.4 13.7,-14.4 6.3,-3.4 14,-1 19.1,3.5 3.8,3.5 5.2,8.3 5.5,13.3 -0.3,7.1 -2.8,14 -7.3,19.5 -3.9,5.2 -9.9,9.7 -16.6,9.9 -3.1,0 -7,-0.4 -9.4,-2.4 1.8,-4.2 4.5,-8.1 6.7,-12.2 6.6,1.3 10.8,-4.7 12.3,-10.3 1.1,-3.5 -0.6,-7.6 -4.6,-7.9 -4.7,-0.1 -7.1,4.6 -9.4,7.9 -3.9,6 -9.2,11.2 -16.5,12.5 -8.5,0.4 -17.3,-6.4 -18.6,-15 -1.4,-6.6 1.4,-14 5,-19.6 3.5,-5 8.5,-9.4 14.5,-10.5 z"/><path class="st0" d="m 519.7,132.9 c 0,0 5.2,9.9 7.8,14.9 -4.4,6.7 -13.3,19.9 -13.3,19.9 l 24,1.1 7.4,14.8 -42.5,-1.5 c 0,0 -13.9,7 -20.7,10.3 -2.4,-4.5 -4.6,-9.1 -7.1,-13.6 6,-2.9 21.3,-11.7 21.3,-11.7 l 17.5,-26.7 z"/><path class="st1" d="m 278.9,153.5 c 0.2,16.9 -0.2,33.8 0.2,50.6 -0.5,0.4 -1,0.9 -1.6,1.3 -5.8,4.1 -12.2,7.3 -18.3,11.1 -6.1,3.9 -12.3,7.7 -18.6,11.3 -23.8,14.4 -47.3,28.6 -71.1,43.1 -1.8,-5.6 -2.8,-11.3 -4.4,-16.9 -1.9,-9.4 -4.3,-18.8 -5.7,-28.3 0.7,-0.9 1.9,-1.6 2.8,-2.2 7.5,-4.4 15,-8.9 22.4,-13.5 11.7,-6.6 22.9,-13.9 34.4,-20.6 11.7,-7.4 23.8,-14.2 35.5,-21.5 8.3,-4.7 15.9,-10.1 24.4,-14.4 z"/><path class="st0" d="m 278.9,153.5 c 18.6,10.9 37,22.4 55.5,33.4 21.2,13 42.7,25.7 63.9,38.8 -2.9,15.2 -6.2,30.3 -10,45.3 -34.3,-20.7 -68.6,-41.4 -102.8,-62.2 -2.3,-1.4 -4.5,-2.8 -6.9,-3.9 l -1,0.6 c 0.5,-0.4 1.1,-0.9 1.6,-1.3 -0.5,-16.9 -0.1,-33.8 -0.3,-50.7 z"/><path class="st1" d="m 278.6,224.7 c 0.6,6.5 0.3,13.2 0.2,19.8 -4.2,2.3 -8.3,4.9 -12.3,7.5 -23.7,13.8 -46.9,28.4 -70.5,42.4 -5.5,3.7 -11.4,6.2 -16.5,10.4 -2.2,-5.5 -3.9,-11.2 -5.3,-16.9 9.2,-5.2 18,-11 27.2,-16.2 10.2,-6.5 20.8,-12.5 31.1,-18.8 15.3,-9.6 30.9,-18.5 46.1,-28.2 z"/><path class="st0" d="m 278.6,224.7 c 35,21.1 69.9,42.4 105,63.4 -1.9,5.4 -2.9,11.3 -5.6,16.4 -13.5,-8.7 -27.5,-16.6 -41.1,-25.1 -19.4,-11.6 -38.6,-23.5 -58.1,-35 0.1,-6.5 0.4,-13.2 -0.2,-19.7 z"/><path class="st1" d="m 278.8,264.3 c 0.2,6.6 0.2,13.2 0,19.8 -4.4,2.2 -8.5,4.8 -12.7,7.4 -24.9,14.7 -50.3,30.7 -75.6,45.4 -1.7,-5.4 -4,-10.6 -5.8,-15.9 31.4,-18.8 62.8,-38 94.1,-56.7 z"/><path class="st0" d="m 278.8,264.3 c 28.5,17.2 57.1,34.5 85.6,51.7 2.7,1.7 5.7,3.1 8.1,5.1 -1.3,5.4 -3.7,10.8 -5.8,16 -25.2,-15.7 -50.9,-30.8 -76.2,-46.3 -3.9,-2.3 -7.6,-4.7 -11.6,-6.7 0.1,-6.6 0.1,-13.2 -0.1,-19.8 z"/><path class="st0" d="m 23.3,302.8 c 2.7,4.8 5,9.7 7.3,14.7 5.4,0.4 10.8,1.4 16.1,2.3 -3.8,3.6 -7.8,7.2 -11.4,11 0,5.4 1.9,10.8 2.4,16.3 -4.8,-2.5 -9.6,-4.9 -14.4,-7.5 -4.8,2.5 -9.6,5 -14.4,7.5 0.6,-5.4 1.8,-10.6 2.6,-15.9 -3.9,-3.7 -7.8,-7.5 -11.6,-11.4 5,-1 10.1,-1.5 15.2,-2.4 1.1,-0.3 1.7,-1.7 2.2,-2.6 1.5,-3.1 3,-6.3 4.6,-9.4 0.5,-0.9 1,-1.7 1.4,-2.6 z"/><path class="st1" d="m 278.7,303.7 c 0.5,6.6 0,13.1 0.3,19.7 -8,4.1 -15.4,9.3 -23.3,13.7 -17,10.4 -34.1,20.7 -51.2,31 -2.6,-5 -5.1,-10 -7.1,-15.2 27.1,-16.4 54.2,-32.9 81.3,-49.2 z"/><path class="st0" d="m 278.7,303.7 c 27.1,16.3 54.3,32.8 81.4,49.2 -2.2,5.1 -4.6,10.2 -7,15.2 -24.8,-14.8 -49.4,-29.9 -74.1,-44.7 -0.2,-6.6 0.2,-13.2 -0.3,-19.7 z"/><path class="st0" d="m 535.7,302.8 c 2.6,4.7 4.6,9.8 7.4,14.4 5.2,1.1 10.7,1.4 15.9,2.6 -3.8,3.9 -7.6,7.7 -11.5,11.4 0.9,5.3 2,10.6 2.7,16 -4.8,-2.4 -9.6,-5.4 -14.6,-7.4 -4.8,2.2 -9.5,5 -14.3,7.3 0.5,-5.1 2,-10.2 2.4,-15.3 0.2,-1.3 -1.3,-2.2 -2,-3.1 -3.2,-2.9 -6.2,-6 -9.5,-8.9 5.3,-0.9 10.7,-1.9 16.1,-2.3 2.2,-3.9 3.9,-8.1 6,-12 0.4,-0.9 0.9,-1.8 1.4,-2.7 z"/><path class="st1" d="m 278.8,343.1 c 0.3,19.9 0.1,39.9 0.1,59.8 -14.5,-3.1 -28.6,-9 -43,-12.6 -6.7,-2 -13.9,-1.6 -20.9,-2.7 -0.9,-1.4 -1.8,-2.8 -2.7,-4.2 12.8,-8.2 26.2,-15.8 39.1,-23.8 9.3,-5.2 18.1,-11.2 27.4,-16.5 z"/><path class="st0" d="m 278.8,343.1 c 21.5,12.9 43,26.1 64.4,38.9 0.8,0.4 1.3,1 1.7,1.6 -1.1,2.7 -2.7,4.9 -5,6.6 -6.9,5.4 -13.9,10.2 -22.4,12.7 -7.1,2 -14.7,3.4 -22,2.7 -5.6,-0.6 -11.1,-1.5 -16.6,-2.7 0,-19.9 0.2,-39.8 -0.1,-59.8 z"/><path class="st1" d="m 212.3,394 c 5.6,0.6 11,0.8 16.4,2.5 14.4,4.3 28.3,10.1 42.8,14.2 7.2,1.4 13.6,3.4 21,3.3 9.8,0.4 20.1,-1.6 28.7,-6.4 6.1,-3 11.1,-7.2 16.6,-10.9 -5.6,9.4 -12.6,18.5 -21.6,24.9 -6.4,5.2 -13.9,7.8 -21.9,9.6 -7.1,0.9 -14.9,0.5 -21.9,-1.2 -24.6,-4.9 -45.3,-18.4 -71.1,-21 -8.6,-1.6 -17.2,-1.3 -25.8,-1.1 -4.9,0.1 -9.6,1.2 -14.4,1.7 1.3,-1.5 2.8,-2.6 4.5,-3.6 13.8,-9 30.3,-13 46.7,-12 z"/><path class="st1" d="m 221.2,425.6 c 4.5,1.8 8.5,4.7 13.1,6.4 13.2,6.2 27.6,9.5 42.1,9.4 13,-0.5 24.5,-4.3 36.9,-7.7 7.2,-1.5 14.7,-2.9 22.1,-2.8 6.1,0.5 12.5,1.4 18.5,2.5 6.4,1.8 12.9,3.9 18.8,6.9 -13.3,-1.6 -26.7,-0.7 -39.5,3.2 -13.4,3.9 -25.7,9.6 -39.8,11 -14.1,1.2 -29,0.5 -42,-5.7 -11.6,-5.1 -22.4,-13.2 -30.2,-23.2 z"/><path class="st0" d="m 445.5,460.2 c 12.3,0.4 23.2,12.3 22.2,24.7 -0.1,5.4 -3,10.7 -7,14.2 -2.7,2.6 -8.5,7.8 -8.5,7.8 0,0 7.2,9 9.6,12 -3.6,3.5 -11.5,10 -11.5,10 l -39.9,-45.5 c 0,0 14.7,-13.1 22.5,-19.2 3.6,-2.8 8,-4 12.6,-4 z m -3,36.8 c 0,0 6.7,-5.4 9.6,-8.6 2.7,-3.5 0.5,-8.2 -2.2,-11 -2.6,-2.8 -7.1,-4.3 -10.3,-1.5 -2.7,2.5 -8.4,7.8 -8.4,7.8 z"/><path class="st0" d="m 134.7,482.7 c 2.2,6.8 1.4,13.7 -1.8,20 -3.8,-3.4 -7.8,-6.5 -11.4,-10.1 0.1,-2.7 0.5,-5.6 -0.8,-8 -3.3,-6.2 -10.2,-10.8 -17.4,-9.2 -9.5,2.1 -17.8,13.1 -14.4,23 1.9,4.8 7.2,9.5 12.1,10.8 5.5,1.2 8.2,-1.1 8.2,-1.1 l -1.5,-1.5 -8.4,-7.3 8.5,-9.8 c 0,0 14.5,12.3 21.3,18.9 -5.8,8.3 -14.2,14.6 -24.6,15.2 -15.4,-0.5 -29.5,-13.7 -31.3,-29 -1.8,-14.7 9.4,-29.1 23.1,-33.3 15.8,-4.1 33.2,6.2 38.4,21.4 z"/><path class="st0" d="m 382.2,501.6 c 4.9,12.3 9.7,24.7 14.5,37.1 1.9,4.8 2.3,9.8 0.3,14.7 -2.7,7 -9.1,11.5 -15.8,14.2 -7.8,3 -17.5,3.2 -24.3,-2 -4,-3 -5.6,-7.2 -7.4,-11.7 -4.3,-11.6 -9.1,-22.9 -13.3,-34.6 4.9,-1.6 9.6,-3.6 14.3,-5.5 5,12.4 9.7,25 14.7,37.5 1.1,3 4.2,4.8 7.3,4.6 2.5,-0.1 5,-1 6.9,-2.5 1,-0.8 1.8,-1.7 2.5,-2.7 0.6,-1 0.9,-2.1 1,-3.3 0.1,-1.3 -0.2,-2.5 -0.7,-3.7 -0.9,-1.9 -1.5,-3.9 -2.3,-5.9 -1.2,-3.2 -2.5,-6.3 -3.7,-9.5 -2.5,-6.3 -5,-12.6 -7.4,-19 -0.1,-0.2 -0.9,-2.4 -0.9,-2.4 4.8,-1.7 9.5,-3.8 14.3,-5.3 z"/><path class="st0" d="m 172.7,502.9 c 6.4,2.5 13,4.9 19.4,7.3 6.2,2.4 12.1,4.1 16.2,9.8 6.7,8.7 4.5,21.3 -3.2,28.6 -2.7,2.4 -5.9,3.7 -9.2,5.1 1.1,5.5 3.2,16.4 3.2,16.4 l 1.6,7.8 -16.8,-6.3 -2.3,-16.6 -0.8,-4.3 c 0,0 -5.6,-2.5 -8.3,-3.2 -2.3,5.9 -4.5,11.8 -6.7,17.6 -4.8,-2 -9.6,-3.8 -14.5,-5.4 6.9,-19 14.2,-37.9 21.4,-56.8 z m 4.1,32.3 c 4.1,1.6 8.3,3.6 12.7,4.6 6.7,0.6 11,-10.4 5.1,-14 -3.9,-1.8 -8.2,-3.7 -12.4,-4.6 -1.9,4.5 -3.5,9.3 -5.4,14 z"/><path class="st0" d="m 270.8,525.2 c 9.6,-1.6 20.4,1 27.5,7.8 6.6,5.9 9.8,15.2 9.3,23.8 0.4,8 -2.9,16 -8.3,21.8 -6.4,6.4 -15,8.9 -23.8,9.2 -8.1,-0.6 -16.1,-3 -21.9,-9.1 -5.2,-5 -7.8,-11.8 -8.4,-18.9 -1,-9.4 1.4,-19.2 8.4,-25.9 4.6,-4.8 10.7,-7.4 17.2,-8.7 z m 0.2,15.2 c -10.9,3.7 -13.2,18.2 -6.8,26.7 4.8,6.2 14.5,7.7 20.9,3.2 9.4,-6 9.4,-22.2 0.1,-28.2 -4,-2.9 -9.7,-3 -14.2,-1.7 z"/></svg>