<svg width="122" height="42" viewBox="0 0 122 42" fill="none" xmlns="http://www.w3.org/2000/svg">
<mask id="mask0_11326_5554" style="mask-type:luminance" maskUnits="userSpaceOnUse" x="0" y="0" width="122" height="42">
<path d="M121.519 0.172852H0.126221V41.2896H121.519V0.172852Z" fill="white"/>
</mask>
<g mask="url(#mask0_11326_5554)">
<path d="M87.8055 13.6266C87.8055 14.1461 87.8055 14.6257 87.8055 15.1052C87.845 15.1052 87.8846 15.1052 87.8846 15.0652C88.5575 14.1461 89.468 13.6266 90.5368 13.3469C91.6848 13.0272 92.7931 13.1072 93.9015 13.5067C94.7328 13.7865 95.3662 14.3459 95.8412 15.0652C95.8807 15.1451 95.9599 15.225 96.0391 15.3849C96.0787 15.305 96.1182 15.225 96.1579 15.1851C96.9496 14.1461 97.9788 13.4668 99.2458 13.267C100.513 13.0272 101.778 13.1471 102.927 13.7466C104.391 14.4658 105.222 15.6647 105.46 17.303C105.54 17.7026 105.54 18.1421 105.54 18.5417C105.54 21.4988 105.54 24.4559 105.54 27.4529C105.54 27.5728 105.54 27.6927 105.54 27.8126C104.154 27.8126 102.768 27.8126 101.383 27.8126C101.383 27.6527 101.383 27.5328 101.383 27.373C101.383 24.8156 101.383 22.2981 101.383 19.7406C101.383 19.4209 101.344 19.1412 101.304 18.8214C101.106 17.9423 100.552 17.3429 99.6413 17.1831C98.8102 17.0632 98.0183 17.1831 97.4246 17.9024C97.0287 18.3819 96.8308 18.9414 96.8308 19.5807C96.8308 20.6996 96.8308 21.8185 96.8308 22.9374C96.8308 24.416 96.8308 25.9344 96.8308 27.413C96.8308 27.5328 96.8308 27.6527 96.8308 27.7726C95.4057 27.7726 94.0203 27.7726 92.5952 27.7726C92.5952 27.6527 92.5952 27.5328 92.5952 27.373C92.5952 24.8156 92.5952 22.2581 92.5952 19.7007C92.5952 19.301 92.5556 18.9014 92.4369 18.5417C92.0807 17.6227 91.4473 17.2231 90.6159 17.1432C90.2993 17.1031 89.9431 17.1432 89.6264 17.2231C88.7555 17.5028 88.2805 18.1421 88.0825 19.0212C88.043 19.2211 88.043 19.4608 88.043 19.7007C88.043 22.2581 88.043 24.8156 88.043 27.373C88.043 27.4929 88.043 27.6128 88.043 27.7726C86.6179 27.7726 85.1928 27.7726 83.7678 27.7726C83.7678 23.0572 83.7678 18.3419 83.7678 13.6266C85.0345 13.6266 86.4199 13.6266 87.8055 13.6266Z" fill="black"/>
<path d="M117.375 14.9452C117.375 14.5057 117.375 14.0661 117.375 13.6265C118.761 13.6265 120.107 13.6265 121.492 13.6265C121.492 13.7064 121.492 13.8264 121.492 13.9062C121.492 18.142 121.492 22.3779 121.492 26.5737C121.492 28.1721 121.096 29.6506 120.304 31.0493C119.473 32.4879 118.286 33.4069 116.742 33.8465C114.921 34.366 113.06 34.366 111.239 33.8066C109.815 33.367 108.666 32.4879 107.795 31.2491C107.439 30.7296 107.162 30.1302 107.043 29.5308C107.043 29.4508 107.004 29.4109 107.004 29.331C107.004 29.2911 107.004 29.2111 106.964 29.1312C108.231 28.7715 109.458 28.4119 110.725 28.0523C110.764 28.1321 110.804 28.2521 110.804 28.332C111.16 29.4909 112.19 30.4099 113.614 30.4499C114.129 30.4499 114.644 30.4099 115.119 30.2501C116.188 29.8504 116.821 29.0113 117.098 27.9323C117.256 27.253 117.296 26.5338 117.256 25.8144L117.217 25.7745H117.177C116.583 26.5338 115.791 26.9334 114.842 27.0932C113.614 27.293 112.387 27.293 111.239 26.8135C109.181 26.0142 107.835 24.5357 107.241 22.4578C106.687 20.5397 106.805 18.6616 107.756 16.9033C108.548 15.3848 109.735 14.226 111.398 13.6665C112.665 13.2669 113.931 13.2269 115.198 13.5467C116.068 13.7465 116.781 14.226 117.375 14.9452ZM111.279 20.26C111.279 20.4198 111.279 20.5397 111.279 20.6995C111.398 21.8584 111.991 22.7375 113.06 23.1771C113.496 23.3769 114.011 23.4168 114.485 23.3769C115.831 23.297 116.781 22.4978 117.098 21.3788C117.256 20.8993 117.296 20.3799 117.256 19.8603C117.098 17.9422 115.317 16.6236 113.298 17.2629C112.031 17.7025 111.279 18.8215 111.279 20.26Z" fill="black"/>
<path d="M83.6882 11.668C83.6882 10.1895 83.6882 8.71095 83.6882 7.23242C96.2762 7.23242 108.864 7.23242 121.453 7.23242C121.531 7.43222 121.531 11.0686 121.492 11.6281C121.254 11.7079 84.3612 11.748 83.6882 11.668Z" fill="black"/>
<path d="M77.4341 34.1251C77.4341 32.6465 77.4341 31.168 77.4341 29.6895C86.8157 29.6895 96.1577 29.6895 105.54 29.6895C105.54 31.168 105.54 32.6465 105.54 34.1251C96.1972 34.1251 86.8157 34.1251 77.4341 34.1251Z" fill="black"/>
<path d="M81.8281 27.7719C80.3635 27.7719 78.8988 27.7719 77.3945 27.7719C77.3945 27.0926 77.3945 26.4532 77.3945 25.7738C77.3945 25.0945 77.3945 24.4551 77.3945 23.7758C77.3945 23.0965 77.3945 22.4572 77.3945 21.7779C77.3945 21.0985 77.3945 20.4592 77.3945 19.7798C77.3945 19.1005 77.3945 18.4611 77.3945 17.7818C77.3945 17.1025 77.3945 16.4631 77.3945 15.7838C77.3945 15.1044 77.3945 14.465 77.3945 13.7458C75.9299 13.7458 74.5049 13.7458 73.0403 13.7458C73.0403 12.7468 73.0403 11.7478 73.0403 10.7088C73.159 10.7088 73.2778 10.7088 73.3965 10.7088C74.6632 10.6289 75.7716 10.2693 76.7613 9.43008C77.3946 8.91059 77.7904 8.23127 77.9884 7.43206C77.9884 7.3921 78.0279 7.31218 78.0279 7.27222C79.2946 7.27222 80.5614 7.27222 81.8281 7.27222C81.8281 14.0655 81.8281 20.8987 81.8281 27.7719Z" fill="black"/>
<path d="M34.5244 29.1712C34.2473 29.1712 33.9702 29.1712 33.7327 29.1712C31.9513 29.1712 30.1305 29.1712 28.3491 29.1712C28.0721 29.1712 27.9533 29.0913 27.8741 28.8515C26.8053 25.7346 25.7365 22.6577 24.7073 19.5407C24.6678 19.4208 24.6281 19.301 24.5489 19.1012C24.4302 19.4609 24.3115 19.7006 24.2324 19.9803C23.2427 22.8974 22.2531 25.8545 21.2634 28.7715C21.1843 29.0513 21.0656 29.1312 20.7884 29.1312C18.8883 29.1312 16.9487 29.1312 15.0486 29.1312C14.9299 29.1312 14.8111 29.1312 14.6528 29.1312C14.8507 28.6517 15.0091 28.1722 15.1674 27.6926C17.0675 22.6577 18.9675 17.6226 20.828 12.6276C20.9468 12.3479 21.0656 12.228 21.3822 12.228C23.4802 12.228 25.5386 12.228 27.6366 12.228C27.9137 12.228 28.0324 12.3079 28.1512 12.5876C30.2096 17.9823 32.3076 23.4169 34.4056 28.8116C34.4848 28.9314 34.4848 29.0513 34.5244 29.1712Z" fill="black"/>
<path d="M67.4593 29.1712C67.3009 29.1712 67.1821 29.1712 67.0634 29.1712C65.1237 29.1712 63.1841 29.1712 61.2445 29.1712C60.9673 29.1712 60.8486 29.0913 60.7694 28.8515C59.7006 25.7346 58.6319 22.6577 57.6026 19.5407C57.5631 19.4208 57.5235 19.301 57.4443 19.1012C57.3651 19.301 57.3256 19.4609 57.286 19.5807C56.2567 22.6577 55.188 25.6946 54.1588 28.7715C54.0796 29.0513 53.9608 29.1712 53.6441 29.1712C51.7441 29.1712 49.8836 29.1712 47.9835 29.1712C47.8648 29.1712 47.746 29.1712 47.5876 29.1712C47.6273 29.0114 47.6668 28.8915 47.7065 28.7715C49.7252 23.3769 51.7837 17.9823 53.8025 12.5876C53.9213 12.3079 54.04 12.228 54.3567 12.228C56.4547 12.228 58.5527 12.228 60.6506 12.228C60.8882 12.228 61.007 12.3079 61.1257 12.5477C63.2237 17.9823 65.3217 23.4568 67.4197 28.8915C67.4197 28.9714 67.4196 29.0513 67.4593 29.1712Z" fill="black"/>
<path d="M49.2519 12.3074C49.2519 13.9458 49.2519 15.5842 49.2519 17.2624C47.7081 17.2624 46.2039 17.2624 44.6205 17.2624C44.6205 21.2585 44.6205 25.2146 44.6205 29.2107C42.3641 29.2107 40.1474 29.2107 37.891 29.2107C37.891 25.2545 37.891 21.2984 37.891 17.3025C36.2681 17.3025 34.6847 17.3025 33.1013 17.3025C33.1013 15.6241 33.1013 13.9857 33.1013 12.3473C38.4452 12.3074 43.8288 12.3074 49.2519 12.3074Z" fill="black"/>
<path d="M0.125977 12.3066C5.50951 12.3066 10.8931 12.3066 16.3162 12.3066C16.3162 13.945 16.3162 15.5835 16.3162 17.2618C14.7724 17.2618 13.2682 17.2618 11.6848 17.2618C11.6848 21.2578 11.6848 25.2139 11.6848 29.2099C9.42841 29.2099 7.17207 29.2099 4.91574 29.2099C4.91574 25.2538 4.91574 21.2978 4.91574 17.3017C3.29276 17.3017 1.74895 17.3017 0.125977 17.3017C0.125977 15.5835 0.125977 13.945 0.125977 12.3066Z" fill="black"/>
</g>
</svg>