<svg width="172" height="42" viewBox="0 0 172 42" fill="none" xmlns="http://www.w3.org/2000/svg">
<path fill-rule="evenodd" clip-rule="evenodd" d="M27.6253 11.7003L28.0751 8.70508H5.73197L5.39477 10.9015C5.02947 13.1835 4.49547 15.2374 3.76477 17.0344C2.89347 19.1454 1.79747 20.6857 0.701172 21.3986C1.79737 22.1118 2.86527 23.6237 3.76467 25.7631C4.49517 27.5315 5.05737 29.5854 5.39457 31.8959L5.73197 34.0923H28.0749L27.6252 31.0972C27.0632 27.3889 25.9951 24.0515 24.5337 21.5129L24.4775 21.4272L24.5337 21.3417C25.9669 18.7459 27.0633 15.4085 27.6253 11.7003ZM20.796 25.7916C21.1613 26.6474 21.4987 27.6172 21.7796 28.7011H10.1445C9.52617 25.8486 8.59867 23.367 7.44647 21.3702C8.59867 19.3735 9.49797 16.8918 10.1445 14.0393H21.7515C21.4705 15.1233 21.1333 16.0931 20.7679 16.9489C19.8123 19.2594 18.632 20.7997 17.5359 21.3703C18.66 21.9407 19.8405 23.4525 20.796 25.7916Z" fill="#EB493F"/>
<path fill-rule="evenodd" clip-rule="evenodd" d="M41.6015 33.9775H47.0785V13.6107H53.426V8.58218H35.2539V13.6109H41.6015V33.9775ZM62.0259 18.6617V8.58232H56.5488V33.9775H62.0259V23.6555H69.517V33.9775H74.994V8.58218H69.517V18.6616L62.0259 18.6617ZM85.4024 23.6902H94.9924V18.6617H85.4024V13.6107H96.6644V8.58218H79.9254V33.9775H96.6644V28.9491H85.4024V23.6902ZM128.709 8.58218H121.989L113.966 18.6387V8.58218H108.489V33.9775H113.966V26.3301L116.68 23.0365L122.769 33.9775H129.15L120.324 18.7873L128.709 8.58218ZM136.661 23.6903H146.25V18.6616H136.661V13.6109H147.923V8.58203H131.183V33.9773H147.922V28.9489H136.66V23.69L136.661 23.6903ZM156.63 8.58203H151.83V33.9773H157.307V19.7347L166.363 33.9775H171.163V8.58218H165.685V22.793L156.63 8.58203Z" fill="#EB493F"/>
</svg>
