<svg width="51" height="32" viewBox="0 0 51 32" fill="none" xmlns="http://www.w3.org/2000/svg">
<g clip-path="url(#clip0_10550_7981)">
<path d="M11.6698 4.31232H38.0665L48.1624 16.1232L38.0705 27.7718H11.6698L1.53788 16.0831L11.6698 4.31232ZM38.7056 3H11.0327L-0.19519 16.0411L11.0347 29H38.7056L49.8934 16.0831L38.7056 3Z" fill="#000"/>
<path d="M32.4005 12.6111C32.8793 12.6031 33.3722 12.7453 33.6868 12.9797C34.4241 13.5247 34.6144 14.0476 34.6164 15.5142V20.485H32.9915L32.9935 15.5743C32.9935 15.5511 32.9936 15.528 32.9936 15.505C32.9942 15.0973 32.9948 14.7248 32.8032 14.4403C32.6129 14.1578 32.2402 14.0396 31.9697 14.0516C31.3646 14.0777 31.0381 14.5064 31.0381 14.8971V20.487H29.4132V9.77806H31.0381V13.0619C31.3827 12.7854 31.8796 12.6191 32.4005 12.6111Z" fill="#000"/>
<path fill-rule="evenodd" clip-rule="evenodd" d="M19.4516 12.6111C20.5175 12.6111 21.8178 13.1019 22.0482 15.392C22.0682 15.6064 22.0942 16.3737 22.0942 16.6542C22.0942 17.2773 22.0602 17.7962 22.0522 17.9165C21.946 19.5954 20.9763 20.6573 19.4516 20.6573C17.9289 20.6573 16.9531 19.6115 16.851 17.9165C16.8501 17.9021 16.8488 17.8833 16.8473 17.8602C16.8347 17.673 16.8035 17.2089 16.8089 16.6542C16.8169 15.7987 16.8389 15.5322 16.853 15.388C17.0193 13.5728 17.9389 12.6111 19.4516 12.6111ZM20.4352 18.0695C20.4457 17.9561 20.4754 17.6344 20.4754 16.6562C20.4754 15.6064 20.4353 15.1696 20.4333 15.1576C20.4233 14.5725 20.1167 13.9815 19.4516 13.9815C18.7864 13.9815 18.4799 14.5745 18.4718 15.1656C18.4718 15.1656 18.4717 15.1675 18.4714 15.1707C18.4671 15.2225 18.4298 15.6675 18.4298 16.6562C18.4298 17.7041 18.4698 18.0587 18.4718 18.0627C18.5019 18.6297 18.7764 19.2869 19.4516 19.2869C20.1288 19.2869 20.3772 18.6718 20.4333 18.0908C20.4338 18.0846 20.4345 18.0776 20.4352 18.0695Z" fill="#000"/>
<path fill-rule="evenodd" clip-rule="evenodd" d="M39.3167 18.1028C39.3348 17.9585 39.3327 17.8383 39.3327 17.8383L40.8955 17.8403C40.7913 19.6175 39.8056 20.6613 38.335 20.6613C36.8604 20.6613 35.8746 19.5874 35.7765 17.9205C35.7756 17.9045 35.7743 17.8812 35.7725 17.8513C35.7614 17.6597 35.7344 17.1972 35.7344 16.6582C35.7344 15.819 35.7583 15.5762 35.7744 15.4128C35.7751 15.4057 35.7758 15.3988 35.7765 15.392C35.9548 13.5668 36.8704 12.6131 38.333 12.6131C39.0943 12.6131 39.7375 12.9096 40.1923 13.4706C40.585 13.9575 40.8414 14.7068 40.8915 15.394C40.9157 15.7539 40.9243 15.9604 40.9299 16.0941C40.9312 16.1264 40.9324 16.1544 40.9336 16.1794C40.9436 16.504 40.9376 17.0429 40.9376 17.0429H37.3152C37.3137 17.5413 37.3317 17.7735 37.344 17.9317C37.348 17.9822 37.3513 18.0251 37.3532 18.0667C37.3973 18.6778 37.6578 19.2889 38.331 19.2889C39.1224 19.2889 39.2706 18.4815 39.3167 18.1028ZM37.3337 15.4281C37.3317 15.4942 37.329 15.579 37.3252 15.6925H39.3528C39.3542 15.5789 39.3464 15.4705 39.3366 15.336C39.3328 15.2832 39.3287 15.2263 39.3247 15.1636C39.2967 14.7408 39.1144 13.9775 38.335 13.9835C37.6778 13.9895 37.3913 14.5205 37.3452 15.1616C37.3398 15.2311 37.338 15.2876 37.3337 15.4281Z" fill="#000"/>
<path fill-rule="evenodd" clip-rule="evenodd" d="M15.6769 17.1931L15.8432 19.8217C15.8553 20.1411 15.909 20.4039 15.9224 20.4693C15.9245 20.4798 15.9253 20.4849 15.9253 20.4849H14.3205C14.3205 20.4849 14.2544 20.1844 14.2404 19.8318L14.0741 17.3434C13.9859 16.0751 13.4049 15.6243 12.888 15.6243H11.9964V20.4849H10.3936V9.86212H12.8739C14.3926 9.87814 15.6829 10.6074 15.6909 12.6871C15.6969 14.0515 15.1279 14.7047 14.6892 14.9692C15.2982 15.3238 15.6048 16.017 15.6769 17.1931ZM12.7657 11.2305H11.9964L11.9944 14.2519H12.8419C13.8216 14.2519 14.028 13.4324 14.0741 12.9616C14.0801 12.9075 14.0821 12.8554 14.0821 12.7112C14.0821 12.624 14.079 12.5653 14.0765 12.5178C14.0755 12.4987 14.0746 12.4814 14.0741 12.4647C14.054 11.6733 13.6012 11.2305 12.7657 11.2305Z" fill="#000"/>
<path d="M26.7725 18.0626C26.7785 17.9865 26.7866 17.8803 26.7926 17.7641H28.3994C28.402 17.7921 28.3988 17.8208 28.3952 17.8545C28.3931 17.8739 28.3909 17.8949 28.3894 17.9184C28.2391 19.7015 27.3676 20.6652 25.7888 20.6592C24.2661 20.6552 23.2924 19.6134 23.1882 17.9184L23.1877 17.9121C23.177 17.7725 23.1382 17.2697 23.1461 16.6561C23.1541 15.8006 23.1762 15.5342 23.1902 15.3899C23.3565 13.5747 24.2781 12.613 25.7888 12.613C26.8547 12.613 28.2071 13.1499 28.3894 15.3699C28.3921 15.4046 28.3947 15.4554 28.398 15.5175C28.3996 15.5485 28.4014 15.5823 28.4034 15.6183H26.7966C26.7881 15.3552 26.7767 15.2129 26.7735 15.1719C26.7729 15.1645 26.7725 15.1595 26.7725 15.1595C26.7645 14.5745 26.478 13.9794 25.7928 13.9834C25.1276 13.9874 24.8712 14.5023 24.8131 15.1655C24.812 15.1767 24.8109 15.1883 24.8097 15.2005C24.7927 15.3747 24.7635 15.6752 24.771 16.6561C24.7724 16.8673 24.773 17.042 24.7736 17.1896C24.7753 17.6706 24.776 17.8641 24.799 18.0987C24.8491 18.6036 25.1156 19.2868 25.7928 19.2868C26.5181 19.2868 26.7264 18.6557 26.7725 18.0626Z" fill="#000"/>
</g>
<defs>
<clipPath id="clip0_10550_7981">
<rect width="50" height="32" fill="white" transform="translate(0.138184)"/>
</clipPath>
</defs>
</svg>