<svg width="101" height="42" viewBox="0 0 101 42" fill="none" xmlns="http://www.w3.org/2000/svg">
<path fill-rule="evenodd" clip-rule="evenodd" d="M56.3407 34.4916L56.3339 34.4911C56.3224 34.4911 56.3125 34.4926 56.3006 34.4926C56.2308 34.4926 56.161 34.4812 56.0792 34.4692L56.0907 32.7869C56.0907 32.7166 56.1141 32.6463 56.161 32.6177C56.2016 32.5916 56.262 32.5849 56.3401 32.5833C56.362 32.5823 56.3855 32.5817 56.411 32.5817C56.7026 32.5817 56.9714 32.6458 57.1818 32.8328C57.3276 32.9671 57.4386 33.2182 57.4386 33.4869C57.4386 33.7557 57.2516 34.4916 56.3407 34.4916ZM58.8625 36.3197C58.7229 36.3197 58.5594 36.3077 58.4484 36.2087C58.3609 36.127 57.9875 35.6009 57.9521 35.5426C57.9057 35.4728 57.5432 34.9233 57.4729 34.8301C57.3917 34.7254 57.2865 34.6202 57.1229 34.5614V34.5385C57.7656 34.4333 58.2094 34.1291 58.2094 33.3932C58.2094 33.1713 58.1036 32.926 57.8938 32.7395C57.6604 32.5286 57.2985 32.3713 56.8313 32.3713C56.6558 32.3713 56.1188 32.389 55.7917 32.389C55.2199 32.389 55.0329 32.3713 54.9923 32.3713C54.9631 32.3713 54.9511 32.3828 54.9511 32.4125V32.5703C54.9511 32.5932 54.9631 32.6046 54.9923 32.6046H55.2199C55.3251 32.6046 55.4063 32.6984 55.4063 32.8968V34.4333C55.4063 34.9817 55.4063 35.5306 55.3949 36.1155C55.3949 36.2728 55.3016 36.3082 55.173 36.3082H54.9751C54.9511 36.3082 54.9397 36.3254 54.9397 36.3551V36.4889C54.9397 36.5238 54.9511 36.5415 54.9865 36.5415C55.0449 36.5415 55.1844 36.5238 55.7573 36.5238C56.3641 36.5238 56.4813 36.5415 56.5568 36.5415C56.6037 36.5415 56.6209 36.5301 56.6209 36.4889V36.3483C56.6209 36.3254 56.6094 36.3077 56.574 36.3077H56.2823C56.1886 36.3077 56.1485 36.2025 56.1308 36.0858C56.1188 35.9983 56.1073 35.3442 56.1073 34.9937V34.6786C56.1714 34.6723 56.2709 34.6666 56.2943 34.6666C56.5391 34.6666 56.6735 34.8244 56.8198 35.0286C56.9131 35.1572 57.0766 35.4259 57.1349 35.5306C57.1875 35.6244 57.4151 36.0452 57.5203 36.2087C57.5958 36.3311 57.7068 36.4889 57.7771 36.5421C57.9057 36.5358 58.1276 36.5238 58.2906 36.5238C58.6646 36.5238 58.8167 36.5415 58.8625 36.5415C58.8979 36.5415 58.9094 36.5238 58.9094 36.4832V36.3603C58.9094 36.3369 58.8979 36.3197 58.8625 36.3197ZM70.4633 36.3077H70.2185C70.0779 36.3077 69.9841 36.2848 69.9841 36.0973L69.9727 34.6317V34.176C69.9727 34.1057 69.9846 32.8213 69.9846 32.7625C69.9846 32.6515 70.0784 32.6046 70.2065 32.6046H70.4284C70.4513 32.6046 70.4753 32.5932 70.4753 32.5578V32.4239C70.4753 32.3948 70.4633 32.3713 70.4284 32.3713C70.3466 32.3713 70.1596 32.389 69.5992 32.389C69.0274 32.389 68.7237 32.3713 68.6534 32.3713C68.63 32.3713 68.6185 32.3828 68.6185 32.4125V32.5635C68.6185 32.5932 68.63 32.6052 68.6654 32.6052H68.969C69.1321 32.6052 69.1909 32.6635 69.2086 32.8036C69.2138 32.8796 69.2253 33.9307 69.2253 34.0708V34.4796C69.2253 34.7952 69.2138 36.0567 69.2024 36.1384C69.1789 36.2962 69.0503 36.3077 68.9336 36.3077H68.7003C68.6654 36.3077 68.6534 36.3191 68.6534 36.3431V36.5004C68.6534 36.5301 68.6654 36.5421 68.7003 36.5421C68.7586 36.5421 69.0154 36.5238 69.5992 36.5238C70.1482 36.5238 70.3815 36.5415 70.4513 36.5415C70.4867 36.5415 70.5096 36.5301 70.5096 36.4947V36.3488C70.5096 36.3192 70.4872 36.3077 70.4633 36.3077ZM85.7182 32.3713C85.6604 32.3713 85.5312 32.389 85.1578 32.389C84.7489 32.389 84.5041 32.3713 84.4453 32.3713C84.4224 32.3713 84.4104 32.3828 84.4104 32.4125V32.5583C84.4104 32.5875 84.4224 32.6052 84.4573 32.6052H84.6088C84.7843 32.6052 84.8192 32.7099 84.8078 32.8156C84.7958 32.9614 84.0422 34.176 83.8443 34.503C83.6864 34.176 82.9859 32.8796 82.9745 32.7739C82.9625 32.6515 83.0094 32.6046 83.1375 32.6046H83.2896C83.3245 32.6046 83.3364 32.5817 83.3364 32.5463V32.4125C83.3364 32.3828 83.3245 32.3708 83.2896 32.3708C83.2312 32.3708 83.0208 32.389 82.4255 32.389C81.9823 32.389 81.7016 32.3713 81.6547 32.3713C81.6198 32.3713 81.6078 32.3828 81.6078 32.4062V32.564C81.6078 32.5932 81.6198 32.6046 81.6547 32.6046H81.7599C81.8537 32.6046 81.9823 32.6515 82.0516 32.7333C82.2151 32.938 83.1609 34.6202 83.2547 34.7952V35.0754C83.2547 35.6244 83.2427 36.0806 83.237 36.1619C83.2312 36.2494 83.1849 36.3077 83.0328 36.3077H82.7932C82.7641 36.3077 82.7526 36.3311 82.7526 36.3546V36.4889C82.7526 36.5181 82.7641 36.5415 82.7932 36.5415C82.8453 36.5415 83.0328 36.5238 83.6047 36.5238C84.1302 36.5238 84.3635 36.5415 84.4276 36.5415C84.4567 36.5415 84.4692 36.5238 84.4692 36.4832V36.3488C84.4692 36.3254 84.4567 36.3077 84.4276 36.3077H84.2354C84.1187 36.3077 84.025 36.2962 84.0078 36.1093C84.0021 36.0452 83.9901 35.6593 83.9901 35.4374V34.7254C84.212 34.34 85.1812 32.8442 85.2749 32.7395C85.3677 32.6406 85.5083 32.6046 85.5895 32.6046H85.7182C85.7531 32.6046 85.7651 32.5817 85.7651 32.5463V32.4125C85.7651 32.3828 85.7531 32.3713 85.7182 32.3713ZM63.8551 34.0244C63.6218 33.9541 63.2947 33.814 63.1426 33.6619C63.0025 33.5104 62.9796 33.3348 62.9796 33.1364C62.9796 32.9203 63.166 32.5463 63.6332 32.5463C63.902 32.5463 64.0884 32.6286 64.2405 32.7916C64.4504 33.0135 64.5441 33.2473 64.6025 33.4109C64.6144 33.4458 64.6374 33.452 64.6608 33.4458L64.7546 33.4166C64.7775 33.4109 64.7889 33.3994 64.7889 33.376C64.7889 33.3177 64.6962 32.5 64.6962 32.4062C64.6962 32.3479 64.6842 32.3125 64.6493 32.3125C64.6145 32.3125 64.5905 32.3244 64.5671 32.3479L64.4915 32.4239C64.4624 32.4531 64.4275 32.4645 64.3691 32.4411C64.252 32.3942 64.0186 32.301 63.6332 32.301C63.2947 32.301 63.0374 32.3828 62.8041 32.5817C62.5239 32.8036 62.3957 33.0723 62.3957 33.3994C62.3957 33.7557 62.489 34.0473 62.6874 34.2343C62.9676 34.4916 63.353 34.6551 63.54 34.7254C64.1587 34.9588 64.404 35.1338 64.404 35.6712C64.404 36.1556 63.9603 36.3546 63.6452 36.3546C63.353 36.3546 63.0494 36.2145 62.8744 35.9337C62.7108 35.677 62.664 35.4551 62.6525 35.2681C62.6525 35.2332 62.6405 35.2213 62.6176 35.2213L62.489 35.2098C62.4661 35.2098 62.4598 35.2213 62.4541 35.2567C62.4421 35.3265 62.3603 36.2728 62.3489 36.3431C62.3489 36.4014 62.3723 36.4369 62.4187 36.4369C62.4655 36.4369 62.489 36.4249 62.5239 36.366C62.5588 36.3077 62.5822 36.2613 62.6176 36.2613C62.6525 36.2613 62.6874 36.2848 62.7577 36.3311C62.991 36.5066 63.2713 36.6119 63.7499 36.6119C64.5207 36.6119 64.9879 36.0275 64.9879 35.315C64.9879 34.9233 64.8827 34.6786 64.6962 34.4796C64.4738 34.2458 64.1936 34.1291 63.8551 34.0244ZM23.382 32.3713C23.3351 32.3713 23.1487 32.389 22.7862 32.389C22.4008 32.389 22.1325 32.3713 22.0742 32.3713C22.0393 32.3713 22.0273 32.3828 22.0273 32.4182V32.564C22.0273 32.5875 22.0393 32.6046 22.0742 32.6046H22.2846C22.4127 32.6046 22.5065 32.7099 22.5237 32.8619C22.5409 32.9963 22.5877 33.5104 22.5877 33.9775V35.0286C22.5877 35.4556 22.4711 35.7942 22.2492 36.0155C22.0622 36.191 21.7357 36.2962 21.4669 36.2962C21.1867 36.2962 20.8716 36.2025 20.6732 35.9337C20.5326 35.7473 20.4862 35.4785 20.469 35.2098C20.457 35.0228 20.4513 34.6082 20.4513 34.3166V33.5921C20.4513 33.2536 20.4628 32.9026 20.469 32.8328C20.4742 32.7099 20.5794 32.6046 20.7544 32.6046H20.9997C21.0352 32.6046 21.0466 32.5932 21.0466 32.5578V32.4119C21.0466 32.3828 21.0352 32.3713 20.9997 32.3713C20.93 32.3713 20.6498 32.389 20.1591 32.389C19.5987 32.389 19.3185 32.3713 19.2602 32.3713C19.2133 32.3713 19.2019 32.3828 19.2019 32.4182V32.5526C19.2019 32.5932 19.2133 32.6046 19.2487 32.6046H19.517C19.669 32.6046 19.7154 32.6984 19.7154 32.8968V34.2812C19.7154 35.0468 19.7388 35.4317 19.8206 35.689C19.9373 36.0624 20.1711 36.3311 20.5097 36.4712C20.7315 36.565 21.0701 36.6119 21.3503 36.6119C21.794 36.6119 22.168 36.4712 22.4127 36.2494C22.7284 35.9692 22.8679 35.6072 22.9034 35.128C22.9263 34.8942 22.9382 33.8781 22.9382 33.7963C22.9382 33.7202 22.9382 32.9026 22.9497 32.8328C22.9612 32.7687 22.9851 32.6046 23.195 32.6046H23.4054C23.4346 32.6046 23.4403 32.5875 23.4403 32.5526V32.4182C23.4403 32.389 23.4346 32.3713 23.382 32.3713ZM77.984 32.2369C77.972 32.1672 77.961 32.1432 77.9256 32.1432C77.8907 32.1432 77.8673 32.1672 77.8204 32.202C77.7329 32.2661 77.5111 32.3479 77.4001 32.3536C77.1314 32.3656 76.8866 32.389 76.2439 32.389H75.9288C75.3569 32.389 75.1116 32.3656 74.7965 32.3536C74.633 32.3484 74.5163 32.3187 74.3991 32.202C74.3642 32.1672 74.3413 32.1437 74.3054 32.1437C74.2825 32.1437 74.2476 32.1672 74.2356 32.2489C74.2127 32.3307 74.0143 33.1015 73.9559 33.3229C73.9497 33.3525 73.9559 33.3697 73.9794 33.3817L74.096 33.4223C74.1247 33.4343 74.1424 33.4109 74.1601 33.3817C74.271 33.1833 74.4929 32.7979 74.6793 32.7156C74.9241 32.6338 75.3455 32.6338 75.5319 32.6338H75.6955V34.0942C75.6955 34.2109 75.6955 35.9983 75.6783 36.1504C75.672 36.2374 75.6022 36.3077 75.4856 36.3077H75.1522C75.1293 36.3077 75.1116 36.3192 75.1116 36.3546V36.4889C75.1116 36.5301 75.1236 36.5415 75.1585 36.5415C75.2403 36.5415 75.4856 36.5238 76.0803 36.5238C76.7111 36.5238 76.898 36.5415 76.9569 36.5415C77.0038 36.5415 77.0152 36.5181 77.0152 36.4832V36.3603C77.0152 36.3311 77.0033 36.3082 76.9798 36.3082H76.6413C76.5007 36.3082 76.4423 36.191 76.4423 35.7473V32.6338H76.6059C76.8168 32.6338 77.3418 32.6458 77.5053 32.7395C77.6689 32.8562 77.885 33.2302 77.9668 33.3932C77.984 33.4286 77.9954 33.4458 78.0189 33.44L78.1355 33.3994C78.1537 33.3932 78.1652 33.3817 78.159 33.3468C78.1126 33.0666 77.9954 32.3416 77.984 32.2369ZM31.1584 32.3713C31.0881 32.3713 30.9485 32.389 30.598 32.389C30.2011 32.389 30.0141 32.3713 29.9438 32.3713C29.897 32.3713 29.897 32.3828 29.897 32.4182V32.5526C29.897 32.5817 29.897 32.6046 29.9324 32.6046H30.1193C30.2594 32.6046 30.3876 32.6869 30.4287 32.827C30.4579 32.926 30.4808 33.4989 30.4928 33.7202C30.5048 34.0119 30.5048 34.3046 30.5048 34.8181V35.4265H30.4813C30.3876 35.3098 29.4772 34.1765 29.3954 34.0827C29.2782 33.9197 28.134 32.4828 28.0756 32.4244C28.0407 32.3895 28.0058 32.3718 27.9355 32.3718C27.9006 32.3718 27.848 32.3776 27.772 32.3776C27.7022 32.3833 27.6147 32.3895 27.5152 32.3895C27.2585 32.3895 27.1007 32.3895 26.996 32.3833C26.8908 32.3781 26.8439 32.3718 26.8147 32.3718C26.7913 32.3718 26.7798 32.3833 26.7798 32.4067V32.5645C26.7798 32.588 26.7913 32.5994 26.8147 32.6052H27.0017C27.2585 32.6052 27.4569 32.8739 27.4569 33.2249V33.9666C27.4569 34.9004 27.422 35.7186 27.4163 35.8233C27.3871 36.1796 27.3053 36.3082 27.1533 36.3082H26.9553C26.9314 36.3082 26.9199 36.3317 26.9199 36.3436V36.4895C26.9199 36.5306 26.9314 36.5421 26.9548 36.5421C27.0132 36.5421 27.4105 36.5244 27.5621 36.5244C27.784 36.5244 28.134 36.5421 28.1923 36.5421C28.2392 36.5421 28.2392 36.5306 28.2392 36.4952V36.3608C28.2392 36.3317 28.2392 36.3087 28.1923 36.3087H28.0407C27.8303 36.3087 27.7605 36.1681 27.7491 35.8764C27.7371 35.6952 27.6902 34.8775 27.6902 33.8848V33.1713H27.7256C27.796 33.2531 28.7298 34.4213 28.8116 34.503C28.8814 34.5968 29.3371 35.1457 29.7454 35.6478C30.1074 36.0801 30.4225 36.4421 30.4693 36.5004C30.5162 36.5473 30.586 36.5941 30.6678 36.5941C30.7381 36.5941 30.7381 36.5124 30.7381 36.4301V34.8885C30.7381 34.2926 30.7964 33.3114 30.8256 32.9145C30.8433 32.6984 30.9016 32.6046 31.0183 32.6046H31.1818C31.2053 32.6046 31.2167 32.5817 31.2167 32.5463V32.4125C31.2167 32.3948 31.2053 32.3713 31.1584 32.3713ZM51.3231 35.4608C51.2996 35.4494 51.2824 35.4556 51.259 35.4848C51.1481 35.6244 50.8215 36.0098 50.7163 36.1035C50.5642 36.2322 50.3424 36.29 50.2372 36.302C50.1205 36.3134 49.8517 36.3254 49.7471 36.3254C49.5252 36.3254 49.3851 36.302 49.2919 36.2785C49.1632 36.2436 49.058 36.127 49.058 35.8228C49.058 35.7181 49.0466 35.1457 49.0408 34.8301L49.0346 34.4796C49.2215 34.4796 49.5017 34.4916 49.7116 34.5145C49.8403 34.5265 49.9512 34.6082 50.0038 34.7254C50.033 34.7952 50.0741 34.9233 50.0976 35.0171C50.109 35.052 50.1205 35.064 50.1439 35.0577L50.2726 35.0348C50.3075 35.0286 50.3194 35.0228 50.3194 34.9937C50.3075 34.865 50.284 34.5853 50.284 34.351C50.284 34.1994 50.284 33.814 50.296 33.7208C50.3012 33.6854 50.284 33.6739 50.2606 33.6739L50.1095 33.6619C50.0856 33.6619 50.0621 33.6739 50.0621 33.7088C50.0621 33.814 50.0038 33.9598 49.9689 34.0359C49.8986 34.176 49.8283 34.2228 49.7002 34.2458C49.6299 34.264 49.2101 34.2754 49.0346 34.2754L49.0466 32.5875L49.934 32.6109C50.0976 32.6166 50.2549 32.6927 50.3773 32.7625C50.5179 32.8442 50.996 33.3817 51.0194 33.4166C51.0371 33.4458 51.0548 33.452 51.0725 33.4458L51.1778 33.3989C51.2007 33.388 51.2069 33.3703 51.1949 33.3348C51.1715 33.2765 50.9496 32.4823 50.9262 32.4062C50.921 32.3828 50.9085 32.3713 50.8793 32.3713C50.8507 32.3713 50.7397 32.377 50.646 32.377C50.3892 32.377 49.0465 32.389 48.7898 32.389H48.6262C48.1471 32.3942 47.9372 32.3713 47.8086 32.3713C47.7794 32.3713 47.7737 32.3828 47.7737 32.4125V32.5635C47.7737 32.5932 47.7851 32.6052 47.8086 32.6052H48.0304C48.2054 32.6052 48.2638 32.652 48.2877 32.8093C48.2992 32.8911 48.3106 33.6156 48.3106 34.0942V36.0567C48.3106 36.2728 48.2877 36.3077 48.019 36.3077H47.8205C47.7737 36.3077 47.7622 36.3192 47.7622 36.3546V36.4952C47.7622 36.5301 47.7737 36.5421 47.8091 36.5421C47.9138 36.5421 48.1236 36.5238 48.5559 36.5238C50.5059 36.5238 50.9616 36.5415 51.0194 36.5415C51.0897 36.5415 51.1304 36.5066 51.1481 36.454L51.4283 35.578C51.4402 35.5483 51.434 35.5311 51.4168 35.5192L51.3231 35.4608ZM44.3758 32.3713C44.3289 32.3713 44.1779 32.389 43.6868 32.389C43.3133 32.389 43.0446 32.3713 42.9982 32.3713C42.9633 32.3713 42.9514 32.3828 42.9514 32.4182V32.5526C42.9514 32.5817 42.9691 32.6046 42.992 32.6046H43.1498C43.3133 32.6046 43.3717 32.6984 43.3717 32.7687C43.3717 33.0083 43.0097 33.89 42.9165 34.1645C42.8581 34.3395 42.4842 35.3093 42.3441 35.6358V35.6478H42.3326C42.2389 35.3327 41.9238 34.4098 41.842 34.1879C41.7253 33.8494 41.5035 33.1598 41.4629 32.9494C41.4451 32.8677 41.4451 32.7979 41.4451 32.751C41.4451 32.6635 41.5389 32.6052 41.6905 32.6052H41.9707C42.0056 32.6052 42.0175 32.5875 42.0175 32.5463V32.4182C42.0175 32.389 42.0056 32.3713 41.9587 32.3713C41.9118 32.3713 41.6436 32.389 41.0946 32.389C40.4879 32.389 40.2889 32.3713 40.2306 32.3713C40.2077 32.3713 40.1957 32.3828 40.1957 32.4182V32.5526C40.1957 32.5875 40.2077 32.6046 40.2306 32.6046H40.3712C40.4993 32.6046 40.5691 32.6635 40.6222 32.7921C40.6863 32.9614 40.9431 33.7088 41.0946 34.1291C41.2936 34.6723 41.7837 36.0098 41.9821 36.5066C42.0113 36.5764 42.0404 36.6405 42.1108 36.6405C42.1576 36.6405 42.204 36.6119 42.2274 36.565C42.2858 36.4421 42.9868 34.7369 43.1029 34.4796C43.267 34.0942 43.617 33.1828 43.8097 32.8734C43.9441 32.6635 44.0961 32.6046 44.2357 32.6046H44.3763C44.4107 32.6046 44.4227 32.5875 44.4227 32.5578V32.4119C44.4227 32.3828 44.4107 32.3713 44.3758 32.3713ZM36.6229 36.3077H36.3781C36.2374 36.3077 36.1442 36.2848 36.1442 36.0973L36.1322 34.6317V34.176C36.1322 34.1057 36.1442 32.8213 36.1442 32.7625C36.1442 32.6515 36.238 32.6046 36.3661 32.6046H36.588C36.6114 32.6046 36.6348 32.5932 36.6348 32.5578V32.4239C36.6348 32.3948 36.6229 32.3713 36.588 32.3713C36.5062 32.3713 36.3192 32.389 35.7588 32.389C35.1864 32.389 34.8833 32.3713 34.813 32.3713C34.7896 32.3713 34.7781 32.3828 34.7781 32.4125V32.5635C34.7781 32.5932 34.7896 32.6052 34.825 32.6052H35.1286C35.2916 32.6052 35.35 32.6635 35.3677 32.8036C35.3734 32.8796 35.3854 33.9307 35.3854 34.0708V34.4796C35.3854 34.7952 35.3734 36.0567 35.3619 36.1384C35.3385 36.2962 35.2099 36.3077 35.0932 36.3077H34.8599C34.8245 36.3077 34.813 36.3191 34.813 36.3431V36.5004C34.813 36.5301 34.8245 36.5421 34.8599 36.5421C34.9182 36.5421 35.175 36.5238 35.7588 36.5238C36.3078 36.5238 36.5411 36.5415 36.6114 36.5415C36.6463 36.5415 36.6697 36.5301 36.6697 36.4947V36.3488C36.6697 36.3192 36.6463 36.3077 36.6229 36.3077ZM73.8132 14.5811C72.7627 15.4649 72.2299 16.5638 72.2299 17.8461C72.2299 19.2127 72.7934 20.3263 73.9044 21.1549C75.046 22.0059 76.9491 22.6517 79.5615 23.0741C80.8896 23.2955 81.7625 23.5262 82.2318 23.7788C82.7516 24.0585 83.0146 24.4632 83.0146 24.9824C83.0146 25.5293 82.7354 25.9803 82.1854 26.3235C81.6688 26.6454 80.9511 26.8079 80.0516 26.8079C79.0126 26.8079 78.1235 26.5631 77.409 26.0813C76.7449 25.6329 76.3704 25.023 76.2772 24.2767H72.8585V29.4766H76.2392V28.2995L76.6371 28.7355C77.3131 29.475 78.611 29.85 80.4933 29.85C82.5318 29.85 84.1234 29.3526 85.2234 28.3709C86.3171 27.3954 86.8713 26.1235 86.8713 24.5913C86.8713 23.5153 86.5812 22.5809 86.0083 21.8153C85.4317 21.0455 84.6541 20.4862 83.6958 20.1523C82.7037 19.8065 81.1839 19.4544 79.1803 19.1081C77.8647 18.8752 77.0621 18.6763 76.7272 18.4997C76.3413 18.2966 76.1371 17.9763 76.1371 17.5737C76.1371 16.5878 76.9798 16.0883 78.6423 16.0883C80.6969 16.0883 81.9537 16.668 82.3906 17.8044H85.7676V13.4879H82.4708V14.1644L82.1537 14.0306C80.8964 13.5009 79.5266 13.2321 78.0819 13.2321C76.3111 13.2321 74.8741 13.6858 73.8132 14.5811ZM67.5686 8.59682L64.4488 10.8379V13.6035H62.3603V16.6576H64.4488V25.6314C64.4488 28.2954 65.7004 29.5365 68.3873 29.5365C69.5404 29.5365 70.7445 29.2912 71.9685 28.8157V25.9371C71.4877 26.0772 71.0612 26.159 70.6971 26.159C69.9748 26.159 69.5065 26.0011 69.2659 25.6761C69.0477 25.3829 68.9461 24.898 68.9461 24.1517V16.6571H71.9685V13.604H68.9461V7.60622L67.5686 8.59682ZM55.8396 7.62028C54.8407 8.70359 54.3345 10.0786 54.3345 11.7061V13.5946H52.1262V16.6487H54.3345V26.2522H52.123V29.2891H61.4124V26.2522H58.8307V16.6482H61.4124V13.5946H58.8307V11.4171C58.8307 9.22441 59.7734 8.76452 60.5651 8.76452C61.2661 8.76452 61.8161 9.28118 62.2062 10.289L65.2905 7.87861C64.2556 6.6354 62.5968 6 60.3447 6C58.3458 6 56.8302 6.54478 55.8396 7.62028ZM42.3253 13.6014V16.655H44.8565V24.6116L44.7055 24.7241C43.5909 25.5506 42.5384 25.9699 41.5764 25.9699C40.8056 25.9699 40.2509 25.773 39.9285 25.3845C39.6191 25.0121 39.4681 24.3855 39.4681 23.4699V13.6014H32.5266V16.655H34.9896V24.8121C34.9896 26.3214 35.4062 27.498 36.2275 28.3084C37.0504 29.1214 38.2155 29.5334 39.691 29.5334C41.2243 29.5334 42.7639 29.0073 44.2675 27.9688L44.8571 27.562V29.2959H51.1835V26.2589H49.3528V13.6014H42.3253ZM15.1426 6.22708V15.1998H18.4498V9.92179H22.7518V26.0949H19.2008V29.3354H31.6964V26.0949H28.1475V9.92179H32.5516C32.5516 9.92179 32.5464 12.3691 32.5464 12.6582H35.8078V6.22708H15.1426Z" fill="#475569"/>
</svg>
