<svg width="81" height="32" viewBox="0 0 81 32" fill="none" xmlns="http://www.w3.org/2000/svg">
<g clip-path="url(#clip0_10550_7983)">
<path fill-rule="evenodd" clip-rule="evenodd" d="M1.97842 8.01806C1.36501 8.02064 0.751597 8.02322 0.138184 8.02322C0.160091 13.3411 0.160091 18.6589 0.138184 23.9768C1.75935 24 3.3586 24 4.97977 23.9768C4.94691 21.1212 4.95101 18.2787 4.95512 15.4296C4.95649 14.4789 4.95786 13.5276 4.95786 12.5747C6.36469 12.6314 6.94641 13.9616 7.47964 15.1808C7.60239 15.4615 7.72257 15.7363 7.84966 15.9884C8.18073 16.6201 8.47721 17.2805 8.77477 17.9435C9.36329 19.2545 9.95606 20.5751 10.8291 21.701C12.0121 23.1872 13.8523 24.0929 15.7145 24C16.5141 23.9884 17.3192 23.9884 18.1243 23.9884C18.9294 23.9884 19.7345 23.9884 20.5342 23.9768C20.5232 23.1408 20.5232 22.3106 20.5232 21.4804C20.5232 20.6502 20.5232 19.82 20.5123 18.984C19.2854 18.5428 18.2777 17.2424 18.431 15.8026C18.4529 14.479 19.395 13.434 20.5123 12.9695C20.5342 11.2975 20.5342 9.64877 20.5342 8C19.993 8 19.4542 8.00259 18.9163 8.00517C17.8428 8.01033 16.7725 8.01547 15.6926 8C15.6926 8.95322 15.6912 9.90498 15.6898 10.8556C15.6857 13.7032 15.6816 16.541 15.7145 19.3788C14.9258 19.3556 14.2248 18.8447 13.8743 18.1016C13.2888 16.9618 12.749 15.7944 12.2086 14.6258C11.7581 13.6515 11.3072 12.6763 10.8291 11.7155C9.77753 9.71843 7.84966 8.16255 5.6589 8.02322C4.43208 8.00774 3.20525 8.0129 1.97842 8.01806ZM33.6735 8.01564C29.7695 8.01943 25.8647 8.02322 21.9581 8.02322C21.9757 8.68273 21.9792 9.34224 21.9827 10.0017C21.9879 10.991 21.9932 11.9803 22.0458 12.9695C23.3383 13.4572 24.3242 14.8737 24.1051 16.3832C23.9955 17.6372 23.0973 18.5428 22.0458 18.984C22.0348 19.8084 22.0348 20.6328 22.0348 21.4601C22.0348 22.2874 22.0348 23.1176 22.0239 23.9536C24.5397 23.9801 27.0627 23.9763 29.5888 23.9725C31.4841 23.9697 33.381 23.9668 35.278 23.9768C36.9868 24 38.827 23.5356 40.0538 22.1887C41.3245 20.8882 41.7845 18.9376 41.8502 17.1263C41.916 15.3382 41.9598 13.5269 41.5216 11.7852C42.7046 11.7736 43.8931 11.7736 45.0816 11.7736C46.2701 11.7736 47.4586 11.7736 48.6416 11.762C48.6562 14.4876 48.6513 17.2028 48.6465 19.9146C48.644 21.2693 48.6416 22.623 48.6416 23.9768H53.286C53.3006 21.2675 53.2957 18.5583 53.2909 15.8491C53.2884 14.4944 53.286 13.1398 53.286 11.7852C54.0008 11.7852 54.7181 11.7826 55.4362 11.78C56.8748 11.7749 58.3166 11.7697 59.7488 11.7852C61.0107 14.2236 62.2962 16.6619 63.5818 19.1003C64.4388 20.7258 65.2958 22.3513 66.1458 23.9768H72.017C74.4488 19.1234 76.8805 14.27 79.2903 9.39332C79.5313 8.92894 79.816 8.48778 80.1008 8.04662L80.1009 8.04644C79.0191 8.0029 77.9458 8.00472 76.8758 8.00653C76.234 8.00762 75.5933 8.00871 74.9526 8C74.014 9.83691 73.1044 11.6944 72.1943 13.5531C71.1715 15.642 70.1479 17.7324 69.0814 19.7968C67.9087 17.5134 66.7138 15.2379 65.5183 12.9612C64.6589 11.3247 63.7993 9.68761 62.9473 8.04644C53.1835 7.99669 43.4309 8.00616 33.6735 8.01564ZM26.6929 18.0798C26.697 15.9971 26.7011 13.9209 26.6683 11.8316C29.3191 11.762 31.9699 11.7852 34.6207 11.8316C35.7161 11.8084 36.9429 12.5051 37.0525 13.7591C37.0963 15.3149 37.1182 16.8708 37.0306 18.4267C36.8772 19.6343 35.6504 20.238 34.6207 20.1916C33.9645 20.1916 33.307 20.193 32.6484 20.1945C30.6685 20.1988 28.6793 20.2032 26.6902 20.1684C26.6902 19.471 26.6915 18.775 26.6929 18.0798Z" fill="#000"/>
<path d="M18.4311 15.8025C18.453 14.4788 19.395 13.4106 20.5123 12.9694C20.9943 12.923 21.4981 12.923 21.9801 12.9694C23.2726 13.4803 24.2585 14.8736 24.0394 16.383C23.9518 17.6138 23.0317 18.5427 21.9801 18.9839C21.4981 19.0304 20.9943 19.0304 20.5123 18.9839C19.2855 18.5427 18.2777 17.2655 18.4311 15.8025Z" fill="white"/>
</g>
<defs>
<clipPath id="clip0_10550_7983">
<rect width="80" height="32" fill="white" transform="translate(0.138184)"/>
</clipPath>
</defs>
</svg>