<svg width="79" height="32" viewBox="0 0 79 32" fill="none" xmlns="http://www.w3.org/2000/svg">
<path d="M12.9649 7.2437H11.1128C10.7716 7.2437 10.4792 7.53614 10.4792 7.87733V8.21851L10.3817 8.12103C9.40689 7.34118 8.18838 7 6.77491 7C4.72782 7.04874 3.07064 7.73111 1.80339 9.09584C0.584884 10.4606 0 12.1177 0 14.0674C0 16.017 0.584884 17.7229 1.80339 19.0389C3.07064 20.4036 4.67908 21.086 6.67743 21.086C8.13964 21.086 9.40689 20.7448 10.3817 19.9649L10.4792 19.8675V20.2086C10.4792 20.5498 10.7716 20.8423 11.1128 20.8423H12.9649C13.3061 20.8423 13.5986 20.5498 13.5986 20.2086V7.87733C13.6473 7.53614 13.3061 7.2437 12.9649 7.2437ZM9.60185 16.9918C8.96823 17.7716 8.04216 18.1615 6.92113 18.1615C5.8001 18.1615 4.87404 17.7716 4.19167 16.9918C3.50931 16.2119 3.16812 15.2859 3.16812 14.0674C3.16812 12.8976 3.50931 11.9228 4.19167 11.1429C4.92278 10.3143 5.8001 9.97316 6.92113 9.97316C8.0909 9.97316 8.91949 10.3143 9.65059 11.1429C10.2842 11.9228 10.6254 12.8488 10.6254 14.0674C10.5767 15.2859 10.2842 16.2119 9.60185 16.9918Z" fill="#000"/>
<path d="M30.0241 10.0219C30.7552 10.0219 31.3401 10.2656 31.7787 10.753C32.2661 11.3379 32.4611 12.0203 32.4611 12.8488V20.3061C32.4611 20.6473 32.7535 20.9397 33.0947 20.9397H34.9468C35.288 20.9397 35.5805 20.6473 35.5805 20.3061V12.8001C35.5805 11.1429 35.0443 9.7782 34.0208 8.65717C33.5334 8.16977 32.9485 7.77985 32.3149 7.4874C31.6812 7.14622 30.9989 7.04874 30.3165 7.04874C29.6341 7.04874 29.0005 7.14622 28.4644 7.38992C27.4896 7.73111 26.7097 8.26725 26.1248 8.99836L26.0761 9.0471L26.0274 8.99836C25.6862 8.55969 25.1988 8.16977 24.7114 7.82859C23.9315 7.34118 23.0055 7.04874 22.0794 7.04874C20.8609 7.04874 19.8373 7.38992 19.0575 7.97481L19.0087 8.07229V7.87733C19.0087 7.53614 18.7163 7.2437 18.3751 7.2437H16.523C16.1818 7.2437 15.8894 7.53614 15.8894 7.87733V20.3061C15.8894 20.6473 16.1818 20.9397 16.523 20.9397H18.3751C18.7163 20.9397 19.0087 20.6473 19.0087 20.3061V12.8976C19.0087 11.9715 19.2524 11.2892 19.8373 10.8017C20.3735 10.3143 20.9584 10.0706 21.7382 10.0706C22.4693 10.0706 23.0542 10.3143 23.4929 10.8017C23.9803 11.3866 24.1752 12.069 24.1752 12.8976V20.3549C24.1752 20.696 24.4677 20.9885 24.8088 20.9885H26.661C27.0022 20.9885 27.2946 20.696 27.2946 20.3549V12.9463C27.2946 12.0203 27.5383 11.3379 28.1232 10.8505C28.6106 10.2656 29.1955 10.0219 30.0241 10.0219Z" fill="#000"/>
<path d="M49.8614 7.2437H48.0092C47.6681 7.2437 47.3756 7.53614 47.3756 7.87733V8.21851L47.2781 8.16977C46.3033 7.38992 45.0848 7.04874 43.6714 7.04874C41.6243 7.04874 39.9671 7.73111 38.6998 9.09584C37.4813 10.4118 36.8964 12.069 36.8964 14.0674C36.8964 16.017 37.4813 17.7229 38.6998 19.0389C39.9671 20.4036 41.5755 21.086 43.5739 21.086C45.0361 21.086 46.3033 20.7448 47.2781 19.9649L47.3756 19.8675V20.2086C47.3756 20.5498 47.6681 20.8423 48.0092 20.8423H49.8614C50.2026 20.8423 50.495 20.5498 50.495 20.2086V7.87733C50.495 7.53614 50.2026 7.2437 49.8614 7.2437ZM46.4983 16.9918C45.8647 17.7716 44.9386 18.1615 43.7688 18.1615C42.6478 18.1615 41.7217 17.8204 41.0394 16.9918C40.357 16.2119 40.0158 15.2859 40.0158 14.0674C40.0158 12.8488 40.357 11.9228 41.0394 11.1429C41.7217 10.3143 42.6478 9.97316 43.7688 9.97316C44.9386 9.97316 45.7672 10.3143 46.4983 11.1429C47.1319 11.9228 47.4731 12.8488 47.4731 14.0674C47.4731 15.2859 47.1319 16.2119 46.4983 16.9918Z" fill="#000"/>
<path d="M65.2633 7.2437H63.4112C63.07 7.2437 62.7776 7.53614 62.7776 7.87733V8.21851L62.6801 8.12103C61.7053 7.38992 60.4868 7 59.0733 7C57.0262 7 55.369 7.68237 54.1018 8.99835C52.8833 10.3143 52.2984 11.9715 52.2984 13.8724C52.2984 15.822 52.8833 17.4792 54.1018 18.7464C55.369 20.0624 56.9775 20.7448 58.9271 20.7448C60.3893 20.7448 61.6566 20.3549 62.6314 19.575L62.7288 19.4775V19.7212C62.7288 20.7935 62.4364 21.6708 61.949 22.207C61.4129 22.7431 60.5355 23.0356 59.2683 23.0356C56.88 23.0356 56.3926 21.8658 56.2464 21.4759C56.1489 21.2322 55.9052 21.086 55.6615 21.086H53.6144C53.2732 21.086 52.9808 21.3784 52.9808 21.7196C52.9808 21.8171 52.9808 21.8171 53.0295 21.9146C53.4194 23.1331 54.1505 24.1566 55.2716 24.8877C56.3439 25.6188 57.8061 25.96 59.6582 25.96C61.5103 25.96 63.07 25.4239 64.1911 24.4003C65.3121 23.3768 65.9457 21.8171 65.9457 19.8675V7.87733C65.897 7.53614 65.6045 7.2437 65.2633 7.2437ZM61.9003 16.8456C61.5591 17.1867 61.1691 17.4792 60.7305 17.6741C60.2918 17.8691 59.7557 18.0153 59.1708 18.0153C58.001 18.0153 57.1237 17.6741 56.4413 16.8943C55.759 16.1144 55.4178 15.1884 55.4178 14.0186C55.4178 12.8488 55.759 11.9228 56.4413 11.1917C57.1237 10.4118 58.001 10.0706 59.1708 10.0706C60.2918 10.0706 61.1692 10.4118 61.9003 11.1917C62.5339 11.9228 62.8751 12.8976 62.8751 14.0674C62.8751 15.1884 62.5339 16.1144 61.9003 16.8456Z" fill="#000"/>
<path d="M71.0147 7.14622H69.1626C68.8214 7.14622 68.5289 7.43866 68.5289 7.77985V19.9649C68.5289 20.3061 68.8214 20.5986 69.1626 20.5986H71.0147C71.3559 20.5986 71.6483 20.3061 71.6483 19.9649V7.77985C71.5996 7.38992 71.3071 7.14622 71.0147 7.14622Z" fill="#000"/>
</svg>