<svg width="101" height="42" viewBox="0 0 101 42" fill="none" xmlns="http://www.w3.org/2000/svg">
<g clip-path="url(#clip0_19232_357)">
<mask id="mask0_19232_357" style="mask-type:luminance" maskUnits="userSpaceOnUse" x="5" y="3" width="90" height="30">
<path d="M94.905 3.06323H5.45801V32.4324H94.905V3.06323Z" fill="white"/>
</mask>
<g mask="url(#mask0_19232_357)">
<path d="M23.377 3.98965L21.8457 12.5801H16.5302C11.5711 12.5801 6.84432 16.5545 5.96825 21.46L5.59743 23.5479C4.72543 28.4534 8.03416 32.428 12.9932 32.428H17.4266C21.041 32.428 24.4842 29.5337 25.1199 25.9585L29.2027 3.06323L23.377 3.98965ZM19.6053 25.1482C19.4098 26.2526 18.4046 27.1516 17.2881 27.1516H14.5946C12.3657 27.1516 10.8743 25.3618 11.2655 23.1529L11.4978 21.8509C11.893 19.6461 14.0201 17.8524 16.249 17.8524H20.9058L19.6053 25.1482ZM64.3138 32.4275L67.8019 12.8537H73.319L69.831 32.4275H64.3138ZM64.9105 13.0794C64.6339 14.6319 64.3563 16.1846 64.0797 17.7371C61.4659 16.9336 58.7691 17.1895 57.9406 17.3529C57.0458 22.379 56.1499 27.4062 55.2539 32.4324H49.733C50.4826 28.2269 53.044 13.8648 53.044 13.8648C54.8397 13.1292 59.2493 11.6364 64.9105 13.0794ZM42.5406 12.5767H38.2458C34.0609 12.5767 30.0719 15.9304 29.3341 20.0699L28.4663 24.9353C27.7286 29.0749 30.52 32.4286 34.7049 32.4286H43.8405L44.7778 27.1684H36.192C34.7985 27.1684 33.8653 26.0518 34.1139 24.6692L34.1425 24.5039H47.9846L48.7751 20.0699C49.5125 15.9304 46.7214 12.5767 42.5366 12.5767H42.5406ZM43.2374 19.6508L43.2048 19.933H34.9738L35.0186 19.683C35.267 18.3045 36.5386 17.0912 37.9361 17.0912H41.1511C42.5325 17.0912 43.4657 18.2844 43.2374 19.6508ZM89.3248 12.8537H94.8462C92.9653 17.8001 88.655 26.2145 84.4798 32.4275H78.9585C77.042 26.5143 75.8043 18.2753 75.5682 12.8537H81.0896C81.1893 14.6222 81.9896 21.1818 82.903 25.7644C85.4081 21.3062 88.1698 15.457 89.3206 12.8537H89.3248Z" fill="#475569"/>
</g>
</g>
<defs>
<clipPath id="clip0_19232_357">
<rect width="90" height="30" fill="white" transform="translate(5.42871 3)"/>
</clipPath>
</defs>
</svg>
