<svg width="101" height="42" viewBox="0 0 101 42" fill="none" xmlns="http://www.w3.org/2000/svg">
<g clip-path="url(#clip0_19232_364)">
<path d="M42.2515 24.3322C42.2515 28.1638 39.1982 31.2921 35.3995 31.2921C33.8609 31.2921 32.4424 30.7829 31.2884 29.9341C32.5626 28.4305 33.3319 26.4905 33.3319 24.3564V13.2738C33.3319 11.455 31.8654 10 30.0863 10C28.3071 10 26.8406 11.4793 26.8406 13.2738V24.3322C26.8406 26.4662 27.658 28.4063 28.9322 29.9098C27.7782 30.7586 26.3597 31.2679 24.8211 31.2679C21.0224 31.2679 17.8969 28.1395 17.8969 24.3079V10.8488H16.2861V24.3322C16.2861 29.0611 20.1329 32.9169 24.8451 32.9169C26.8406 32.9169 28.6918 32.2137 30.1343 31.0496C31.5769 32.2137 33.4041 32.9169 35.3755 32.9169C40.0637 32.9169 43.8623 29.0611 43.8623 24.3322V10.8488H42.2515V24.3322ZM30.0863 28.7943C29.0765 27.5818 28.4514 26.0297 28.4514 24.3322V13.2738C28.4514 12.3766 29.1727 11.649 30.0863 11.649C30.9999 11.649 31.7211 12.3766 31.7211 13.2738V24.3322C31.6971 26.0297 31.096 27.5818 30.0863 28.7943ZM48.7429 10.8003H50.3777V32.4804H48.7429V10.8003ZM64.5625 10.4123C61.3649 10.4123 58.528 12.0371 56.845 14.5349V10.8003H55.2342V32.4804H56.8691V19.8215C56.8691 15.5292 60.3311 12.0371 64.5866 12.0371L64.5625 10.4123ZM83.3394 14.3166C83.1711 14.0984 82.9787 13.9044 82.7864 13.7104C78.4348 9.32098 71.3664 9.32098 67.0148 13.7104C62.6632 18.0997 62.6632 25.2294 67.0148 29.6188C71.3664 34.0082 78.4348 34.0082 82.7864 29.6188L81.6324 28.4548C78.0982 32.0196 72.4964 32.1894 68.7458 29.0126L75.4536 22.2466L83.3394 14.3166ZM67.6159 27.8728C64.4664 24.0897 64.6347 18.4392 68.1688 14.8744C71.703 11.3095 77.3048 11.1398 81.0554 14.3166L67.6159 27.8728Z" fill="#475569"/>
</g>
<defs>
<clipPath id="clip0_19232_364">
<rect width="67.0532" height="22.9169" fill="white" transform="translate(16.2861 10)"/>
</clipPath>
</defs>
</svg>
