<svg width="39" height="40" viewBox="0 0 39 40" fill="none" xmlns="http://www.w3.org/2000/svg">
<path d="M19.0104 10.4916C19.1359 10.428 19.1986 10.5114 19.2717 10.5555C21.8443 12.1082 24.4158 13.6626 26.9877 15.2165C27.0924 15.2797 27.1815 15.316 27.1498 15.4939C26.9756 16.4741 26.7531 17.4422 26.4938 18.4264C24.9533 17.4958 23.4329 16.5763 21.9116 15.6584C20.9676 15.0889 20.0222 14.5217 19.0604 13.9386C18.9208 13.8281 18.9177 13.6888 18.9168 13.5538C18.9106 12.6507 18.9118 11.7476 18.9157 10.8446C18.9162 10.7309 18.9274 10.6187 19.0104 10.4916Z" fill="#000"/>
<path d="M19.0067 10.4639C19.0354 11.5963 19.0401 12.7281 19.0442 13.892C17.114 15.0912 15.1844 16.2582 13.2551 17.4258C12.7727 17.7177 12.288 18.0062 11.8117 18.3078C11.6424 18.415 11.5742 18.4091 11.5287 18.1947C11.3399 17.3047 11.1426 16.4163 10.9343 15.5307C10.8773 15.2883 11.0545 15.2404 11.1894 15.1586C12.0668 14.627 12.9482 14.1022 13.8269 13.5728C15.546 12.5371 17.2641 11.4998 19.0067 10.4639Z" fill="#000"/>
<path d="M18.1243 17.1765C16.9556 17.8802 15.8037 18.5649 14.6548 19.2545C13.8717 19.7246 13.0927 20.2015 12.2979 20.6837C12.1143 20.3931 12.0794 20.0409 11.9599 19.7201C11.9125 19.593 12.0073 19.5393 12.0983 19.4844C13.9903 18.3433 15.882 17.2018 17.7729 16.0588C18.1205 15.8487 18.4678 15.6375 18.8078 15.4154C18.9759 15.3055 19.1032 15.303 19.287 15.4152C21.5117 16.7719 23.7424 18.1188 25.9768 19.4596C26.1441 19.56 26.1925 19.6435 26.1182 19.826C26.034 20.0329 25.9594 20.2485 25.9192 20.4675C25.8654 20.7601 25.7282 20.6688 25.5714 20.5737C24.5877 19.9769 23.6033 19.3813 22.6196 18.7845C21.5098 18.1112 20.3996 17.4387 19.2923 16.7613C19.1248 16.6588 18.9853 16.6113 18.8034 16.7494C18.5978 16.9054 18.364 17.0244 18.1243 17.1765Z" fill="#000"/>
<path d="M22.8871 27.1443C22.032 28.7077 20.4965 29.723 18.6122 29.2641C17.6449 29.0285 16.7261 28.6698 15.7991 28.3311C14.2682 27.7718 12.7072 27.6087 11.0597 27.7943C11.3095 27.6453 11.5504 27.4781 11.8106 27.3503C13.4216 26.559 15.0367 26.6822 16.6659 27.3149C17.4412 27.616 18.2318 27.8755 19.0505 28.0531C20.4069 28.3475 21.6208 28.0815 22.7123 27.232C22.7568 27.1974 22.8032 27.1652 22.8871 27.1443Z" fill="#000"/>
<path d="M19.0131 23.4167C19.5174 23.5585 19.9132 23.8794 20.3456 24.1335C21.3166 24.7043 22.2756 25.2953 23.2403 25.8768C23.5839 26.0839 23.6095 26.2084 23.3004 26.4685C22.7907 26.8973 22.2393 27.2572 21.586 27.4454C20.7466 27.6872 19.9175 27.6455 19.0628 27.4015C18.9214 27.2936 18.917 27.1551 18.9163 27.0197C18.911 25.9356 18.9114 24.8514 18.916 23.7673C18.9165 23.6543 18.9224 23.5405 19.0131 23.4167Z" fill="#000"/>
<path d="M5.51979 32.1597C6.83466 30.586 8.84497 31.5453 9.2421 32.8824C9.359 33.276 9.33939 33.6581 9.1882 34.0375C9.1423 34.1526 9.10124 34.2097 8.98245 34.094C8.81261 33.9285 8.63079 33.7745 8.44638 33.6252C8.35731 33.553 8.3392 33.4742 8.33504 33.3638C8.30368 32.5323 7.43801 32.0689 6.7288 32.5111C6.27721 32.7927 6.00596 33.1873 6.07918 33.7537C6.12856 34.1356 6.50776 34.5253 6.94422 34.6511C7.02276 34.6737 7.10127 34.7037 7.17442 34.675C7.25441 34.6436 7.37637 34.6613 7.40654 34.5669C7.43952 34.4636 7.3251 34.4168 7.26338 34.3596C7.12364 34.23 6.97406 34.111 6.81624 33.9773C7.01527 33.7544 7.20318 33.5439 7.39944 33.3241C7.80727 33.6844 8.187 34.0573 8.60688 34.3775C8.8778 34.5842 8.79274 34.723 8.62023 34.9101C7.28562 36.3576 5.69395 35.4034 5.19942 34.2386C4.8851 33.4982 5.02207 32.8087 5.51979 32.1597Z" fill="#000"/>
<path d="M32.2754 7.13638C32.0051 6.94241 31.8722 6.7334 31.8772 6.3909C31.8828 6.00088 31.2238 5.41736 30.6206 5.60753C30.0749 5.77959 29.733 6.13957 29.6302 6.69408C29.5401 7.1799 29.8238 7.50077 30.1961 7.75623C30.2597 7.79986 30.334 7.85045 30.406 7.85484C30.5809 7.86552 30.8259 7.95428 30.9128 7.80695C30.9985 7.66176 30.7584 7.55741 30.646 7.47582C30.3515 7.2621 30.3723 7.06938 30.6534 6.89712C30.787 6.8152 30.8041 6.45474 31.0571 6.66297C31.4674 7.00069 31.8373 7.38714 32.2396 7.73534C32.4153 7.88744 32.2783 7.96808 32.2017 8.05955C31.6134 8.76244 30.7901 9.0252 30.068 8.74662C29.1769 8.4028 28.573 7.52835 28.6085 6.63331C28.6473 5.65822 29.5145 4.69916 30.4517 4.59505C31.5228 4.47603 32.5938 5.2018 32.8219 6.23299C32.9132 6.64577 32.8758 7.06432 32.6206 7.45052C32.5073 7.34747 32.4003 7.25014 32.2754 7.13638Z" fill="#000"/>
<path d="M26.9418 2.46108C27.0322 3.11372 26.7214 3.75352 26.1591 3.99509C25.878 4.11589 25.8679 4.27382 25.9229 4.51841C25.9993 4.85803 26.049 5.20357 26.1172 5.54514C26.16 5.75958 26.0865 5.79399 25.9093 5.69646C25.8996 5.69113 25.8878 5.68795 25.8767 5.68697C24.8986 5.60041 24.9746 4.82369 24.8804 4.16101C24.8536 3.97273 24.5359 3.70026 24.3503 3.71708C24.2454 3.72659 24.2375 3.82144 24.2112 3.88656C24.1103 4.13548 24.0115 4.38608 23.9306 4.64194C23.8697 4.83456 23.8103 4.90948 23.579 4.82174C22.8488 4.54485 22.8398 4.5565 23.1142 3.83193C23.4873 2.8469 23.8727 1.86649 24.2387 0.878869C24.2971 0.721346 24.3356 0.697 24.4913 0.760725C25.0207 0.977349 25.5622 1.16431 26.0906 1.38303C26.5568 1.57602 26.8794 1.90202 26.9418 2.46108Z" fill="#000"/>
<path d="M10.7809 2.07057C10.7303 1.94451 10.6443 1.83301 10.7477 1.73968C10.8549 1.64288 10.9841 1.6598 11.1246 1.72239C11.8624 2.05114 12.6059 2.36726 13.3474 2.68799C13.4386 2.72745 13.5486 2.81376 13.6262 2.74096C13.7019 2.66987 13.624 2.55874 13.589 2.4645C13.4213 2.01263 13.2703 1.55431 13.0933 1.10621C13.0324 0.951861 13.0702 0.906143 13.2092 0.848681C14.0107 0.517308 14.0049 0.515511 14.2974 1.32841C14.6386 2.27681 14.9927 3.22057 15.3266 4.17151C15.3545 4.25116 15.4803 4.35775 15.3764 4.44126C15.274 4.52365 15.1483 4.54452 15 4.47408C14.2802 4.13204 13.5537 3.80385 12.8269 3.47681C12.7013 3.42029 12.5496 3.27705 12.4353 3.38148C12.3362 3.47196 12.4598 3.63431 12.5024 3.75757C12.6562 4.20265 12.8123 4.6474 12.9863 5.08483C13.0476 5.23891 13.0312 5.28666 12.8711 5.35357C12.0845 5.68243 12.0911 5.68809 11.7996 4.87889C11.4651 3.9505 11.1234 3.02476 10.7809 2.07057Z" fill="#000"/>
<path d="M19.0101 23.3887C19.038 24.7046 19.0405 26.0181 19.0402 27.3625C18.5416 27.3424 18.0802 27.1576 17.6122 27.0078C16.7102 26.7193 15.8159 26.4067 14.8535 26.4028C14.6758 26.402 14.6295 26.2627 14.5656 26.1557C14.4965 26.04 14.6235 26.0108 14.696 25.9671C16.1254 25.1066 17.5551 24.2464 19.0101 23.3887Z" fill="#000"/>
<path d="M25.677 35.9447C25.5062 35.5148 25.3561 35.1048 25.1863 34.703C25.122 34.5509 25.1457 34.471 25.2991 34.4233C25.374 34.4 25.4483 34.3746 25.5216 34.3469C26.0947 34.1296 26.0901 34.1311 26.3165 34.7229C26.5362 35.2974 26.764 35.8689 26.993 36.4397C27.4296 37.5278 26.901 38.4751 25.7396 38.7146C24.7534 38.9179 24.0984 38.5003 23.8426 37.6662C23.623 36.9499 23.3201 36.2578 23.0273 35.5663C22.944 35.3694 22.995 35.3114 23.1621 35.2557C23.4135 35.1718 23.6978 34.9626 23.9018 35.0247C24.0961 35.0839 24.1157 35.4608 24.2115 35.6979C24.4383 36.2593 24.6552 36.8247 24.8799 37.387C25.0474 37.8064 25.3008 37.92 25.6948 37.7603C26.1189 37.5884 26.2178 37.3443 26.0472 36.9111C25.9241 36.5983 25.8087 36.2824 25.677 35.9447Z" fill="#000"/>
<path d="M3.68025 10.3627C4.29004 9.68285 4.80309 9.56271 5.40078 9.9718C5.90075 10.314 5.9896 10.8069 5.88604 11.3752C5.74022 12.1754 5.05196 12.9204 4.36773 12.9837C4.31246 12.9888 4.25644 12.9939 4.20125 12.9907C3.64934 12.9589 3.61197 12.8927 3.88574 12.4193C4.00353 12.2155 4.06735 11.9935 4.40215 11.9854C4.69708 11.9783 5.02545 11.4222 4.98404 11.119C4.96534 10.9821 4.90966 10.8521 4.76631 10.799C4.58895 10.7333 4.42285 10.775 4.30562 10.9186C4.12042 11.1453 3.95813 11.3907 3.77464 11.6189C3.40995 12.0725 2.89164 12.2462 2.43378 12.0794C1.91649 11.8909 1.55976 11.3986 1.59795 10.8497C1.6471 10.1433 1.97352 9.58306 2.59138 9.21552C2.87461 9.04703 3.18872 9.02251 3.50396 9.09799C3.6856 9.14149 3.86235 9.20769 3.66554 9.45126C3.56818 9.57175 3.50215 9.71945 3.433 9.86026C3.36818 9.99223 3.28654 10.0458 3.12647 10.0502C2.8149 10.0589 2.47904 10.5431 2.54856 10.8435C2.61559 11.1331 2.93373 11.2352 3.15704 11.0137C3.34776 10.8246 3.49737 10.594 3.68025 10.3627Z" fill="#000"/>
<path d="M31.6605 33.7011C31.4771 33.9696 31.2244 34.1302 31.0054 34.3244C30.8556 34.4572 30.829 34.5534 30.978 34.7106C31.1614 34.9041 31.4741 35.106 31.4475 35.3297C31.4246 35.5227 31.0835 35.6684 30.9041 35.8551C30.7485 36.017 30.657 35.964 30.5327 35.8203C29.7408 34.9055 28.9424 33.9963 28.1462 33.0852C28.0526 32.9781 27.9868 32.9045 28.1555 32.771C28.5716 32.4417 28.9583 32.0754 29.3617 31.7296C29.9869 31.1939 30.698 31.1712 31.2927 31.6617C31.9446 32.1993 32.0907 32.97 31.6605 33.7011Z" fill="#000"/>
<path d="M20.5192 0.637306C20.5431 0.844359 20.5044 0.940624 20.2911 0.928588C19.9404 0.908796 19.5866 0.936503 19.2367 0.910487C18.9652 0.890308 19.0103 1.05891 19.0192 1.20962C19.0278 1.3553 18.9262 1.56287 19.2345 1.54601C19.5502 1.52874 19.8684 1.56523 20.1855 1.56559C20.322 1.56575 20.3774 1.58943 20.3865 1.7486C20.4287 2.4884 20.4355 2.48815 19.7017 2.47838C19.5996 2.47702 19.4974 2.46969 19.3955 2.47158C18.8845 2.48101 18.9854 2.40611 18.9559 2.90148C18.9436 3.10884 18.9968 3.17073 19.2123 3.17152C19.5843 3.17287 19.957 3.14422 20.3311 3.20449C20.5035 3.23225 20.5211 3.28905 20.5256 3.43391C20.5475 4.13816 20.5515 4.1349 19.8543 4.12503C19.2984 4.11716 18.7423 4.10949 18.1866 4.11976C17.9867 4.12345 17.9108 4.08447 17.9157 3.86242C17.9425 2.64969 17.9566 1.4366 17.9641 0.223569C17.9655 0.00866462 18.0154 -0.0100811 18.2335 0.00329896C18.8666 0.0421413 19.5036 0.0400475 20.1382 0.0222754C20.4338 0.013998 20.5857 0.0758316 20.5228 0.40063C20.51 0.466348 20.5199 0.536443 20.5192 0.637306Z" fill="#000"/>
<path d="M19.0144 18.0398C19.6715 18.2781 20.2235 18.6904 20.8112 19.0387C22.2731 19.905 23.7192 20.7978 25.179 21.6677C25.3931 21.7954 25.464 21.9101 25.3493 22.1437C25.2317 22.3835 25.206 22.7713 25.0294 22.8519C24.8347 22.9408 24.577 22.6385 24.3502 22.5023C22.661 21.4879 20.9751 20.4679 19.2875 19.4507C19.2206 19.4104 19.1476 19.3802 19.0556 19.332C18.8389 18.9065 18.8915 18.4866 19.0144 18.0398Z" fill="#000"/>
<path d="M19.0099 18.0127C19.0378 18.4308 19.0409 18.8469 19.0389 19.2909C17.1427 20.4587 15.2495 21.5951 13.3631 22.7426C13.1222 22.8891 12.9671 22.9391 12.9171 22.5925C12.9139 22.5703 12.9044 22.5491 12.8993 22.5271C12.8446 22.289 12.5829 22.0521 12.7046 21.841C12.8141 21.6508 13.0999 21.5596 13.3121 21.4315C15.2026 20.2904 17.0939 19.1507 19.0099 18.0127Z" fill="#000"/>
<path d="M23.4486 29.3818C24.097 29.4462 24.6846 29.6134 25.2436 29.9004C24.7649 29.9396 24.2861 29.8955 23.8101 29.9559C22.9862 30.0606 22.2191 30.3628 21.4366 30.6125C19.9476 31.0876 18.4736 31.1516 17.0201 30.4702C16.3574 30.1596 15.5756 29.5482 15.1436 28.9565C15.7268 29.2704 16.282 29.5311 16.8688 29.7235C18.0763 30.1194 19.2869 30.1222 20.4974 29.7615C21.1461 29.5682 21.7989 29.4056 22.4718 29.3282C22.7905 29.2915 23.1044 29.3311 23.4486 29.3818Z" fill="#000"/>
<path d="M18.9993 20.7166C19.4694 20.8321 19.8331 21.1398 20.234 21.3774C21.6099 22.193 22.9707 23.034 24.3451 23.8521C24.5459 23.9716 24.5808 24.0758 24.4731 24.2708C24.3381 24.5153 24.2212 24.7698 24.0965 25.02C23.8646 24.8856 23.6307 24.7545 23.4012 24.6161C21.9738 23.7551 20.5474 22.8924 19.0972 22.0215C18.9392 21.9281 18.9218 21.7902 18.9265 21.6532C18.9368 21.3498 18.8674 21.0408 18.9993 20.7166Z" fill="#000"/>
<path d="M18.9932 20.6934C19.0976 21.11 19.0025 21.5383 19.0697 21.9864C18.2708 22.4011 17.539 22.9116 16.7718 23.3613C15.8968 23.8743 15.0349 24.4095 14.1707 24.9407C14.0332 25.0253 13.979 25.0152 13.8946 24.8611C13.447 24.0446 13.4364 24.041 14.2269 23.5609C15.8058 22.602 17.3899 21.6516 18.9932 20.6934Z" fill="#000"/>
<path d="M34.8282 9.90794C34.9833 9.65717 35.1316 9.4311 35.2699 9.19902C35.375 9.02259 35.4617 9.0294 35.5491 9.20803C35.5541 9.21821 35.5587 9.22858 35.5643 9.23846C36.0077 10.0308 36.007 10.0303 35.4743 10.7802C35.3449 10.9623 35.222 11.149 35.0298 11.4307C35.4837 11.4307 35.8593 11.4445 36.2335 11.4266C36.5607 11.4109 36.7984 11.4971 36.8859 11.842C36.8967 11.8846 36.9249 11.9228 36.9452 11.963C37.025 12.1215 37.227 12.3222 37.1508 12.4307C37.0379 12.5915 36.776 12.493 36.5805 12.4827C36.0613 12.4553 35.5424 12.4153 35.0247 12.3671C34.5871 12.3265 34.1695 12.3539 33.7969 12.6201C33.7429 12.6586 33.6788 12.683 33.6191 12.7133C32.8408 13.108 32.8455 13.1059 32.4964 12.2948C32.4421 12.1686 32.4451 12.1113 32.5737 12.0726C33.6845 11.7385 34.3032 10.8891 34.8282 9.90794Z" fill="#000"/>
<path d="M7.06064 5.70121C6.96588 5.27622 6.88346 4.88103 6.79521 4.48715C6.77536 4.39857 6.73526 4.31875 6.824 4.24129C7.05406 4.04049 7.26822 3.81927 7.51151 3.63654C7.71944 3.48036 7.69295 3.71333 7.71182 3.80367C7.83104 4.37443 8.00354 4.94421 8.0336 5.52082C8.06934 6.2067 8.43344 6.66943 8.86201 7.1243C8.94744 7.21497 9.02913 7.30941 9.11809 7.39644C9.25804 7.53335 9.24352 7.64307 9.07654 7.74439C8.85681 7.8777 8.71396 8.2173 8.47997 8.19452C8.24746 8.1719 8.08564 7.86922 7.95359 7.65315C7.49693 6.90594 6.68803 6.82815 5.9739 6.57049C5.61599 6.44136 5.24969 6.33546 4.88711 6.21928C4.71686 6.16473 4.6953 6.08277 4.84053 5.96971C4.84939 5.96281 4.86304 5.96043 4.86931 5.95208C5.29609 5.38416 5.80322 5.27036 6.42055 5.65228C6.56842 5.74377 6.75513 5.77427 6.92609 5.8258C7.0014 5.84849 7.09478 5.87298 7.06064 5.70121Z" fill="#000"/>
<path d="M35.8019 23.4893C35.7187 23.5299 35.6572 23.5558 35.5034 23.6205C35.8523 22.8264 35.7298 22.2092 34.9038 21.8063C35.231 21.6521 35.5131 21.6617 35.7767 21.6306C35.9759 21.6071 36.0807 21.5356 36.1567 21.3645C36.2645 21.1217 36.3864 20.8851 36.5319 20.585C36.6791 20.8757 36.8146 21.1032 36.911 21.3462C36.9896 21.5442 37.1017 21.6172 37.3149 21.6264C37.5707 21.6375 37.8241 21.7043 38.1381 21.7571C37.9002 21.9882 37.7044 22.1888 37.4968 22.3762C37.3648 22.4954 37.3311 22.6069 37.3784 22.7908C37.4437 23.0453 37.5065 23.3091 37.4847 23.6026C37.4012 23.5561 37.3297 23.5261 37.269 23.4813C36.788 23.126 36.3073 23.0724 35.8019 23.4893Z" fill="#000"/>
<path d="M3.02658 21.7076C3.07027 21.7688 3.24602 21.6948 3.15202 21.8345C3.11501 21.8896 3.0614 21.9386 3.00531 21.9748C2.48355 22.3118 2.36387 22.766 2.59287 23.3323C2.62078 23.4013 2.60581 23.4876 2.61093 23.5694C2.25114 23.4771 1.96854 23.1296 1.63769 23.15C1.32233 23.1694 1.02188 23.4313 0.709551 23.5893C0.664858 23.3587 0.713811 23.1528 0.778098 22.967C0.893602 22.6331 0.775183 22.4148 0.523232 22.2138C0.366026 22.0883 0.232153 21.9336 0 21.7059C0.888778 21.7812 1.44628 21.4806 1.57988 20.5938C1.812 20.8063 1.89002 21.0324 1.97091 21.236C2.07453 21.4969 2.18945 21.6563 2.50098 21.6293C2.66454 21.6151 2.83443 21.674 3.02658 21.7076Z" fill="#000"/>
<path d="M22.9028 27.1329C22.9148 27.1128 22.9343 27.1007 22.9539 27.0886C22.9546 27.1049 22.9554 27.1211 22.9409 27.1471C22.9256 27.1568 22.9105 27.1408 22.9028 27.1329Z" fill="#07AEEE"/>
<path fill-rule="evenodd" clip-rule="evenodd" d="M18.0783 39.8608C18.5253 40.0161 18.9783 40.0474 19.4666 39.9243C21.2505 39.4502 21.3483 37.3104 20.4973 36.3988C19.8734 35.7304 18.9049 35.5284 18.018 35.8747C17.2367 36.1797 16.7566 36.916 16.7352 37.8422C16.7137 38.768 17.2499 39.5729 18.0783 39.8608ZM17.8448 37.5745C17.7359 38.0547 17.8587 38.4662 18.2655 38.8023C19.1072 39.2367 19.8761 38.8258 19.9514 37.9276C19.9984 37.3673 19.6097 36.8209 19.1079 36.742C18.465 36.6408 17.9858 36.9518 17.8448 37.5745Z" fill="#000"/>
<path fill-rule="evenodd" clip-rule="evenodd" d="M13.5906 37.589C14.3386 37.3531 14.8185 36.2627 14.2793 35.4332C14.066 35.1161 13.7671 34.9583 13.4484 34.8345C13.2645 34.7631 13.0792 34.6951 12.8939 34.6271C12.6155 34.525 12.3372 34.4229 12.0638 34.3091C11.8687 34.2279 11.7989 34.2501 11.7227 34.4582C11.4684 35.1526 11.2035 35.843 10.9385 36.5335C10.8219 36.8375 10.7052 37.1416 10.5895 37.446C10.3548 38.0629 10.3564 38.0636 10.9532 38.3005L10.9805 38.3114C11.2428 38.4156 11.4246 38.4643 11.48 38.094C11.5074 37.9103 11.5962 37.7312 11.6814 37.5622C11.6956 37.534 11.7053 37.4983 11.7153 37.4617C11.7454 37.351 11.7778 37.2321 11.9426 37.2888C11.9813 37.3021 12.0238 37.312 12.067 37.3221C12.2369 37.3617 12.4173 37.4037 12.4197 37.6662C12.4202 37.7267 12.4346 37.7878 12.4489 37.8487C12.466 37.9215 12.483 37.9938 12.4761 38.0644C12.4053 38.7905 12.8103 39.1122 13.451 39.239C13.4726 39.2433 13.4936 39.2557 13.5146 39.2682C13.5597 39.295 13.6054 39.3221 13.6601 39.2698C13.722 39.2108 13.7063 39.1471 13.6887 39.0755C13.6869 39.0682 13.685 39.0608 13.6833 39.0534L13.682 39.0478C13.5975 38.6893 13.5128 38.3301 13.4505 37.9673C13.4473 37.9491 13.4432 37.9302 13.439 37.911C13.4122 37.7891 13.3827 37.6545 13.5906 37.589ZM12.1874 36.1927C12.1773 36.217 12.1659 36.2446 12.1525 36.279C12.1015 36.4268 12.1826 36.4605 12.2736 36.4933C12.3458 36.5194 12.4174 36.5474 12.489 36.5754C12.6061 36.6211 12.7232 36.6669 12.8428 36.7044C13.1147 36.7895 13.3666 36.6416 13.4652 36.3389C13.553 36.0694 13.4908 35.8536 13.2156 35.7233C12.8544 35.5523 12.674 35.4665 12.5488 35.5171C12.4237 35.5677 12.3536 35.7545 12.2132 36.1286C12.2054 36.1492 12.197 36.1695 12.1874 36.1927Z" fill="#000"/>
<path d="M24.7967 2.32983C24.8635 1.97873 25.0105 1.85349 25.3298 2.05228C25.4425 2.12242 25.5845 2.14361 25.7053 2.20297C25.9816 2.33877 26.0197 2.56763 25.9197 2.83164C25.8208 3.09268 25.6416 3.23817 25.3463 3.17644C25.2696 3.16042 25.1957 3.12971 25.1217 3.10272C24.574 2.90309 24.574 2.90285 24.7967 2.32983Z" fill="#F8F8F9"/>
<path d="M30.0568 32.3427C30.4664 32.266 30.7132 32.3978 30.871 32.7367C31.0225 33.0621 30.8594 33.2612 30.6215 33.4572C30.1852 33.8167 30.1908 33.8234 29.8288 33.4072C29.3892 32.9018 29.3891 32.9017 29.9029 32.4637C29.9458 32.4272 29.9909 32.3933 30.0568 32.3427Z" fill="#F8F8F9"/>
</svg>