<svg width="75" height="32" viewBox="0 0 75 32" fill="none" xmlns="http://www.w3.org/2000/svg">
<g clip-path="url(#clip0_10550_7949)">
<path d="M6.99902 9.46517C6.06753 8.82907 4.99876 8.45445 3.89315 8.37651C3.50751 8.37651 2.84217 8.46257 2.84217 9.14459C2.84217 10.2371 7.4622 10.2823 7.4622 13.5767C7.4622 15.6296 6.09214 16.7858 3.66826 16.7858C2.52343 16.7874 1.39048 16.5399 0.339531 16.0586V13.8723C1.27553 14.3717 2.30006 14.6571 3.34675 14.7101C4.21588 14.7101 4.75944 14.4308 4.75944 13.9842C4.75944 12.5496 0.138184 12.8043 0.138184 9.57489C0.138184 7.75645 1.68929 6.53741 3.9922 6.53741C5.03678 6.50838 6.0713 6.76003 6.99943 7.26892V9.46689L6.99902 9.46517Z" fill="#000"/>
<path d="M32.7852 16.1188C31.7825 16.5376 30.7171 16.7626 29.6396 16.7832C26.3689 16.7832 24.2511 14.7716 24.2511 11.6928C24.2511 8.67595 26.4477 6.53564 29.5174 6.53564C30.587 6.56293 31.6447 6.77978 32.6468 7.17722V9.48793C31.9119 9.07291 31.0959 8.84514 30.2635 8.82268C28.5082 8.82268 27.3785 9.93587 27.3785 11.6683C27.3785 13.4243 28.4879 14.5805 30.1645 14.5805C30.87 14.5805 31.4984 14.4084 32.786 13.892V16.1188H32.7852Z" fill="#000"/>
<path d="M39.5373 11.6047H39.5779L43.1908 6.7277H46.6194L42.9903 11.6047L46.7842 16.5902H43.1912L39.5783 11.7338H39.5377V16.5902H36.6097V2H39.5373V11.6047Z" fill="#000"/>
<path d="M51.5565 10.5366C51.6783 9.16778 52.4264 8.37603 53.5745 8.37603C54.7042 8.37603 55.4722 9.1936 55.5944 10.5366H51.5565ZM58.0155 13.5319C56.6418 14.5792 55.7333 14.9428 54.565 14.9428C52.7301 14.9428 51.6016 13.9161 51.4989 12.1601H58.1787C58.3199 8.56795 56.0803 6.53564 53.3772 6.53564C50.5116 6.53564 48.4685 8.67552 48.4685 11.6928C48.4685 14.7716 50.5908 16.7832 53.8606 16.7832C55.3443 16.8457 56.8059 16.3866 58.0179 15.4773V13.5323L58.0155 13.5319Z" fill="#000"/>
<path d="M68.1097 8.84353H64.7208V12.9073C64.7208 13.8716 65.2449 14.4968 66.1538 14.4968C66.8421 14.4835 67.5158 14.2838 68.1109 13.9168V16.1616C67.2611 16.5692 66.3396 16.7812 65.4069 16.7838C63.4693 16.7838 61.796 15.8411 61.796 13.0833V8.84353H60.4621V8.25058L64.3591 3.62744H64.7217V6.72775H68.1105L68.1097 8.84353Z" fill="#000"/>
<path d="M15.9018 17.094C12.6323 17.094 10.3481 14.8599 10.3481 11.6607C10.3481 7.93727 13.2266 6.23888 15.9018 6.23888C17.2058 6.22443 18.4807 6.64768 19.5439 7.44802C20.1541 7.94191 20.6428 8.5847 20.9684 9.32172C21.294 10.0587 21.4469 10.8682 21.4141 11.6813C21.4475 12.5098 21.2856 13.334 20.943 14.0794C20.6004 14.8249 20.0878 15.468 19.4518 15.9507C18.4023 16.6982 17.1661 17.0963 15.9018 17.094ZM15.9018 6.82968C13.4945 6.82968 10.9026 8.34176 10.9026 11.6615C10.9026 14.56 12.9112 16.5071 15.9018 16.5071C17.744 16.5071 20.8612 15.4912 20.8612 11.6822C20.8616 7.85164 17.7435 6.82968 15.9018 6.82968ZM15.9018 15.2537C14.9986 15.2537 13.4836 14.7872 13.4836 11.6607C13.4836 8.43341 15.1743 8.0853 15.9018 8.0853C17.4362 8.0853 18.2802 9.33316 18.2802 11.5952C18.2806 14.7786 16.7904 15.2537 15.9018 15.2537ZM15.9018 8.67266C14.7002 8.67266 14.0381 9.73377 14.0381 11.6602C14.0381 13.6542 14.6649 14.6654 15.9018 14.6654C17.4095 14.6654 17.7257 12.9946 17.7257 11.5935C17.7257 9.65589 17.1111 8.67266 15.9018 8.67266Z" fill="#000"/>
<path d="M13.0585 30.0001L11.1716 28.8594L11.1436 28.7354C10.4409 25.6889 11.1712 22.2672 12.9192 20.4152C14.1931 19.0679 16.2812 18.2637 18.5054 18.2637C19.2629 18.2627 20.0177 18.3585 20.7535 18.549L21.1392 18.6501L19.9725 20.4836L19.8328 20.4905C18.9555 20.5052 18.0899 20.7068 17.2875 21.0834C16.4852 21.46 15.7625 22.0037 15.1625 22.6824C13.4116 24.5512 12.7459 26.6343 13.0057 29.4347L13.0585 30.0001ZM11.6543 28.4742L12.4122 28.9329C12.3037 27.705 12.4594 26.467 12.8678 25.3122C13.2761 24.1573 13.9263 23.1157 14.7695 22.2659C16.0496 20.8328 17.808 19.9877 19.6684 19.9113L20.2294 19.0296C19.6615 18.9115 19.0841 18.8524 18.5054 18.8532C16.4245 18.8532 14.4825 19.5929 13.3093 20.8326C11.716 22.5215 11.0421 25.6493 11.6543 28.4742Z" fill="#000"/>
<path d="M33.8964 23.462V24.0959C34.048 23.8778 34.2436 23.6983 34.469 23.5704C34.6943 23.4425 34.9437 23.3695 35.199 23.3566C35.5023 23.3489 35.7994 23.448 36.0438 23.6385C36.2882 23.8289 36.4661 24.1 36.5496 24.4091C37.0026 23.7075 37.495 23.3566 38.0268 23.3566C38.2286 23.3515 38.4287 23.3957 38.6118 23.4857C38.7948 23.5758 38.9558 23.7093 39.0823 23.876C39.3671 24.2603 39.5122 24.7402 39.4911 25.2284V28.4053H38.3138V25.5081C38.3293 25.2232 38.2657 24.9397 38.1308 24.6927C38.0773 24.6012 38.0021 24.5261 37.9127 24.4751C37.8233 24.424 37.7228 24.3988 37.6213 24.4018C37.2765 24.4018 36.9662 24.6814 36.6905 25.2405V28.4075H35.5153V25.475C35.532 25.1941 35.4633 24.9149 35.3192 24.6785C35.2603 24.5902 35.1819 24.5187 35.0908 24.4701C34.9997 24.4215 34.8987 24.3975 34.7967 24.4001C34.4871 24.4001 34.1868 24.6296 33.8956 25.0886V28.4075H32.7183V23.462H33.898H33.8964Z" fill="#000"/>
<path d="M44.4127 23.3566C44.693 23.352 44.9711 23.4105 45.2285 23.528C45.486 23.6456 45.7171 23.8196 45.9066 24.0386C46.3389 24.5616 46.559 25.2443 46.5191 25.9384C46.5396 26.2821 46.4951 26.6266 46.3881 26.9518C46.2811 27.277 46.1138 27.5761 45.896 27.8317C45.7058 28.0463 45.4756 28.2167 45.2201 28.3322C44.9646 28.4478 44.6893 28.5059 44.4115 28.503C44.1229 28.5118 43.8361 28.4522 43.572 28.3284C43.3079 28.2047 43.0733 28.02 42.8851 27.7878C42.4752 27.2685 42.2635 26.6054 42.2917 25.9289C42.2601 25.2474 42.4769 24.5791 42.8973 24.0623C43.0865 23.8352 43.32 23.6544 43.5817 23.5325C43.8434 23.4107 44.1269 23.3506 44.4127 23.3566ZM44.4127 27.5778C44.9767 27.5778 45.2583 27.0167 45.2575 25.8945C45.2575 24.8205 44.9759 24.2839 44.4127 24.2848C44.28 24.285 44.1502 24.325 44.0381 24.4003C43.926 24.4755 43.8363 24.5829 43.7794 24.7099C43.6076 25.0886 43.5292 25.5072 43.5513 25.9268C43.551 27.0278 43.8382 27.5784 44.4127 27.5787V27.5778Z" fill="#000"/>
<path d="M50.4722 21.0901V23.7347C50.7442 23.4973 51.0839 23.3642 51.4363 23.3569C51.6944 23.3528 51.9495 23.4157 52.1795 23.54C52.4094 23.6644 52.6072 23.8464 52.7556 24.0704C53.114 24.6084 53.2936 25.2575 53.2659 25.9155C53.2926 26.575 53.121 27.2265 52.7759 27.7761C52.6406 27.9988 52.4546 28.1818 52.235 28.3082C52.0154 28.4346 51.7694 28.5004 51.5195 28.4994C51.1261 28.4894 50.7513 28.32 50.4722 28.0261V28.4035H49.2949V21.0884H50.4722V21.0901ZM50.4722 24.7476V27.0416C50.5544 27.1596 50.6591 27.2579 50.7795 27.3302C50.9 27.4025 51.0334 27.4471 51.1712 27.4611C51.3067 27.4623 51.44 27.4241 51.5565 27.3507C51.673 27.2773 51.7683 27.1714 51.8321 27.0446C52.0091 26.6917 52.0922 26.2944 52.0724 25.8952C52.0941 25.5093 52.0062 25.1253 51.8199 24.7928C51.7503 24.6726 51.6525 24.5735 51.536 24.5052C51.4196 24.4369 51.2884 24.4017 51.1554 24.403C50.8953 24.4231 50.6516 24.5454 50.4722 24.7459V24.7476Z" fill="#000"/>
<path d="M56.0063 21.8551C56.001 21.6353 56.0683 21.4203 56.1967 21.2475C56.2486 21.1698 56.3173 21.1063 56.3971 21.0625C56.4769 21.0187 56.5654 20.9958 56.6552 20.9958C56.7451 20.9958 56.8336 21.0187 56.9134 21.0625C56.9932 21.1063 57.0619 21.1698 57.1138 21.2475C57.2374 21.4224 57.3042 21.6351 57.3042 21.8536C57.3042 22.0722 57.2374 22.2848 57.1138 22.4597C57.0623 22.5381 56.9937 22.6021 56.9139 22.6463C56.8341 22.6905 56.7453 22.7136 56.6552 22.7136C56.5652 22.7136 56.4764 22.6905 56.3966 22.6463C56.3167 22.6021 56.2482 22.5381 56.1967 22.4597C56.0692 22.2876 56.002 22.0739 56.0063 21.8551ZM57.2489 23.4623V28.4056H56.0717V23.4619L57.2489 23.4623Z" fill="#000"/>
<path d="M61.4513 21.0894V28.4044H60.2741V21.0894H61.4513Z" fill="#000"/>
<path d="M68.1051 26.8722V27.8511C67.6476 28.2871 67.0495 28.5197 66.4346 28.5009C66.139 28.5142 65.8442 28.4585 65.5711 28.3376C65.2981 28.2167 65.0535 28.0335 64.8547 27.8012C64.444 27.2848 64.2327 26.623 64.2632 25.9484C64.2373 25.2783 64.434 24.6199 64.8189 24.0877C64.9845 23.8566 65.1991 23.67 65.4452 23.543C65.6914 23.416 65.9623 23.3522 66.2361 23.3567C66.5139 23.3527 66.7884 23.4204 67.036 23.5541C67.2835 23.6878 67.4966 23.8833 67.6569 24.1239C68.0498 24.7245 68.2329 25.4516 68.1745 26.1799H65.4835C65.4825 26.5599 65.6108 26.9276 65.8448 27.2156C65.958 27.3377 66.0942 27.4332 66.2446 27.4957C66.395 27.5582 66.5562 27.5864 66.7175 27.5783C67.2471 27.5352 67.7422 27.2833 68.1051 26.8722ZM65.507 25.3632H67.134C67.0702 24.644 66.7995 24.2844 66.3222 24.2844C65.8358 24.2844 65.5637 24.644 65.5058 25.3632H65.507Z" fill="#000"/>
<path d="M70.2027 4.12256C70.4641 4.12319 70.7145 4.23374 70.8989 4.42994C71.0834 4.62614 71.1868 4.89194 71.1865 5.16894C71.1863 5.44593 71.0822 5.71148 70.8973 5.90724C70.7125 6.10299 70.4618 6.21295 70.2005 6.21295C69.9392 6.21295 69.6886 6.10299 69.5037 5.90724C69.3188 5.71148 69.2148 5.44593 69.2145 5.16894C69.2142 4.89194 69.3176 4.62614 69.5021 4.42994C69.6866 4.23374 69.937 4.12319 70.1983 4.12256H70.2027ZM70.1983 4.28521C69.9821 4.29174 69.7771 4.38883 69.6283 4.55521C69.4795 4.7216 69.3989 4.94371 69.4043 5.17292C69.3975 5.28792 69.4129 5.40317 69.4497 5.5116C69.4865 5.62003 69.5438 5.71934 69.6181 5.80343C69.6924 5.88752 69.7822 5.95461 69.8819 6.00059C69.9815 6.04656 70.089 6.07044 70.1977 6.07076C70.3064 6.07109 70.4141 6.04785 70.514 6.00247C70.6139 5.95709 70.704 5.89053 70.7788 5.80688C70.8535 5.72323 70.9113 5.62427 70.9487 5.51606C70.986 5.40785 71.0021 5.29269 70.996 5.17765C70.9995 5.06367 70.9817 4.95008 70.9436 4.84341C70.9056 4.73674 70.848 4.6391 70.7742 4.55612C70.7004 4.47313 70.6118 4.40644 70.5136 4.35987C70.4154 4.3133 70.3095 4.28778 70.2019 4.28478L70.1983 4.28521ZM70.0136 5.78653H69.837V4.61181C69.9406 4.59368 70.0454 4.58419 70.1504 4.58341C70.271 4.57432 70.3912 4.60547 70.4942 4.67248C70.5286 4.70113 70.5558 4.73827 70.5735 4.78065C70.5912 4.82304 70.5988 4.86937 70.5957 4.9156C70.5957 4.98217 70.5742 5.04673 70.5349 5.09861C70.4955 5.15049 70.4407 5.18657 70.3793 5.20089V5.20949C70.4764 5.228 70.5417 5.32223 70.564 5.49478C70.5734 5.59468 70.5971 5.69248 70.6343 5.7848H70.4496C70.4078 5.69072 70.3825 5.5894 70.3749 5.48575C70.3733 5.45507 70.3657 5.42507 70.3526 5.39769C70.3395 5.37031 70.3211 5.34615 70.2986 5.32677C70.2761 5.30739 70.25 5.29322 70.222 5.28518C70.1941 5.27713 70.1648 5.27539 70.1362 5.28006H70.0144L70.0136 5.78653ZM70.0136 5.13677H70.141C70.2864 5.13677 70.4102 5.08083 70.4102 4.93582C70.4102 4.83298 70.34 4.73014 70.141 4.73014C70.0984 4.72989 70.0558 4.7332 70.0136 4.74004V5.13677Z" fill="#000"/>
</g>
<defs>
<clipPath id="clip0_10550_7949">
<rect width="74" height="32" fill="white" transform="translate(0.138184)"/>
</clipPath>
</defs>
</svg>