<svg width="100" height="42" viewBox="0 0 100 42" fill="none" xmlns="http://www.w3.org/2000/svg">
<path fill-rule="evenodd" clip-rule="evenodd" d="M56.1981 34.4916L56.1913 34.4911C56.1799 34.4911 56.17 34.4926 56.158 34.4926C56.0882 34.4926 56.0184 34.4812 55.9366 34.4692L55.9481 32.7869C55.9481 32.7166 55.9715 32.6463 56.0184 32.6177C56.059 32.5916 56.1194 32.5849 56.1976 32.5833C56.2194 32.5823 56.2429 32.5817 56.2684 32.5817C56.5601 32.5817 56.8288 32.6458 57.0392 32.8328C57.185 32.9671 57.296 33.2182 57.296 33.4869C57.296 33.7557 57.109 34.4916 56.1981 34.4916ZM58.7199 36.3197C58.5803 36.3197 58.4168 36.3077 58.3059 36.2087C58.2184 36.127 57.8449 35.6009 57.8095 35.5426C57.7632 35.4728 57.4007 34.9233 57.3304 34.8301C57.2491 34.7254 57.1439 34.6202 56.9804 34.5614V34.5385C57.6231 34.4333 58.0668 34.1291 58.0668 33.3932C58.0668 33.1713 57.9611 32.926 57.7512 32.7395C57.5179 32.5286 57.1559 32.3713 56.6887 32.3713C56.5132 32.3713 55.9762 32.389 55.6491 32.389C55.0773 32.389 54.8903 32.3713 54.8497 32.3713C54.8205 32.3713 54.8085 32.3828 54.8085 32.4125V32.5703C54.8085 32.5932 54.8205 32.6046 54.8497 32.6046H55.0773C55.1825 32.6046 55.2637 32.6984 55.2637 32.8968V34.4333C55.2637 34.9817 55.2637 35.5306 55.2523 36.1155C55.2523 36.2728 55.159 36.3082 55.0304 36.3082H54.8325C54.8085 36.3082 54.7971 36.3254 54.7971 36.3551V36.4889C54.7971 36.5238 54.8085 36.5415 54.8439 36.5415C54.9023 36.5415 55.0419 36.5238 55.6148 36.5238C56.2215 36.5238 56.3387 36.5415 56.4142 36.5415C56.4611 36.5415 56.4783 36.5301 56.4783 36.4889V36.3483C56.4783 36.3254 56.4668 36.3077 56.4314 36.3077H56.1398C56.046 36.3077 56.0059 36.2025 55.9882 36.0858C55.9762 35.9983 55.9648 35.3442 55.9648 34.9937V34.6786C56.0288 34.6723 56.1283 34.6666 56.1517 34.6666C56.3965 34.6666 56.5309 34.8244 56.6772 35.0286C56.7705 35.1572 56.934 35.4259 56.9923 35.5306C57.0449 35.6244 57.2725 36.0452 57.3778 36.2087C57.4533 36.3311 57.5642 36.4889 57.6345 36.5421C57.7632 36.5358 57.985 36.5238 58.148 36.5238C58.522 36.5238 58.6741 36.5415 58.7199 36.5415C58.7553 36.5415 58.7668 36.5238 58.7668 36.4832V36.3603C58.7668 36.3369 58.7553 36.3197 58.7199 36.3197ZM70.3207 36.3077H70.0759C69.9353 36.3077 69.8415 36.2848 69.8415 36.0973L69.8301 34.6317V34.176C69.8301 34.1057 69.8421 32.8213 69.8421 32.7625C69.8421 32.6515 69.9358 32.6046 70.0639 32.6046H70.2858C70.3087 32.6046 70.3327 32.5932 70.3327 32.5578V32.4239C70.3327 32.3948 70.3207 32.3713 70.2858 32.3713C70.204 32.3713 70.0171 32.389 69.4567 32.389C68.8848 32.389 68.5812 32.3713 68.5108 32.3713C68.4874 32.3713 68.476 32.3828 68.476 32.4125V32.5635C68.476 32.5932 68.4874 32.6052 68.5228 32.6052H68.8265C68.9895 32.6052 69.0483 32.6635 69.066 32.8036C69.0713 32.8796 69.0827 33.9307 69.0827 34.0708V34.4796C69.0827 34.7952 69.0713 36.0567 69.0598 36.1384C69.0364 36.2962 68.9077 36.3077 68.791 36.3077H68.5577C68.5228 36.3077 68.5108 36.3191 68.5108 36.3431V36.5004C68.5108 36.5301 68.5228 36.5421 68.5577 36.5421C68.6161 36.5421 68.8728 36.5238 69.4567 36.5238C70.0056 36.5238 70.2389 36.5415 70.3087 36.5415C70.3441 36.5415 70.3671 36.5301 70.3671 36.4947V36.3488C70.3671 36.3192 70.3447 36.3077 70.3207 36.3077ZM85.5756 32.3713C85.5178 32.3713 85.3886 32.389 85.0152 32.389C84.6063 32.389 84.3615 32.3713 84.3027 32.3713C84.2798 32.3713 84.2678 32.3828 84.2678 32.4125V32.5583C84.2678 32.5875 84.2798 32.6052 84.3147 32.6052H84.4662C84.6418 32.6052 84.6767 32.7099 84.6652 32.8156C84.6532 32.9614 83.8996 34.176 83.7017 34.503C83.5439 34.176 82.8434 32.8796 82.8319 32.7739C82.8199 32.6515 82.8668 32.6046 82.9949 32.6046H83.147C83.1819 32.6046 83.1939 32.5817 83.1939 32.5463V32.4125C83.1939 32.3828 83.1819 32.3708 83.147 32.3708C83.0887 32.3708 82.8783 32.389 82.283 32.389C81.8397 32.389 81.559 32.3713 81.5121 32.3713C81.4772 32.3713 81.4653 32.3828 81.4653 32.4062V32.564C81.4653 32.5932 81.4772 32.6046 81.5121 32.6046H81.6173C81.7111 32.6046 81.8397 32.6515 81.909 32.7333C82.0725 32.938 83.0184 34.6202 83.1121 34.7952V35.0754C83.1121 35.6244 83.1001 36.0806 83.0944 36.1619C83.0887 36.2494 83.0423 36.3077 82.8902 36.3077H82.6507C82.6215 36.3077 82.61 36.3311 82.61 36.3546V36.4889C82.61 36.5181 82.6215 36.5415 82.6507 36.5415C82.7027 36.5415 82.8902 36.5238 83.4621 36.5238C83.9876 36.5238 84.2209 36.5415 84.285 36.5415C84.3142 36.5415 84.3267 36.5238 84.3267 36.4832V36.3488C84.3267 36.3254 84.3142 36.3077 84.285 36.3077H84.0928C83.9761 36.3077 83.8824 36.2962 83.8652 36.1093C83.8595 36.0452 83.8475 35.6593 83.8475 35.4374V34.7254C84.0694 34.34 85.0386 32.8442 85.1324 32.7395C85.2251 32.6406 85.3657 32.6046 85.4469 32.6046H85.5756C85.6105 32.6046 85.6225 32.5817 85.6225 32.5463V32.4125C85.6225 32.3828 85.6105 32.3713 85.5756 32.3713ZM63.7125 34.0244C63.4792 33.9541 63.1521 33.814 63 33.6619C62.8599 33.5104 62.837 33.3348 62.837 33.1364C62.837 32.9203 63.0235 32.5463 63.4906 32.5463C63.7594 32.5463 63.9458 32.6286 64.0979 32.7916C64.3078 33.0135 64.4016 33.2473 64.4599 33.4109C64.4719 33.4458 64.4948 33.452 64.5182 33.4458L64.612 33.4166C64.6349 33.4109 64.6463 33.3994 64.6463 33.376C64.6463 33.3177 64.5536 32.5 64.5536 32.4062C64.5536 32.3479 64.5417 32.3125 64.5068 32.3125C64.4719 32.3125 64.4479 32.3244 64.4245 32.3479L64.349 32.4239C64.3198 32.4531 64.2849 32.4645 64.2266 32.4411C64.1094 32.3942 63.876 32.301 63.4906 32.301C63.1521 32.301 62.8948 32.3828 62.6615 32.5817C62.3813 32.8036 62.2532 33.0723 62.2532 33.3994C62.2532 33.7557 62.3464 34.0473 62.5448 34.2343C62.825 34.4916 63.2104 34.6551 63.3974 34.7254C64.0162 34.9588 64.2615 35.1338 64.2615 35.6712C64.2615 36.1556 63.8177 36.3546 63.5026 36.3546C63.2104 36.3546 62.9068 36.2145 62.7318 35.9337C62.5683 35.677 62.5214 35.4551 62.5099 35.2681C62.5099 35.2332 62.498 35.2213 62.475 35.2213L62.3464 35.2098C62.3235 35.2098 62.3172 35.2213 62.3115 35.2567C62.2995 35.3265 62.2178 36.2728 62.2063 36.3431C62.2063 36.4014 62.2297 36.4369 62.2761 36.4369C62.323 36.4369 62.3464 36.4249 62.3813 36.366C62.4162 36.3077 62.4396 36.2613 62.475 36.2613C62.5099 36.2613 62.5448 36.2848 62.6151 36.3311C62.8485 36.5066 63.1287 36.6119 63.6073 36.6119C64.3781 36.6119 64.8453 36.0275 64.8453 35.315C64.8453 34.9233 64.7401 34.6786 64.5536 34.4796C64.3312 34.2458 64.051 34.1291 63.7125 34.0244ZM23.2394 32.3713C23.1925 32.3713 23.0061 32.389 22.6436 32.389C22.2582 32.389 21.99 32.3713 21.9316 32.3713C21.8967 32.3713 21.8848 32.3828 21.8848 32.4182V32.564C21.8848 32.5875 21.8967 32.6046 21.9316 32.6046H22.142C22.2702 32.6046 22.3639 32.7099 22.3811 32.8619C22.3983 32.9963 22.4452 33.5104 22.4452 33.9775V35.0286C22.4452 35.4556 22.3285 35.7942 22.1066 36.0155C21.9196 36.191 21.5931 36.2962 21.3243 36.2962C21.0441 36.2962 20.729 36.2025 20.5306 35.9337C20.39 35.7473 20.3436 35.4785 20.3264 35.2098C20.3145 35.0228 20.3087 34.6082 20.3087 34.3166V33.5921C20.3087 33.2536 20.3202 32.9026 20.3264 32.8328C20.3317 32.7099 20.4369 32.6046 20.6119 32.6046H20.8572C20.8926 32.6046 20.904 32.5932 20.904 32.5578V32.4119C20.904 32.3828 20.8926 32.3713 20.8572 32.3713C20.7874 32.3713 20.5072 32.389 20.0166 32.389C19.4562 32.389 19.176 32.3713 19.1176 32.3713C19.0707 32.3713 19.0593 32.3828 19.0593 32.4182V32.5526C19.0593 32.5932 19.0707 32.6046 19.1062 32.6046H19.3744C19.5265 32.6046 19.5728 32.6984 19.5728 32.8968V34.2812C19.5728 35.0468 19.5963 35.4317 19.678 35.689C19.7947 36.0624 20.0285 36.3311 20.3671 36.4712C20.5889 36.565 20.9275 36.6119 21.2077 36.6119C21.6514 36.6119 22.0254 36.4712 22.2702 36.2494C22.5858 35.9692 22.7254 35.6072 22.7608 35.128C22.7837 34.8942 22.7957 33.8781 22.7957 33.7963C22.7957 33.7202 22.7957 32.9026 22.8071 32.8328C22.8186 32.7687 22.8425 32.6046 23.0524 32.6046H23.2628C23.292 32.6046 23.2977 32.5875 23.2977 32.5526V32.4182C23.2977 32.389 23.292 32.3713 23.2394 32.3713ZM77.8414 32.2369C77.8294 32.1672 77.8185 32.1432 77.783 32.1432C77.7481 32.1432 77.7247 32.1672 77.6778 32.202C77.5903 32.2661 77.3685 32.3479 77.2575 32.3536C76.9888 32.3656 76.744 32.389 76.1013 32.389H75.7862C75.2144 32.389 74.969 32.3656 74.6539 32.3536C74.4904 32.3484 74.3737 32.3187 74.2566 32.202C74.2217 32.1672 74.1987 32.1437 74.1628 32.1437C74.1399 32.1437 74.105 32.1672 74.093 32.2489C74.0701 32.3307 73.8717 33.1015 73.8133 33.3229C73.8071 33.3525 73.8133 33.3697 73.8368 33.3817L73.9534 33.4223C73.9821 33.4343 73.9998 33.4109 74.0175 33.3817C74.1284 33.1833 74.3503 32.7979 74.5368 32.7156C74.7815 32.6338 75.2029 32.6338 75.3893 32.6338H75.5529V34.0942C75.5529 34.2109 75.5529 35.9983 75.5357 36.1504C75.5294 36.2374 75.4597 36.3077 75.343 36.3077H75.0097C74.9868 36.3077 74.969 36.3192 74.969 36.3546V36.4889C74.969 36.5301 74.981 36.5415 75.0159 36.5415C75.0977 36.5415 75.343 36.5238 75.9378 36.5238C76.5685 36.5238 76.7555 36.5415 76.8143 36.5415C76.8612 36.5415 76.8727 36.5181 76.8727 36.4832V36.3603C76.8727 36.3311 76.8607 36.3082 76.8372 36.3082H76.4987C76.3581 36.3082 76.2997 36.191 76.2997 35.7473V32.6338H76.4633C76.6742 32.6338 77.1992 32.6458 77.3627 32.7395C77.5263 32.8562 77.7424 33.2302 77.8242 33.3932C77.8414 33.4286 77.8528 33.4458 77.8763 33.44L77.9929 33.3994C78.0112 33.3932 78.0226 33.3817 78.0164 33.3468C77.97 33.0666 77.8528 32.3416 77.8414 32.2369ZM31.0158 32.3713C30.9455 32.3713 30.8059 32.389 30.4554 32.389C30.0585 32.389 29.8716 32.3713 29.8012 32.3713C29.7544 32.3713 29.7544 32.3828 29.7544 32.4182V32.5526C29.7544 32.5817 29.7544 32.6046 29.7898 32.6046H29.9768C30.1169 32.6046 30.245 32.6869 30.2861 32.827C30.3153 32.926 30.3382 33.4989 30.3502 33.7202C30.3622 34.0119 30.3622 34.3046 30.3622 34.8181V35.4265H30.3387C30.245 35.3098 29.3346 34.1765 29.2528 34.0827C29.1356 33.9197 27.9914 32.4828 27.9331 32.4244C27.8982 32.3895 27.8633 32.3718 27.793 32.3718C27.7581 32.3718 27.7055 32.3776 27.6294 32.3776C27.5596 32.3833 27.4721 32.3895 27.3727 32.3895C27.1159 32.3895 26.9581 32.3895 26.8534 32.3833C26.7482 32.3781 26.7013 32.3718 26.6721 32.3718C26.6487 32.3718 26.6373 32.3833 26.6373 32.4067V32.5645C26.6373 32.588 26.6487 32.5994 26.6721 32.6052H26.8591C27.1159 32.6052 27.3143 32.8739 27.3143 33.2249V33.9666C27.3143 34.9004 27.2794 35.7186 27.2737 35.8233C27.2445 36.1796 27.1628 36.3082 27.0107 36.3082H26.8128C26.7888 36.3082 26.7774 36.3317 26.7774 36.3436V36.4895C26.7774 36.5306 26.7888 36.5421 26.8123 36.5421C26.8706 36.5421 27.268 36.5244 27.4195 36.5244C27.6414 36.5244 27.9914 36.5421 28.0497 36.5421C28.0966 36.5421 28.0966 36.5306 28.0966 36.4952V36.3608C28.0966 36.3317 28.0966 36.3087 28.0497 36.3087H27.8982C27.6878 36.3087 27.618 36.1681 27.6065 35.8764C27.5945 35.6952 27.5477 34.8775 27.5477 33.8848V33.1713H27.5831C27.6534 33.2531 28.5872 34.4213 28.669 34.503C28.7388 34.5968 29.1945 35.1457 29.6028 35.6478C29.9648 36.0801 30.2799 36.4421 30.3268 36.5004C30.3736 36.5473 30.4434 36.5941 30.5252 36.5941C30.5955 36.5941 30.5955 36.5124 30.5955 36.4301V34.8885C30.5955 34.2926 30.6538 33.3114 30.683 32.9145C30.7007 32.6984 30.759 32.6046 30.8757 32.6046H31.0392C31.0627 32.6046 31.0741 32.5817 31.0741 32.5463V32.4125C31.0741 32.3948 31.0627 32.3713 31.0158 32.3713ZM51.1805 35.4608C51.1571 35.4494 51.1399 35.4556 51.1164 35.4848C51.0055 35.6244 50.6789 36.0098 50.5737 36.1035C50.4216 36.2322 50.1998 36.29 50.0946 36.302C49.9779 36.3134 49.7092 36.3254 49.6045 36.3254C49.3826 36.3254 49.2425 36.302 49.1493 36.2785C49.0206 36.2436 48.9154 36.127 48.9154 35.8228C48.9154 35.7181 48.904 35.1457 48.8982 34.8301L48.892 34.4796C49.079 34.4796 49.3592 34.4916 49.5691 34.5145C49.6977 34.5265 49.8086 34.6082 49.8612 34.7254C49.8904 34.7952 49.9316 34.9233 49.955 35.0171C49.9664 35.052 49.9779 35.064 50.0013 35.0577L50.13 35.0348C50.1649 35.0286 50.1769 35.0228 50.1769 34.9937C50.1649 34.865 50.1414 34.5853 50.1414 34.351C50.1414 34.1994 50.1414 33.814 50.1534 33.7208C50.1586 33.6854 50.1414 33.6739 50.118 33.6739L49.967 33.6619C49.943 33.6619 49.9196 33.6739 49.9196 33.7088C49.9196 33.814 49.8612 33.9598 49.8263 34.0359C49.756 34.176 49.6857 34.2228 49.5576 34.2458C49.4873 34.264 49.0675 34.2754 48.892 34.2754L48.904 32.5875L49.7915 32.6109C49.955 32.6166 50.1123 32.6927 50.2347 32.7625C50.3753 32.8442 50.8534 33.3817 50.8768 33.4166C50.8946 33.4458 50.9123 33.452 50.93 33.4458L51.0352 33.3989C51.0581 33.388 51.0643 33.3703 51.0524 33.3348C51.0289 33.2765 50.8071 32.4823 50.7836 32.4062C50.7784 32.3828 50.7659 32.3713 50.7367 32.3713C50.7081 32.3713 50.5972 32.377 50.5034 32.377C50.2466 32.377 48.904 32.389 48.6472 32.389H48.4837C48.0045 32.3942 47.7946 32.3713 47.666 32.3713C47.6368 32.3713 47.6311 32.3828 47.6311 32.4125V32.5635C47.6311 32.5932 47.6425 32.6052 47.666 32.6052H47.8878C48.0628 32.6052 48.1212 32.652 48.1451 32.8093C48.1566 32.8911 48.168 33.6156 48.168 34.0942V36.0567C48.168 36.2728 48.1451 36.3077 47.8764 36.3077H47.678C47.6311 36.3077 47.6196 36.3192 47.6196 36.3546V36.4952C47.6196 36.5301 47.6311 36.5421 47.6665 36.5421C47.7712 36.5421 47.9811 36.5238 48.4134 36.5238C50.3633 36.5238 50.819 36.5415 50.8768 36.5415C50.9472 36.5415 50.9878 36.5066 51.0055 36.454L51.2857 35.578C51.2977 35.5483 51.2914 35.5311 51.2742 35.5192L51.1805 35.4608ZM44.2332 32.3713C44.1864 32.3713 44.0353 32.389 43.5442 32.389C43.1708 32.389 42.902 32.3713 42.8557 32.3713C42.8208 32.3713 42.8088 32.3828 42.8088 32.4182V32.5526C42.8088 32.5817 42.8265 32.6046 42.8494 32.6046H43.0072C43.1708 32.6046 43.2291 32.6984 43.2291 32.7687C43.2291 33.0083 42.8671 33.89 42.7739 34.1645C42.7156 34.3395 42.3416 35.3093 42.2015 35.6358V35.6478H42.1901C42.0963 35.3327 41.7812 34.4098 41.6994 34.1879C41.5828 33.8494 41.3609 33.1598 41.3203 32.9494C41.3026 32.8677 41.3026 32.7979 41.3026 32.751C41.3026 32.6635 41.3963 32.6052 41.5479 32.6052H41.8281C41.863 32.6052 41.875 32.5875 41.875 32.5463V32.4182C41.875 32.389 41.863 32.3713 41.8161 32.3713C41.7692 32.3713 41.501 32.389 40.9521 32.389C40.3453 32.389 40.1463 32.3713 40.088 32.3713C40.0651 32.3713 40.0531 32.3828 40.0531 32.4182V32.5526C40.0531 32.5875 40.0651 32.6046 40.088 32.6046H40.2286C40.3568 32.6046 40.4265 32.6635 40.4797 32.7921C40.5437 32.9614 40.8005 33.7088 40.9521 34.1291C41.151 34.6723 41.6411 36.0098 41.8395 36.5066C41.8687 36.5764 41.8979 36.6405 41.9682 36.6405C42.0151 36.6405 42.0614 36.6119 42.0848 36.565C42.1432 36.4421 42.8442 34.7369 42.9603 34.4796C43.1244 34.0942 43.4744 33.1828 43.6671 32.8734C43.8015 32.6635 43.9536 32.6046 44.0931 32.6046H44.2338C44.2681 32.6046 44.2801 32.5875 44.2801 32.5578V32.4119C44.2801 32.3828 44.2681 32.3713 44.2332 32.3713ZM36.4803 36.3077H36.2355C36.0949 36.3077 36.0016 36.2848 36.0016 36.0973L35.9897 34.6317V34.176C35.9897 34.1057 36.0016 32.8213 36.0016 32.7625C36.0016 32.6515 36.0954 32.6046 36.2235 32.6046H36.4454C36.4688 32.6046 36.4923 32.5932 36.4923 32.5578V32.4239C36.4923 32.3948 36.4803 32.3713 36.4454 32.3713C36.3636 32.3713 36.1766 32.389 35.6162 32.389C35.0438 32.389 34.7407 32.3713 34.6704 32.3713C34.647 32.3713 34.6355 32.3828 34.6355 32.4125V32.5635C34.6355 32.5932 34.647 32.6052 34.6824 32.6052H34.986C35.1491 32.6052 35.2074 32.6635 35.2251 32.8036C35.2308 32.8796 35.2428 33.9307 35.2428 34.0708V34.4796C35.2428 34.7952 35.2308 36.0567 35.2194 36.1384C35.1959 36.2962 35.0673 36.3077 34.9506 36.3077H34.7173C34.6819 36.3077 34.6704 36.3191 34.6704 36.3431V36.5004C34.6704 36.5301 34.6819 36.5421 34.7173 36.5421C34.7756 36.5421 35.0324 36.5238 35.6162 36.5238C36.1652 36.5238 36.3985 36.5415 36.4688 36.5415C36.5037 36.5415 36.5271 36.5301 36.5271 36.4947V36.3488C36.5271 36.3192 36.5037 36.3077 36.4803 36.3077ZM73.6706 14.5811C72.6201 15.4649 72.0873 16.5638 72.0873 17.8461C72.0873 19.2127 72.6509 20.3263 73.7618 21.1549C74.9034 22.0059 76.8065 22.6517 79.4189 23.0741C80.747 23.2955 81.6199 23.5262 82.0892 23.7788C82.609 24.0585 82.872 24.4632 82.872 24.9824C82.872 25.5293 82.5928 25.9803 82.0429 26.3235C81.5262 26.6454 80.8085 26.8079 79.909 26.8079C78.87 26.8079 77.981 26.5631 77.2664 26.0813C76.6023 25.6329 76.2279 25.023 76.1346 24.2767H72.716V29.4766H76.0966V28.2995L76.4945 28.7355C77.1706 29.475 78.4684 29.85 80.3507 29.85C82.3892 29.85 83.9808 29.3526 85.0808 28.3709C86.1745 27.3954 86.7287 26.1235 86.7287 24.5913C86.7287 23.5153 86.4386 22.5809 85.8657 21.8153C85.2891 21.0455 84.5116 20.4862 83.5532 20.1523C82.5611 19.8065 81.0413 19.4544 79.0377 19.1081C77.7221 18.8752 76.9195 18.6763 76.5846 18.4997C76.1987 18.2966 75.9945 17.9763 75.9945 17.5737C75.9945 16.5878 76.8372 16.0883 78.4997 16.0883C80.5543 16.0883 81.8111 16.668 82.2481 17.8044H85.6251V13.4879H82.3283V14.1644L82.0111 14.0306C80.7538 13.5009 79.3841 13.2321 77.9393 13.2321C76.1685 13.2321 74.7316 13.6858 73.6706 14.5811ZM67.426 8.59682L64.3062 10.8379V13.6035H62.2178V16.6576H64.3062V25.6314C64.3062 28.2954 65.5578 29.5365 68.2447 29.5365C69.3978 29.5365 70.602 29.2912 71.8259 28.8157V25.9371C71.3452 26.0772 70.9186 26.159 70.5546 26.159C69.8322 26.159 69.364 26.0011 69.1233 25.6761C68.9051 25.3829 68.8036 24.898 68.8036 24.1517V16.6571H71.8259V13.604H68.8036V7.60622L67.426 8.59682ZM55.6971 7.62028C54.6981 8.70359 54.1919 10.0786 54.1919 11.7061V13.5946H51.9836V16.6487H54.1919V26.2522H51.9805V29.2891H61.2699V26.2522H58.6881V16.6482H61.2699V13.5946H58.6881V11.4171C58.6881 9.22441 59.6308 8.76452 60.4225 8.76452C61.1235 8.76452 61.6735 9.28118 62.0636 10.289L65.1479 7.87861C64.113 6.6354 62.4542 6 60.2022 6C58.2033 6 56.6877 6.54478 55.6971 7.62028ZM42.1828 13.6014V16.655H44.714V24.6116L44.5629 24.7241C43.4484 25.5506 42.3958 25.9699 41.4338 25.9699C40.663 25.9699 40.1083 25.773 39.7859 25.3845C39.4766 25.0121 39.3255 24.3855 39.3255 23.4699V13.6014H32.384V16.655H34.847V24.8121C34.847 26.3214 35.2636 27.498 36.085 28.3084C36.9079 29.1214 38.0729 29.5334 39.5484 29.5334C41.0817 29.5334 42.6213 29.0073 44.1249 27.9688L44.7145 27.562V29.2959H51.0409V26.2589H49.2102V13.6014H42.1828ZM15 6.22708V15.1998H18.3072V9.92179H22.6092V26.0949H19.0582V29.3354H31.5538V26.0949H28.0049V9.92179H32.409C32.409 9.92179 32.4038 12.3691 32.4038 12.6582H35.6652V6.22708H15Z" fill="#475569"/>
</svg>