<svg width="915" height="836" viewBox="0 0 915 836" fill="none" xmlns="http://www.w3.org/2000/svg">
<g clip-path="url(#clip0_2652_2)">
<path d="M230.923 698.509V586.085H705.486L552.887 445.641V317.013H697.271L1015.52 621.984C1023.06 586.986 1027.11 550.749 1027.11 513.5C1027 229.91 797.09 0 513.5 0C229.91 0 0 229.91 0 513.5C0 797.09 229.91 1027 513.5 1027C537.132 1027 560.202 1025.31 583.047 1022.16L230.923 698.509Z" fill="#6622CB"/>
<path d="M697.271 317.125V445.754H552.888L705.486 586.198H812.733V698.621H230.924L583.048 1022.27C731.032 1002.24 858.985 919.303 938.998 801.141C948.901 786.511 958.016 771.432 966.344 755.789C988.626 714.264 1005.28 669.362 1015.41 622.097L697.159 317.125H697.271Z" fill="#331166"/>
<path d="M705.486 586.198H230.924V698.509H812.733V684.779V586.198H705.486Z" fill="white"/>
<path d="M697.27 317.125H552.887V445.754H697.27V317.125Z" fill="white"/>
</g>
<defs>
<clipPath id="clip0_2652_2">
<rect width="1027" height="1027" fill="white"/>
</clipPath>
</defs>
</svg>
