<svg width="244" height="129" viewBox="0 0 244 129" fill="none" xmlns="http://www.w3.org/2000/svg">
<path d="M11.0133 39.7996C12.446 44.7241 15.9567 47.4261 21.1407 47.4261C25.5263 47.4261 29.5182 45.8354 29.5182 41.7062C29.5182 39.5599 28.3261 37.577 23.0546 35.7466L16.9956 33.6766C4.63716 29.4711 2.7998 21.7683 2.7998 17.1598C2.7998 7.14725 10.6961 0.947998 21.6219 0.947998C30.2291 0.947998 36.9333 5.0772 40.2799 13.1068L30.2291 18.1076C27.8339 12.464 23.9295 11.8321 21.6219 11.8321C17.794 11.8321 14.8411 13.3465 14.8411 16.9963C14.8411 18.4236 15.2458 21.0493 20.8235 22.9559L26.7184 25.0259C39.2409 28.9155 41.472 36.3894 41.5486 41.4665C41.5486 53.146 31.3446 58.3102 21.5344 58.3102C10.8492 58.3102 1.12648 52.2743 0 41.9459L11.0023 39.7996H11.0133Z" fill="#FBF6FF"/>
<path d="M68.5816 15.8088C80.5463 15.8088 91.0675 24.3831 91.0675 37.0213C91.0675 49.6595 80.5463 58.3102 68.5816 58.3102C56.6168 58.3102 46.0957 49.8121 46.0957 37.0213C46.0957 24.2306 56.7043 15.8088 68.5816 15.8088ZM68.5816 48.1342C74.4874 48.1342 79.5074 43.3731 79.5074 37.0104C79.5074 30.6478 74.4874 25.9738 68.5816 25.9738C62.6758 25.9738 57.6558 30.6587 57.6558 37.0104C57.6558 43.3622 62.7632 48.1342 68.5816 48.1342Z" fill="#FBF6FF"/>
<path d="M97.6855 57.4275V0H109.563V57.4275H97.6855Z" fill="#FBF6FF"/>
<path d="M157.404 57.4275H145.527V51.8711C142.104 56.6322 137.795 58.31 132.851 58.31C121.368 58.31 118.262 49.18 118.262 38.8516V16.6802H130.139V38.601C130.139 44.2446 132.217 48.5263 137.718 48.5263C143.219 48.5263 145.527 44.1574 145.527 38.5138V16.6802H157.404V57.4275Z" fill="#FBF6FF"/>
<path d="M181.168 25.9738V45.04C181.168 46.7832 181.89 48.6136 184.198 48.6136C186.505 48.6136 187.304 46.7069 187.304 44.8003C187.304 43.6128 186.987 41.9458 186.746 41.303H196.152C196.873 42.8065 197.114 44.7132 197.114 46.1513C197.114 52.1871 193.122 58.2992 183.476 58.2992C176.301 58.2992 169.28 55.7607 169.28 43.9178V25.9738H163.145V16.6803H170.166L172.003 6.66782H181.168V25.9738Z" fill="#FBF6FF"/>
<path d="M241.759 50.2806C235.94 56.6323 228.208 58.2993 222.707 58.2993C207.56 58.2993 199.27 48.8424 199.27 37.2501C199.27 25.6579 208.675 15.8088 221.832 15.8088C233.151 15.8088 244.001 23.5878 244.001 39.7996H211.07C211.311 44.8875 216.014 48.6136 223.593 48.6136C227.814 48.6136 232.047 46.4673 234.912 43.7653L241.77 50.2806H241.759ZM211.3 32.6416H231.795C230.997 27.4011 225.66 25.4182 221.668 25.4182C217.676 25.4182 212.733 27.1614 211.3 32.6416Z" fill="#FBF6FF"/>
<path d="M41.5446 117.764V127.537H4.39258V71.9398H16.7511V117.775H41.5446V117.764Z" fill="#FBF6FF"/>
<path d="M89.0745 86.7896V127.537H77.1972V121.577C74.2443 125.783 70.3399 128.409 64.3575 128.409C51.9225 128.409 44.4199 118.875 44.4199 106.967C44.4199 95.0589 51.3538 85.918 64.1169 85.918C69.6181 85.918 74.4084 88.62 77.1972 92.357V86.8005H89.0745V86.7896ZM66.8292 118.799C72.6476 118.799 77.5144 115.062 77.5144 107.675C77.5144 100.289 72.9647 95.5274 66.5121 95.5274C60.0594 95.5274 56.3081 100.768 56.3081 107.043C56.3081 113.319 60.3 118.799 66.8292 118.799Z" fill="#FBF6FF"/>
<path d="M122.793 128.408C116.811 128.408 112.906 125.783 109.953 121.577V127.537H98.0762V70.1093H109.953V92.346C112.742 88.609 117.533 85.907 123.034 85.907C135.797 85.907 142.731 95.5164 142.731 106.956C142.731 118.396 135.239 128.397 122.793 128.397V128.408ZM120.639 95.5273C114.175 95.5273 109.636 100.136 109.636 107.675C109.636 115.215 114.503 118.799 120.321 118.799C126.862 118.799 130.843 113.559 130.843 107.043C130.843 100.528 127.179 95.5273 120.639 95.5273Z" fill="#FBF6FF"/>
<path d="M154.772 113.166C155.965 117.851 160.11 119.279 163.38 119.279C166.015 119.279 168.717 118.243 168.717 116.184C168.717 114.833 167.918 113.885 165.687 113.09L158.513 110.072C148.79 106.651 148.309 100.223 148.309 98.3928C148.309 90.2107 155.56 85.918 164.331 85.918C169.034 85.918 175.257 87.1927 179.085 94.4924L169.92 98.6979C168.881 95.4403 165.939 94.8083 164.101 94.8083C161.87 94.8083 159.552 96.0831 159.552 98.1422C159.552 99.8854 161.302 100.844 163.38 101.64L169.515 104.026C179.161 106.804 180.036 113.079 180.036 115.781C180.036 124.127 172.304 128.409 163.292 128.409C157.233 128.409 148.943 126.502 146.154 118.004L154.761 113.156L154.772 113.166Z" fill="#FBF6FF"/>
<path d="M187.455 117.524H243.998V128.409H187.455V117.524Z" fill="#FBF6FF"/>
<path d="M195.199 16.6802H184.732V25.9737H195.199V16.6802Z" fill="#FBF6FF"/>
</svg>
