<?xml version="1.0" encoding="UTF-8"?><svg id="Layer_2" xmlns="http://www.w3.org/2000/svg" viewBox="0 0 223.08 117.86"><defs><style>.cls-1{fill:#6622cb;}</style></defs><g id="Layer_1-2"><g><g><path class="cls-1" d="M10.06,36.53c1.31,4.52,4.52,7,9.26,7,4.01,0,7.66-1.46,7.66-5.25,0-1.97-1.09-3.79-5.91-5.47l-5.54-1.9C4.23,27.05,2.55,19.98,2.55,15.75,2.55,6.56,9.77,.87,19.76,.87c7.87,0,14,3.79,17.06,11.16l-9.19,4.59c-2.19-5.18-5.76-5.76-7.87-5.76-3.5,0-6.2,1.39-6.2,4.74,0,1.31,.37,3.72,5.47,5.47l5.39,1.9c11.45,3.57,13.49,10.43,13.56,15.09,0,10.72-9.33,15.46-18.3,15.46-9.77,0-18.66-5.54-19.69-15.02l10.06-1.97Z"/><path class="cls-1" d="M62.7,14.51c10.94,0,20.56,7.87,20.56,19.47s-9.62,19.54-20.56,19.54-20.56-7.8-20.56-19.54,9.7-19.47,20.56-19.47Zm0,29.67c5.4,0,9.99-4.37,9.99-10.21s-4.59-10.13-9.99-10.13-9.99,4.3-9.99,10.13,4.67,10.21,9.99,10.21Z"/><path class="cls-1" d="M89.31,52.71V0h10.86V52.71h-10.86Z"/><path class="cls-1" d="M143.91,52.71h-10.86v-5.1c-3.13,4.37-7.07,5.91-11.59,5.91-10.5,0-13.34-8.38-13.34-17.86V15.31h10.86v20.12c0,5.18,1.9,9.11,6.93,9.11s7.14-4.01,7.14-9.19V15.31h10.86V52.71Z"/><path class="cls-1" d="M165.64,23.84v17.5c0,1.6,.66,3.28,2.77,3.28s2.84-1.75,2.84-3.5c0-1.09-.29-2.62-.51-3.21h8.6c.66,1.38,.88,3.13,.88,4.45,0,5.54-3.65,11.15-12.47,11.15-6.56,0-12.98-2.33-12.98-13.2V23.84h-5.61V15.31h6.42l1.68-9.19h8.38V15.31"/><path class="cls-1" d="M221.04,46.15c-5.32,5.83-12.39,7.36-17.42,7.36-13.85,0-21.43-8.68-21.43-19.32s8.6-19.68,20.63-19.68c10.35,0,20.27,7.14,20.27,22.02h-30.11c.22,4.67,4.52,8.09,11.45,8.09,3.86,0,7.73-1.97,10.35-4.45l6.27,5.98Zm-27.85-16.19h18.74c-.73-4.81-5.61-6.63-9.26-6.63s-8.17,1.6-9.48,6.63Z"/></g><g><path class="cls-1" d="M37.64,108.09v8.97H3.66v-51.03H14.97v42.07h22.67Z"/><path class="cls-1" d="M81.09,79.66v37.4h-10.86v-5.47c-2.7,3.86-6.27,6.27-11.74,6.27-11.37,0-18.23-8.75-18.23-19.68s6.34-19.32,18.01-19.32c5.03,0,9.41,2.48,11.96,5.91v-5.1h10.86Zm-20.34,29.38c5.32,0,9.77-3.43,9.77-10.21s-4.16-11.15-10.06-11.15-9.33,4.81-9.33,10.57,3.65,10.79,9.62,10.79Z"/><path class="cls-1" d="M111.93,117.86c-5.47,0-9.04-2.41-11.74-6.27v5.47h-10.86v-52.71h10.86v20.41c2.55-3.43,6.93-5.91,11.96-5.91,11.67,0,18.01,8.82,18.01,19.32s-6.85,19.68-18.23,19.68Zm-1.97-30.18c-5.91,0-10.06,4.23-10.06,11.15s4.45,10.21,9.77,10.21c5.98,0,9.62-4.81,9.62-10.79s-3.35-10.57-9.33-10.57Z"/><path class="cls-1" d="M141.16,103.87c1.09,4.3,4.88,5.61,7.87,5.61,2.41,0,4.88-.95,4.88-2.84,0-1.24-.73-2.11-2.77-2.84l-6.56-2.77c-8.89-3.14-9.33-9.04-9.33-10.72,0-7.51,6.63-11.45,14.65-11.45,4.3,0,9.99,1.17,13.49,7.87l-8.38,3.86c-.95-2.99-3.64-3.57-5.32-3.57-2.04,0-4.16,1.17-4.16,3.06,0,1.6,1.6,2.48,3.5,3.21l5.61,2.19c8.82,2.55,9.62,8.31,9.62,10.79,0,7.66-7.07,11.59-15.31,11.59-5.54,0-13.12-1.75-15.67-9.55l7.87-4.45Z"/></g><path class="cls-1" d="M171.04,107.87h51.7v9.99h-51.7v-9.99Z"/><rect class="cls-1" x="168.55" y="15.31" width="9.57" height="8.53"/></g></g></svg>